<svg width="276" height="44" viewBox="0 0 276 44" fill="none" xmlns="http://www.w3.org/2000/svg">
<mask id="path-1-outside-1_3_6" maskUnits="userSpaceOnUse" x="0" y="0" width="276" height="44" fill="black">
<rect fill="white" width="276" height="44"/>
<path d="M36.245 16.3672H28.468C28.326 15.361 28.036 14.4673 27.598 13.6861C27.16 12.893 26.5978 12.2183 25.9112 11.6619C25.2247 11.1056 24.4316 10.6794 23.532 10.3835C22.6442 10.0876 21.6795 9.93963 20.6378 9.93963C18.7557 9.93963 17.1162 10.4072 15.7195 11.3423C14.3227 12.2656 13.2396 13.6151 12.4702 15.3906C11.7008 17.1544 11.3161 19.2969 11.3161 21.8182C11.3161 24.4105 11.7008 26.5885 12.4702 28.3523C13.2514 30.116 14.3404 31.4477 15.7372 32.3473C17.134 33.2469 18.7498 33.6967 20.5845 33.6967C21.6143 33.6967 22.5672 33.5606 23.4432 33.2884C24.331 33.0161 25.1181 32.6196 25.8047 32.0987C26.4912 31.5661 27.0594 30.9209 27.5092 30.1634C27.9709 29.4058 28.2905 28.5417 28.468 27.571L36.245 27.6065C36.0438 29.2756 35.5407 30.8854 34.7358 32.4361C33.9427 33.9749 32.8714 35.3539 31.522 36.5732C30.1844 37.7805 28.5864 38.7393 26.728 39.4496C24.8814 40.148 22.7921 40.4972 20.4602 40.4972C17.2169 40.4972 14.3168 39.7633 11.7599 38.2955C9.21496 36.8277 7.20265 34.7029 5.72301 31.9212C4.25521 29.1394 3.52131 25.7718 3.52131 21.8182C3.52131 17.8527 4.26705 14.4792 5.75852 11.6974C7.25 8.91572 9.27415 6.79687 11.831 5.34091C14.3878 3.87311 17.2642 3.1392 20.4602 3.1392C22.5672 3.1392 24.5204 3.43513 26.3196 4.02699C28.1307 4.61884 29.7346 5.48295 31.1314 6.61932C32.5282 7.74384 33.6645 9.12287 34.5405 10.7564C35.4283 12.3899 35.9964 14.2602 36.245 16.3672ZM49.18 24.233V40H41.6161V3.63636H48.967V17.5391H49.2866C49.9021 15.9292 50.8964 14.6686 52.2695 13.7571C53.6426 12.8338 55.3649 12.3722 57.4364 12.3722C59.3304 12.3722 60.9817 12.7865 62.3903 13.6151C63.8107 14.4318 64.9116 15.6096 65.6928 17.1484C66.4859 18.6754 66.8765 20.5043 66.8647 22.6349V40H59.3008V23.9844C59.3126 22.3035 58.8865 20.9955 58.0224 20.0604C57.1701 19.1252 55.9746 18.6577 54.4357 18.6577C53.4059 18.6577 52.4944 18.8767 51.7013 19.3146C50.9201 19.7526 50.3046 20.3918 49.8548 21.2322C49.4168 22.0608 49.1919 23.0611 49.18 24.233ZM80.5943 40.5149C78.8542 40.5149 77.3036 40.2131 75.9423 39.6094C74.581 38.9938 73.5038 38.0883 72.7108 36.8928C71.9295 35.6854 71.5389 34.1821 71.5389 32.3828C71.5389 30.8677 71.8171 29.5952 72.3734 28.5653C72.9297 27.5355 73.6873 26.7069 74.6461 26.0795C75.6049 25.4522 76.694 24.9787 77.9132 24.6591C79.1442 24.3395 80.4345 24.1146 81.7839 23.9844C83.3701 23.8187 84.6485 23.6648 85.6191 23.5227C86.5898 23.3688 87.2941 23.1439 87.7321 22.848C88.17 22.5521 88.389 22.1141 88.389 21.5341V21.4276C88.389 20.303 88.0339 19.433 87.3237 18.8175C86.6253 18.2019 85.631 17.8942 84.3407 17.8942C82.9795 17.8942 81.8964 18.196 81.0914 18.7997C80.2865 19.3916 79.7538 20.1373 79.4934 21.0369L72.4977 20.4688C72.8528 18.8116 73.5512 17.3793 74.5929 16.1719C75.6345 14.9527 76.978 14.0175 78.6234 13.3665C80.2806 12.7036 82.1982 12.3722 84.3762 12.3722C85.8914 12.3722 87.3414 12.5497 88.7264 12.9048C90.1232 13.2599 91.3601 13.8104 92.4373 14.5561C93.5263 15.3018 94.3845 16.2607 95.0119 17.4325C95.6393 18.5926 95.9529 19.9834 95.9529 21.6051V40H88.7797V36.218H88.5666C88.1286 37.0703 87.5427 37.822 86.8088 38.473C86.0749 39.1122 85.193 39.6153 84.1632 39.9822C83.1333 40.3374 81.9437 40.5149 80.5943 40.5149ZM82.7605 35.2947C83.8732 35.2947 84.8556 35.0758 85.7079 34.6378C86.5602 34.188 87.229 33.5843 87.7143 32.8267C88.1996 32.0691 88.4423 31.2109 88.4423 30.2521V27.358C88.2056 27.5118 87.88 27.6539 87.4657 27.7841C87.0633 27.9025 86.6075 28.0149 86.0985 28.1214C85.5895 28.2161 85.0806 28.3049 84.5716 28.3878C84.0626 28.4588 83.6009 28.5239 83.1866 28.5831C82.2988 28.7133 81.5235 28.9205 80.8606 29.2045C80.1977 29.4886 79.6828 29.8733 79.3159 30.3587C78.9489 30.8321 78.7654 31.424 78.7654 32.1342C78.7654 33.1641 79.1383 33.9512 79.8841 34.4957C80.6416 35.0284 81.6004 35.2947 82.7605 35.2947ZM101.821 40V12.7273H109.154V17.4858H109.438C109.936 15.7931 110.77 14.5147 111.942 13.6506C113.114 12.7746 114.463 12.3366 115.99 12.3366C116.369 12.3366 116.777 12.3603 117.215 12.4077C117.653 12.455 118.038 12.5201 118.369 12.603V19.3146C118.014 19.2081 117.523 19.1134 116.896 19.0305C116.268 18.9477 115.694 18.9062 115.173 18.9062C114.061 18.9062 113.066 19.1489 112.191 19.6342C111.326 20.1077 110.64 20.7706 110.131 21.6229C109.634 22.4751 109.385 23.4576 109.385 24.5703V40H101.821ZM129.276 40.5149C127.536 40.5149 125.985 40.2131 124.624 39.6094C123.263 38.9938 122.185 38.0883 121.392 36.8928C120.611 35.6854 120.221 34.1821 120.221 32.3828C120.221 30.8677 120.499 29.5952 121.055 28.5653C121.611 27.5355 122.369 26.7069 123.328 26.0795C124.287 25.4522 125.376 24.9787 126.595 24.6591C127.826 24.3395 129.116 24.1146 130.466 23.9844C132.052 23.8187 133.33 23.6648 134.301 23.5227C135.271 23.3688 135.976 23.1439 136.414 22.848C136.852 22.5521 137.071 22.1141 137.071 21.5341V21.4276C137.071 20.303 136.716 19.433 136.005 18.8175C135.307 18.2019 134.313 17.8942 133.022 17.8942C131.661 17.8942 130.578 18.196 129.773 18.7997C128.968 19.3916 128.435 20.1373 128.175 21.0369L121.179 20.4688C121.534 18.8116 122.233 17.3793 123.275 16.1719C124.316 14.9527 125.66 14.0175 127.305 13.3665C128.962 12.7036 130.88 12.3722 133.058 12.3722C134.573 12.3722 136.023 12.5497 137.408 12.9048C138.805 13.2599 140.042 13.8104 141.119 14.5561C142.208 15.3018 143.066 16.2607 143.694 17.4325C144.321 18.5926 144.635 19.9834 144.635 21.6051V40H137.461V36.218H137.248C136.81 37.0703 136.224 37.822 135.49 38.473C134.757 39.1122 133.875 39.6153 132.845 39.9822C131.815 40.3374 130.625 40.5149 129.276 40.5149ZM131.442 35.2947C132.555 35.2947 133.537 35.0758 134.39 34.6378C135.242 34.188 135.911 33.5843 136.396 32.8267C136.881 32.0691 137.124 31.2109 137.124 30.2521V27.358C136.887 27.5118 136.562 27.6539 136.147 27.7841C135.745 27.9025 135.289 28.0149 134.78 28.1214C134.271 28.2161 133.762 28.3049 133.253 28.3878C132.744 28.4588 132.283 28.5239 131.868 28.5831C130.98 28.7133 130.205 28.9205 129.542 29.2045C128.879 29.4886 128.364 29.8733 127.998 30.3587C127.631 30.8321 127.447 31.424 127.447 32.1342C127.447 33.1641 127.82 33.9512 128.566 34.4957C129.323 35.0284 130.282 35.2947 131.442 35.2947ZM162.825 40.5327C160.032 40.5327 157.629 39.9408 155.616 38.7571C153.616 37.5616 152.077 35.9044 151 33.7855C149.935 31.6667 149.402 29.2282 149.402 26.4702C149.402 23.6766 149.941 21.2263 151.018 19.1193C152.107 17.0005 153.652 15.3492 155.652 14.1655C157.652 12.9699 160.032 12.3722 162.79 12.3722C165.169 12.3722 167.252 12.8042 169.04 13.6683C170.827 14.5324 172.242 15.7457 173.283 17.3082C174.325 18.8707 174.899 20.7055 175.006 22.8125H167.868C167.667 21.4512 167.134 20.3563 166.27 19.5277C165.418 18.6873 164.299 18.267 162.914 18.267C161.742 18.267 160.718 18.5866 159.842 19.2259C158.978 19.8532 158.304 20.7706 157.818 21.978C157.333 23.1854 157.09 24.6473 157.09 26.3636C157.09 28.1037 157.327 29.5833 157.8 30.8026C158.286 32.0218 158.966 32.951 159.842 33.5902C160.718 34.2294 161.742 34.549 162.914 34.549C163.778 34.549 164.554 34.3714 165.24 34.0163C165.938 33.6612 166.513 33.1463 166.962 32.4716C167.424 31.785 167.726 30.9624 167.868 30.0036H175.006C174.887 32.0869 174.319 33.9216 173.301 35.5078C172.295 37.0821 170.904 38.3132 169.129 39.201C167.353 40.0888 165.252 40.5327 162.825 40.5327ZM194.355 12.7273V18.4091H177.931V12.7273H194.355ZM181.66 6.19318H189.224V31.6193C189.224 32.3177 189.33 32.8622 189.543 33.2528C189.756 33.6316 190.052 33.898 190.431 34.0518C190.822 34.2057 191.271 34.2827 191.78 34.2827C192.135 34.2827 192.491 34.2531 192.846 34.1939C193.201 34.1229 193.473 34.0696 193.662 34.0341L194.852 39.6626C194.473 39.781 193.941 39.9171 193.254 40.071C192.568 40.2367 191.733 40.3374 190.751 40.3729C188.928 40.4439 187.33 40.2012 185.956 39.6449C184.595 39.0885 183.536 38.2244 182.778 37.0526C182.021 35.8807 181.648 34.401 181.66 32.6136V6.19318ZM211.418 40.5327C208.613 40.5327 206.198 39.9645 204.174 38.8281C202.162 37.6799 200.611 36.0582 199.522 33.9631C198.433 31.8561 197.888 29.3643 197.888 26.4879C197.888 23.6825 198.433 21.2204 199.522 19.1016C200.611 16.9827 202.144 15.3314 204.121 14.1477C206.109 12.964 208.441 12.3722 211.116 12.3722C212.916 12.3722 214.59 12.6622 216.141 13.2422C217.704 13.8104 219.065 14.6686 220.225 15.8168C221.397 16.965 222.308 18.4091 222.959 20.1491C223.61 21.8774 223.936 23.9015 223.936 26.2216V28.299H200.907V23.6115H216.816C216.816 22.5225 216.579 21.5578 216.106 20.7173C215.632 19.8769 214.975 19.2199 214.135 18.7464C213.306 18.2611 212.341 18.0185 211.241 18.0185C210.092 18.0185 209.074 18.2848 208.187 18.8175C207.311 19.3383 206.624 20.0426 206.127 20.9304C205.63 21.8063 205.375 22.7829 205.363 23.8601V28.3168C205.363 29.6662 205.612 30.8321 206.109 31.8146C206.618 32.7971 207.334 33.5547 208.258 34.0874C209.181 34.62 210.276 34.8864 211.542 34.8864C212.383 34.8864 213.152 34.768 213.851 34.5312C214.549 34.2945 215.147 33.9394 215.644 33.4659C216.141 32.9924 216.52 32.4124 216.78 31.7259L223.776 32.1875C223.421 33.8684 222.693 35.3362 221.592 36.5909C220.503 37.8338 219.095 38.8045 217.366 39.5028C215.65 40.1894 213.667 40.5327 211.418 40.5327ZM228.872 40V12.7273H236.205V17.4858H236.489C236.986 15.7931 237.821 14.5147 238.993 13.6506C240.165 12.7746 241.514 12.3366 243.041 12.3366C243.42 12.3366 243.828 12.3603 244.266 12.4077C244.704 12.455 245.089 12.5201 245.42 12.603V19.3146C245.065 19.2081 244.574 19.1134 243.947 19.0305C243.319 18.9477 242.745 18.9062 242.224 18.9062C241.112 18.9062 240.117 19.1489 239.241 19.6342C238.377 20.1077 237.691 20.7706 237.182 21.6229C236.684 22.4751 236.436 23.4576 236.436 24.5703V40H228.872ZM272.023 20.5043L265.098 20.9304C264.98 20.3385 264.725 19.8059 264.335 19.3324C263.944 18.8471 263.429 18.4624 262.79 18.1783C262.162 17.8823 261.411 17.7344 260.535 17.7344C259.363 17.7344 258.375 17.983 257.57 18.4801C256.765 18.9654 256.362 19.6165 256.362 20.4332C256.362 21.0843 256.623 21.6347 257.143 22.0845C257.664 22.5343 258.558 22.8954 259.825 23.1676L264.761 24.1619C267.412 24.7064 269.389 25.5824 270.691 26.7898C271.993 27.9972 272.644 29.5833 272.644 31.5483C272.644 33.3357 272.117 34.9041 271.064 36.2536C270.022 37.603 268.59 38.6565 266.767 39.4141C264.956 40.1598 262.867 40.5327 260.499 40.5327C256.889 40.5327 254.013 39.781 251.87 38.2777C249.739 36.7625 248.491 34.7029 248.124 32.0987L255.563 31.7081C255.788 32.8089 256.333 33.6494 257.197 34.2294C258.061 34.7976 259.168 35.0817 260.517 35.0817C261.843 35.0817 262.908 34.8272 263.713 34.3182C264.53 33.7973 264.944 33.1286 264.956 32.3118C264.944 31.6252 264.654 31.063 264.086 30.625C263.518 30.1752 262.642 29.8319 261.458 29.5952L256.735 28.6541C254.072 28.1214 252.089 27.1982 250.787 25.8842C249.497 24.5703 248.852 22.8954 248.852 20.8594C248.852 19.1075 249.325 17.5982 250.272 16.3317C251.231 15.0651 252.574 14.0885 254.303 13.402C256.043 12.7154 258.079 12.3722 260.411 12.3722C263.855 12.3722 266.566 13.1001 268.543 14.5561C270.531 16.0121 271.691 17.9948 272.023 20.5043Z"/>
</mask>
<path d="M36.245 16.3672V19.3672H39.6198L39.2244 16.0157L36.245 16.3672ZM28.468 16.3672L25.4975 16.7866L25.8618 19.3672H28.468V16.3672ZM27.598 13.6861L24.9719 15.1363L24.9765 15.1447L24.9812 15.1531L27.598 13.6861ZM25.9112 11.6619L24.0225 13.9927L24.0225 13.9927L25.9112 11.6619ZM23.532 10.3835L22.5833 13.2296L22.5945 13.2333L23.532 10.3835ZM15.7195 11.3423L17.3738 13.845L17.3811 13.8401L17.3884 13.8352L15.7195 11.3423ZM12.4702 15.3906L15.2199 16.5902L15.2228 16.5834L12.4702 15.3906ZM12.4702 28.3523L9.72043 29.5518L9.7238 29.5596L9.72722 29.5673L12.4702 28.3523ZM15.7372 32.3473L14.1128 34.8694L14.1128 34.8694L15.7372 32.3473ZM23.4432 33.2884L22.5636 30.4202L22.5528 30.4235L23.4432 33.2884ZM25.8047 32.0987L27.6178 34.4888L27.6308 34.479L27.6437 34.469L25.8047 32.0987ZM27.5092 30.1634L24.9474 28.6022L24.9385 28.6169L24.9297 28.6317L27.5092 30.1634ZM28.468 27.571L28.4817 24.5711L25.9691 24.5596L25.517 27.0312L28.468 27.571ZM36.245 27.6065L39.2235 27.9656L39.6266 24.6219L36.2587 24.6066L36.245 27.6065ZM34.7358 32.4361L32.0731 31.0539L32.0691 31.0617L34.7358 32.4361ZM31.522 36.5732L33.5322 38.8001L33.5332 38.7991L31.522 36.5732ZM26.728 39.4496L27.7892 42.2556L27.7989 42.2519L26.728 39.4496ZM11.7599 38.2955L10.2611 40.8942L10.2663 40.8972L11.7599 38.2955ZM5.72301 31.9212L3.06971 33.3212L3.07439 33.33L5.72301 31.9212ZM5.75852 11.6974L8.40246 13.115L8.40246 13.115L5.75852 11.6974ZM11.831 5.34091L13.3155 7.94788L13.3246 7.94267L11.831 5.34091ZM26.3196 4.02699L25.3822 6.87677L25.3877 6.87858L26.3196 4.02699ZM31.1314 6.61932L29.2381 8.94645L29.2441 8.9513L29.2501 8.95611L31.1314 6.61932ZM34.5405 10.7564L31.8966 12.1741L31.9006 12.1815L31.9046 12.1889L34.5405 10.7564ZM36.245 13.3672H28.468V19.3672H36.245V13.3672ZM31.4386 15.9478C31.2515 14.6227 30.8574 13.3652 30.2149 12.2191L24.9812 15.1531C25.2146 15.5694 25.4005 16.0994 25.4975 16.7866L31.4386 15.9478ZM30.2242 12.2358C29.6042 11.1132 28.7944 10.137 27.8 9.33113L24.0225 13.9927C24.4012 14.2996 24.7159 14.6728 24.9719 15.1363L30.2242 12.2358ZM27.8 9.33113C26.8107 8.52949 25.69 7.93526 24.4694 7.53374L22.5945 13.2333C23.1732 13.4236 23.6386 13.6817 24.0225 13.9927L27.8 9.33113ZM24.4806 7.53747C23.2545 7.12874 21.9658 6.93963 20.6378 6.93963V12.9396C21.3931 12.9396 22.0339 13.0464 22.5833 13.2296L24.4806 7.53747ZM20.6378 6.93963C18.2352 6.93963 15.999 7.54492 14.0505 8.84943L17.3884 13.8352C18.2335 13.2695 19.2762 12.9396 20.6378 12.9396V6.93963ZM14.0652 8.83967C12.111 10.1314 10.6814 11.9735 9.7175 14.1978L15.2228 16.5834C15.7978 15.2566 16.5344 14.3998 17.3738 13.845L14.0652 8.83967ZM9.72043 14.1911C8.74327 16.431 8.31605 19.0062 8.31605 21.8182H14.3161C14.3161 19.5876 14.6583 17.8777 15.2199 16.5902L9.72043 14.1911ZM8.31605 21.8182C8.31605 24.688 8.73929 27.3027 9.72043 29.5518L15.2199 27.1527C14.6622 25.8743 14.3161 24.1331 14.3161 21.8182H8.31605ZM9.72722 29.5673C10.7066 31.7783 12.1482 33.6041 14.1128 34.8694L17.3616 29.8252C16.5327 29.2912 15.7963 28.4537 15.2131 27.1373L9.72722 29.5673ZM14.1128 34.8694C16.0438 36.1131 18.2359 36.6967 20.5845 36.6967V30.6967C19.2636 30.6967 18.2242 30.3807 17.3616 29.8252L14.1128 34.8694ZM20.5845 36.6967C21.8797 36.6967 23.1364 36.5253 24.3336 36.1532L22.5528 30.4235C21.9981 30.5959 21.349 30.6967 20.5845 30.6967V36.6967ZM24.3228 36.1565C25.5212 35.789 26.6295 35.2385 27.6178 34.4888L23.9915 29.7086C23.6067 30.0006 23.1408 30.2432 22.5636 30.4202L24.3228 36.1565ZM27.6437 34.469C28.6317 33.7024 29.4496 32.7715 30.0888 31.695L24.9297 28.6317C24.6692 29.0704 24.3508 29.4297 23.9657 29.7285L27.6437 34.469ZM30.0711 31.7245C30.7442 30.6199 31.1828 29.4024 31.4191 28.1108L25.517 27.0312C25.3982 27.6809 25.1976 28.1917 24.9474 28.6022L30.0711 31.7245ZM28.4543 30.571L36.2313 30.6065L36.2587 24.6066L28.4817 24.5711L28.4543 30.571ZM33.2666 27.2474C33.1101 28.5453 32.7189 29.8099 32.0731 31.0539L37.3984 33.8182C38.3625 31.961 38.9775 30.0058 39.2235 27.9656L33.2666 27.2474ZM32.0691 31.0617C31.4497 32.2635 30.606 33.3577 29.5108 34.3472L33.5332 38.7991C35.1369 37.3502 36.4357 35.6863 37.4025 33.8104L32.0691 31.0617ZM29.5119 34.3462C28.4764 35.2809 27.2055 36.0555 25.657 36.6472L27.7989 42.2519C29.9673 41.4232 31.8925 40.2802 33.5322 38.8001L29.5119 34.3462ZM25.6667 36.6436C24.2146 37.1928 22.4939 37.4972 20.4602 37.4972V43.4972C23.0904 43.4972 25.5482 43.1032 27.7892 42.2556L25.6667 36.6436ZM20.4602 37.4972C17.6871 37.4972 15.3113 36.875 13.2535 35.6937L10.2663 40.8972C13.3222 42.6515 16.7466 43.4972 20.4602 43.4972V37.4972ZM13.2588 35.6967C11.2365 34.5304 9.60707 32.835 8.37163 30.5123L3.07439 33.33C4.79823 36.5708 7.19339 39.1249 10.2611 40.8942L13.2588 35.6967ZM8.3763 30.5211C7.18732 28.2678 6.52131 25.4066 6.52131 21.8182H0.521307C0.521307 26.1369 1.32309 30.011 3.06973 33.3212L8.3763 30.5211ZM6.52131 21.8182C6.52131 18.2231 7.19716 15.363 8.40246 13.115L3.11459 10.2798C1.33693 13.5953 0.521307 17.4824 0.521307 21.8182H6.52131ZM8.40246 13.115C9.64734 10.7932 11.2853 9.10394 13.3155 7.94786L10.3465 2.73395C7.26299 4.48981 4.85266 7.03819 3.11458 10.2798L8.40246 13.115ZM13.3246 7.94267C15.389 6.75752 17.7429 6.1392 20.4602 6.1392V0.139203C16.7855 0.139203 13.3865 0.988692 10.3374 2.73915L13.3246 7.94267ZM20.4602 6.1392C22.2842 6.1392 23.9174 6.39493 25.3822 6.87676L27.257 1.17721C25.1233 0.475333 22.8502 0.139203 20.4602 0.139203V6.1392ZM25.3877 6.87858C26.8694 7.3628 28.1432 8.05569 29.2381 8.94645L33.0247 4.29218C31.326 2.91022 29.3919 1.87488 27.2515 1.1754L25.3877 6.87858ZM29.2501 8.95611C30.323 9.81995 31.2041 10.8828 31.8966 12.1741L37.1844 9.33866C36.1249 7.36297 34.7333 5.66774 33.0127 4.28252L29.2501 8.95611ZM31.9046 12.1889C32.5863 13.4433 33.0556 14.9376 33.2657 16.7187L39.2244 16.0157C38.9373 13.5828 38.2702 11.3365 37.1764 9.32385L31.9046 12.1889ZM49.18 24.233L46.1802 24.2027L46.18 24.2178V24.233H49.18ZM49.18 40V43H52.18V40H49.18ZM41.6161 40H38.6161V43H41.6161V40ZM41.6161 3.63636V0.636363H38.6161V3.63636H41.6161ZM48.967 3.63636H51.967V0.636363H48.967V3.63636ZM48.967 17.5391H45.967V20.5391H48.967V17.5391ZM49.2866 17.5391V20.5391H51.3513L52.0887 18.6105L49.2866 17.5391ZM52.2695 13.7571L53.9287 16.2566L53.9361 16.2516L53.9435 16.2466L52.2695 13.7571ZM62.3903 13.6151L60.8692 16.2009L60.882 16.2084L60.8949 16.2158L62.3903 13.6151ZM65.6928 17.1484L63.0178 18.5065L63.0241 18.5189L63.0305 18.5312L65.6928 17.1484ZM66.8647 22.6349L63.8647 22.6183L63.8647 22.6266V22.6349H66.8647ZM66.8647 40V43H69.8647V40H66.8647ZM59.3008 40H56.3008V43H59.3008V40ZM59.3008 23.9844L56.3009 23.9632L56.3008 23.9738V23.9844H59.3008ZM58.0224 20.0604L55.8051 22.0812L55.812 22.0888L55.819 22.0964L58.0224 20.0604ZM51.7013 19.3146L50.2511 16.6885L50.2427 16.6931L50.2343 16.6978L51.7013 19.3146ZM49.8548 21.2322L47.2098 19.8166L47.2061 19.8235L47.2025 19.8303L49.8548 21.2322ZM46.18 24.233V40H52.18V24.233H46.18ZM49.18 37H41.6161V43H49.18V37ZM44.6161 40V3.63636H38.6161V40H44.6161ZM41.6161 6.63636H48.967V0.636363H41.6161V6.63636ZM45.967 3.63636V17.5391H51.967V3.63636H45.967ZM48.967 20.5391H49.2866V14.5391H48.967V20.5391ZM52.0887 18.6105C52.4921 17.5556 53.1007 16.8061 53.9287 16.2566L50.6104 11.2576C48.6921 12.531 47.3122 14.3028 46.4844 16.4677L52.0887 18.6105ZM53.9435 16.2466C54.7101 15.7312 55.8107 15.3722 57.4364 15.3722V9.37216C54.9192 9.37216 52.5752 9.93642 50.5955 11.2676L53.9435 16.2466ZM57.4364 15.3722C58.8816 15.3722 59.9906 15.684 60.8692 16.2009L63.9113 11.0293C61.9727 9.88889 59.7791 9.37216 57.4364 9.37216V15.3722ZM60.8949 16.2158C61.7821 16.7259 62.4858 17.4586 63.0178 18.5065L68.3678 15.7904C67.3373 13.7606 65.8394 12.1377 63.8857 11.0143L60.8949 16.2158ZM63.0305 18.5312C63.5518 19.535 63.8745 20.8604 63.8647 22.6183L69.8647 22.6516C69.8786 20.1481 69.42 17.8159 68.3552 15.7657L63.0305 18.5312ZM63.8647 22.6349V40H69.8647V22.6349H63.8647ZM66.8647 37H59.3008V43H66.8647V37ZM62.3008 40V23.9844H56.3008V40H62.3008ZM62.3007 24.0055C62.3161 21.8131 61.755 19.6794 60.2257 18.0244L55.819 22.0964C56.0179 22.3116 56.3091 22.7939 56.3009 23.9632L62.3007 24.0055ZM60.2397 18.0396C58.6983 16.3484 56.6211 15.6577 54.4357 15.6577V21.6577C55.328 21.6577 55.6419 21.9021 55.8051 22.0812L60.2397 18.0396ZM54.4357 15.6577C52.9689 15.6577 51.5459 15.9734 50.2511 16.6885L53.1516 21.9408C53.4429 21.7799 53.8429 21.6577 54.4357 21.6577V15.6577ZM50.2343 16.6978C48.9213 17.4339 47.9115 18.5056 47.2098 19.8166L52.4998 22.6479C52.6977 22.278 52.9189 22.0713 53.1684 21.9315L50.2343 16.6978ZM47.2025 19.8303C46.4919 21.1746 46.1957 22.6697 46.1802 24.2027L52.1799 24.2633C52.1881 23.4525 52.3417 22.947 52.507 22.6342L47.2025 19.8303ZM75.9423 39.6094L74.7063 42.3429L74.7162 42.3474L74.7261 42.3518L75.9423 39.6094ZM72.7108 36.8928L70.192 38.5225L70.2013 38.5369L70.2108 38.5511L72.7108 36.8928ZM72.3734 28.5653L69.7339 27.1394L69.7339 27.1394L72.3734 28.5653ZM74.6461 26.0795L73.0035 23.5692L73.0035 23.5692L74.6461 26.0795ZM77.9132 24.6591L77.1593 21.7553L77.1525 21.7571L77.9132 24.6591ZM81.7839 23.9844L82.072 26.9705L82.0839 26.9694L82.0957 26.9681L81.7839 23.9844ZM85.6191 23.5227L86.0535 26.4911L86.0712 26.4885L86.0889 26.4857L85.6191 23.5227ZM87.7321 22.848L86.0525 20.3622L86.0525 20.3622L87.7321 22.848ZM87.3237 18.8175L85.3401 21.0681L85.3495 21.0764L85.3589 21.0845L87.3237 18.8175ZM81.0914 18.7997L82.8686 21.2167L82.8801 21.2082L82.8914 21.1997L81.0914 18.7997ZM79.4934 21.0369L79.2506 24.0271L81.6936 24.2255L82.3751 21.8711L79.4934 21.0369ZM72.4977 20.4688L69.5643 19.8402L68.8481 23.1822L72.2548 23.4589L72.4977 20.4688ZM74.5929 16.1719L76.8643 18.1316L76.8691 18.1261L76.8738 18.1206L74.5929 16.1719ZM78.6234 13.3665L79.7272 16.1561L79.7376 16.1519L78.6234 13.3665ZM88.7264 12.9048L87.9813 15.8108L87.9872 15.8123L88.7264 12.9048ZM92.4373 14.5561L90.7297 17.0227L90.736 17.027L90.7423 17.0314L92.4373 14.5561ZM95.0119 17.4325L92.367 18.8485L92.3731 18.8596L95.0119 17.4325ZM95.9529 40V43H98.9529V40H95.9529ZM88.7797 40H85.7797V43H88.7797V40ZM88.7797 36.218H91.7797V33.218H88.7797V36.218ZM88.5666 36.218V33.218H86.7353L85.8983 34.8468L88.5666 36.218ZM86.8088 38.473L88.7791 40.7353L88.7894 40.7263L88.7996 40.7172L86.8088 38.473ZM84.1632 39.9822L85.1411 42.8184L85.1557 42.8134L85.1701 42.8082L84.1632 39.9822ZM85.7079 34.6378L87.0791 37.3061L87.0937 37.2986L87.1082 37.2909L85.7079 34.6378ZM87.7143 32.8267L85.1882 31.2084L85.1882 31.2084L87.7143 32.8267ZM88.4423 27.358H91.4423V21.8299L86.8073 24.8426L88.4423 27.358ZM87.4657 27.7841L88.3122 30.6622L88.3388 30.6544L88.3652 30.6461L87.4657 27.7841ZM86.0985 28.1214L86.6473 31.0708L86.6803 31.0647L86.7131 31.0578L86.0985 28.1214ZM84.5716 28.3878L84.9861 31.359L85.0199 31.3543L85.0536 31.3488L84.5716 28.3878ZM83.1866 28.5831L82.7623 25.6132L82.7513 25.6149L83.1866 28.5831ZM80.8606 29.2045L82.0424 31.962L82.0424 31.962L80.8606 29.2045ZM79.3159 30.3587L81.6871 32.1964L81.6981 32.1822L81.7089 32.168L79.3159 30.3587ZM79.8841 34.4957L78.115 36.9186L78.1366 36.9344L78.1585 36.9498L79.8841 34.4957ZM80.5943 37.5149C79.2033 37.5149 78.0777 37.2746 77.1585 36.867L74.7261 42.3518C76.5294 43.1515 78.5052 43.5149 80.5943 43.5149V37.5149ZM77.1783 36.8758C76.3088 36.4826 75.6787 35.9398 75.2107 35.2344L70.2108 38.5511C71.329 40.2368 72.8533 41.505 74.7063 42.3429L77.1783 36.8758ZM75.2295 35.263C74.8328 34.65 74.5389 33.7488 74.5389 32.3828H68.5389C68.5389 34.6154 69.0262 36.7207 70.192 38.5225L75.2295 35.263ZM74.5389 32.3828C74.5389 31.2231 74.7527 30.4729 75.0129 29.9913L69.7339 27.1394C68.8814 28.7175 68.5389 30.5122 68.5389 32.3828H74.5389ZM75.0129 29.9913C75.3375 29.3903 75.7564 28.9382 76.2887 28.5899L73.0035 23.5692C71.6182 24.4756 70.522 25.6807 69.7339 27.1394L75.0129 29.9913ZM76.2887 28.5899C76.9509 28.1566 77.7367 27.8067 78.6739 27.561L77.1525 21.7571C75.6512 22.1507 74.2589 22.7477 73.0035 23.5692L76.2887 28.5899ZM78.667 27.5628C79.7356 27.2854 80.8695 27.0865 82.072 26.9705L81.4958 20.9982C79.9994 21.1426 78.5529 21.3936 77.1593 21.7554L78.667 27.5628ZM82.0957 26.9681C83.7009 26.8004 85.025 26.6416 86.0535 26.4911L85.1847 20.5543C84.272 20.6879 83.0392 20.8369 81.4722 21.0006L82.0957 26.9681ZM86.0889 26.4857C87.183 26.3123 88.418 26.0051 89.4116 25.3338L86.0525 20.3622C86.1434 20.3008 86.1423 20.3235 85.9628 20.3808C85.7935 20.4348 85.5303 20.4993 85.1494 20.5597L86.0889 26.4857ZM89.4116 25.3338C90.7656 24.4189 91.389 22.9964 91.389 21.5341H85.389C85.389 21.4438 85.4076 21.2237 85.5415 20.9559C85.6808 20.6773 85.8791 20.4794 86.0525 20.3622L89.4116 25.3338ZM91.389 21.5341V21.4276H85.389V21.5341H91.389ZM91.389 21.4276C91.389 19.6205 90.7858 17.8481 89.2885 16.5504L85.3589 21.0845C85.364 21.089 85.3594 21.0856 85.3519 21.0751C85.3443 21.0647 85.3426 21.0592 85.3451 21.0653C85.35 21.0771 85.389 21.1792 85.389 21.4276H91.389ZM89.3073 16.5668C87.8811 15.3099 86.0794 14.8942 84.3407 14.8942V20.8942C84.7541 20.8942 85.0164 20.9442 85.1671 20.9909C85.2402 21.0135 85.2845 21.0345 85.3079 21.0472C85.3304 21.0595 85.3389 21.067 85.3401 21.0681L89.3073 16.5668ZM84.3407 14.8942C82.5567 14.8942 80.7715 15.2897 79.2914 16.3997L82.8914 21.1997C83.0213 21.1024 83.4022 20.8942 84.3407 20.8942V14.8942ZM79.3143 16.3828C78.0148 17.3382 77.0686 18.6245 76.6117 20.2028L82.3751 21.8711C82.4391 21.6502 82.5582 21.4449 82.8686 21.2167L79.3143 16.3828ZM79.7363 18.0468L72.7405 17.4786L72.2548 23.4589L79.2506 24.0271L79.7363 18.0468ZM75.4311 21.0973C75.6876 19.9004 76.1722 18.9338 76.8643 18.1316L72.3214 14.2122C70.9302 15.8247 70.018 17.7227 69.5643 19.8402L75.4311 21.0973ZM76.8738 18.1206C77.5656 17.3108 78.4889 16.646 79.7272 16.156L77.5196 10.5769C75.4671 11.389 73.7034 12.5945 72.312 14.2232L76.8738 18.1206ZM79.7376 16.1519C80.9717 15.6582 82.4982 15.3722 84.3762 15.3722V9.37216C81.8982 9.37216 79.5895 9.74896 77.5092 10.581L79.7376 16.1519ZM84.3762 15.3722C85.655 15.3722 86.8539 15.5217 87.9813 15.8108L89.4715 9.99884C87.829 9.57769 86.1278 9.37216 84.3762 9.37216V15.3722ZM87.9872 15.8123C89.0721 16.0882 89.9745 16.4998 90.7297 17.0227L94.145 12.0895C92.7458 11.1209 91.1742 10.4317 89.4656 9.99732L87.9872 15.8123ZM90.7423 17.0314C91.4314 17.5033 91.9651 18.0976 92.3671 18.8485L97.6567 16.0166C96.804 14.4237 95.6213 13.1004 94.1323 12.0808L90.7423 17.0314ZM92.3731 18.8596C92.7149 19.4916 92.9529 20.3687 92.9529 21.6051H98.9529C98.9529 19.5982 98.5636 17.6935 97.6507 16.0054L92.3731 18.8596ZM92.9529 21.6051V40H98.9529V21.6051H92.9529ZM95.9529 37H88.7797V43H95.9529V37ZM91.7797 40V36.218H85.7797V40H91.7797ZM88.7797 33.218H88.5666V39.218H88.7797V33.218ZM85.8983 34.8468C85.6342 35.3607 85.2807 35.8183 84.8179 36.2288L88.7996 40.7172C89.8047 39.8256 90.623 38.7799 91.2349 37.5892L85.8983 34.8468ZM84.8384 36.2108C84.4203 36.5749 83.8759 36.8999 83.1562 37.1563L85.1701 42.8082C86.5101 42.3307 87.7294 41.6495 88.7791 40.7353L84.8384 36.2108ZM83.1852 37.1461C82.5349 37.3704 81.6872 37.5149 80.5943 37.5149V43.5149C82.2002 43.5149 83.7318 43.3043 85.1411 42.8184L83.1852 37.1461ZM82.7605 38.2947C84.2731 38.2947 85.7391 37.9947 87.0791 37.3061L84.3367 31.9695C83.9722 32.1568 83.4732 32.2947 82.7605 32.2947V38.2947ZM87.1082 37.2909C88.3852 36.617 89.4557 35.67 90.2404 34.445L85.1882 31.2084C85.0023 31.4986 84.7352 31.759 84.3076 31.9846L87.1082 37.2909ZM90.2404 34.445C91.0558 33.1722 91.4423 31.7451 91.4423 30.2521H85.4423C85.4423 30.6767 85.3435 30.966 85.1882 31.2084L90.2404 34.445ZM91.4423 30.2521V27.358H85.4423V30.2521H91.4423ZM86.8073 24.8426C86.8573 24.8102 86.869 24.8092 86.8208 24.8303C86.7748 24.8504 86.6929 24.8823 86.5663 24.9221L88.3652 30.6461C88.9158 30.473 89.5245 30.2326 90.0773 29.8733L86.8073 24.8426ZM86.6192 24.906C86.3088 24.9973 85.9325 25.0912 85.484 25.1851L86.7131 31.0578C87.2826 30.9386 87.8178 30.8076 88.3122 30.6622L86.6192 24.906ZM85.5498 25.1721C85.0629 25.2626 84.5762 25.3475 84.0895 25.4268L85.0536 31.3488C85.5849 31.2623 86.1162 31.1696 86.6473 31.0708L85.5498 25.1721ZM84.157 25.4166C83.6454 25.4879 83.1805 25.5535 82.7623 25.6132L83.6109 31.5529C84.0213 31.4943 84.4797 31.4297 84.9861 31.359L84.157 25.4166ZM82.7513 25.6149C81.6663 25.774 80.6301 26.0394 79.6789 26.4471L82.0424 31.962C82.4169 31.8015 82.9314 31.6526 83.622 31.5513L82.7513 25.6149ZM79.6789 26.4471C78.6259 26.8984 77.6581 27.577 76.9229 28.5493L81.7089 32.168C81.7128 32.1628 81.7287 32.1424 81.7729 32.1095C81.819 32.075 81.9028 32.0218 82.0424 31.962L79.6789 26.4471ZM76.9446 28.5209C76.0981 29.6133 75.7654 30.8867 75.7654 32.1342H81.7654C81.7654 32.0371 81.7779 32.0157 81.7685 32.046C81.7639 32.0609 81.7552 32.0843 81.7403 32.113C81.7254 32.1419 81.7073 32.1703 81.6871 32.1964L76.9446 28.5209ZM75.7654 32.1342C75.7654 33.9943 76.4981 35.7381 78.115 36.9186L81.6531 32.0729C81.6499 32.0705 81.6668 32.0826 81.6918 32.1123C81.7173 32.1427 81.7399 32.178 81.7563 32.2127C81.7724 32.2466 81.7755 32.265 81.7741 32.258C81.7724 32.2497 81.7654 32.211 81.7654 32.1342H75.7654ZM78.1585 36.9498C79.5362 37.9185 81.1399 38.2947 82.7605 38.2947V32.2947C82.061 32.2947 81.747 32.1383 81.6096 32.0417L78.1585 36.9498ZM101.821 40H98.8212V43H101.821V40ZM101.821 12.7273V9.72727H98.8212V12.7273H101.821ZM109.154 12.7273H112.154V9.72727H109.154V12.7273ZM109.154 17.4858H106.154V20.4858H109.154V17.4858ZM109.438 17.4858V20.4858H111.684L112.317 18.3312L109.438 17.4858ZM111.942 13.6506L113.722 16.0651L113.73 16.0593L113.738 16.0535L111.942 13.6506ZM117.215 12.4077L117.538 9.42505L117.538 9.42505L117.215 12.4077ZM118.369 12.603H121.369V10.2606L119.097 9.69255L118.369 12.603ZM118.369 19.3146L117.507 22.1881L121.369 23.3467V19.3146H118.369ZM112.191 19.6342L113.632 22.2652L113.644 22.2584L112.191 19.6342ZM110.131 21.6229L107.555 20.0846L107.547 20.0979L107.54 20.1113L110.131 21.6229ZM109.385 40V43H112.385V40H109.385ZM104.821 40V12.7273H98.8212V40H104.821ZM101.821 15.7273H109.154V9.72727H101.821V15.7273ZM106.154 12.7273V17.4858H112.154V12.7273H106.154ZM109.154 20.4858H109.438V14.4858H109.154V20.4858ZM112.317 18.3312C112.669 17.1307 113.182 16.4633 113.722 16.0651L110.162 11.236C108.358 12.566 107.202 14.4554 106.56 16.6404L112.317 18.3312ZM113.738 16.0535C114.368 15.5829 115.08 15.3366 115.99 15.3366V9.33665C113.846 9.33665 111.86 9.96634 110.146 11.2477L113.738 16.0535ZM115.99 15.3366C116.246 15.3366 116.545 15.3527 116.893 15.3903L117.538 9.42505C117.01 9.36794 116.492 9.33665 115.99 9.33665V15.3366ZM116.893 15.3903C117.231 15.4269 117.475 15.4718 117.642 15.5134L119.097 9.69255C118.601 9.56847 118.076 9.48318 117.538 9.42505L116.893 15.3903ZM115.369 12.603V19.3146H121.369V12.603H115.369ZM119.232 16.4412C118.653 16.2676 117.981 16.1478 117.289 16.0564L116.503 22.0047C117.066 22.079 117.376 22.1486 117.507 22.1881L119.232 16.4412ZM117.289 16.0564C116.558 15.9598 115.85 15.9062 115.173 15.9062V21.9062C115.539 21.9062 115.979 21.9355 116.503 22.0047L117.289 16.0564ZM115.173 15.9062C113.61 15.9062 112.105 16.2517 110.737 17.0101L113.644 22.2584C114.028 22.0461 114.512 21.9062 115.173 21.9062V15.9062ZM110.749 17.0033C109.413 17.7356 108.336 18.7773 107.555 20.0846L112.706 23.1611C112.944 22.7639 113.24 22.4799 113.632 22.2652L110.749 17.0033ZM107.54 20.1113C106.742 21.4787 106.385 22.9957 106.385 24.5703H112.385C112.385 23.9195 112.526 23.4716 112.722 23.1345L107.54 20.1113ZM106.385 24.5703V40H112.385V24.5703H106.385ZM109.385 37H101.821V43H109.385V37ZM124.624 39.6094L123.388 42.3429L123.398 42.3474L123.408 42.3518L124.624 39.6094ZM121.392 36.8928L118.874 38.5225L118.883 38.5369L118.892 38.5511L121.392 36.8928ZM121.055 28.5653L118.416 27.1394L118.416 27.1394L121.055 28.5653ZM123.328 26.0795L121.685 23.5692L121.685 23.5692L123.328 26.0795ZM126.595 24.6591L125.841 21.7553L125.834 21.7571L126.595 24.6591ZM130.466 23.9844L130.754 26.9705L130.765 26.9694L130.777 26.9681L130.466 23.9844ZM134.301 23.5227L134.735 26.4911L134.753 26.4885L134.771 26.4857L134.301 23.5227ZM136.414 22.848L134.734 20.3622L134.734 20.3622L136.414 22.848ZM136.005 18.8175L134.022 21.0681L134.031 21.0764L134.041 21.0845L136.005 18.8175ZM129.773 18.7997L131.55 21.2167L131.562 21.2082L131.573 21.1997L129.773 18.7997ZM128.175 21.0369L127.932 24.0271L130.375 24.2255L131.057 21.8711L128.175 21.0369ZM121.179 20.4688L118.246 19.8402L117.53 23.1822L120.936 23.4589L121.179 20.4688ZM123.275 16.1719L125.546 18.1316L125.551 18.1261L125.555 18.1206L123.275 16.1719ZM127.305 13.3665L128.409 16.1561L128.419 16.1519L127.305 13.3665ZM137.408 12.9048L136.663 15.8108L136.669 15.8123L137.408 12.9048ZM141.119 14.5561L139.411 17.0227L139.418 17.027L139.424 17.0314L141.119 14.5561ZM143.694 17.4325L141.049 18.8485L141.055 18.8596L143.694 17.4325ZM144.635 40V43H147.635V40H144.635ZM137.461 40H134.461V43H137.461V40ZM137.461 36.218H140.461V33.218H137.461V36.218ZM137.248 36.218V33.218H135.417L134.58 34.8468L137.248 36.218ZM135.49 38.473L137.461 40.7353L137.471 40.7263L137.481 40.7172L135.49 38.473ZM132.845 39.9822L133.823 42.8184L133.837 42.8134L133.852 42.8082L132.845 39.9822ZM134.39 34.6378L135.761 37.3061L135.775 37.2986L135.79 37.2909L134.39 34.6378ZM136.396 32.8267L133.87 31.2084L133.87 31.2084L136.396 32.8267ZM137.124 27.358H140.124V21.8299L135.489 24.8426L137.124 27.358ZM136.147 27.7841L136.994 30.6622L137.02 30.6544L137.047 30.6461L136.147 27.7841ZM134.78 28.1214L135.329 31.0708L135.362 31.0647L135.395 31.0578L134.78 28.1214ZM133.253 28.3878L133.668 31.359L133.702 31.3543L133.735 31.3488L133.253 28.3878ZM131.868 28.5831L131.444 25.6132L131.433 25.6149L131.868 28.5831ZM129.542 29.2045L130.724 31.962L130.724 31.962L129.542 29.2045ZM127.998 30.3587L130.369 32.1964L130.38 32.1822L130.39 32.168L127.998 30.3587ZM128.566 34.4957L126.797 36.9186L126.818 36.9344L126.84 36.9498L128.566 34.4957ZM129.276 37.5149C127.885 37.5149 126.759 37.2746 125.84 36.867L123.408 42.3518C125.211 43.1515 127.187 43.5149 129.276 43.5149V37.5149ZM125.86 36.8758C124.99 36.4826 124.36 35.9398 123.892 35.2344L118.892 38.5511C120.011 40.2368 121.535 41.505 123.388 42.3429L125.86 36.8758ZM123.911 35.263C123.514 34.65 123.221 33.7488 123.221 32.3828H117.221C117.221 34.6154 117.708 36.7207 118.874 38.5225L123.911 35.263ZM123.221 32.3828C123.221 31.2231 123.434 30.4729 123.695 29.9913L118.416 27.1394C117.563 28.7175 117.221 30.5122 117.221 32.3828H123.221ZM123.695 29.9913C124.019 29.3903 124.438 28.9382 124.97 28.5899L121.685 23.5692C120.3 24.4756 119.204 25.6807 118.416 27.1394L123.695 29.9913ZM124.97 28.5899C125.633 28.1566 126.418 27.8067 127.356 27.561L125.834 21.7571C124.333 22.1507 122.941 22.7477 121.685 23.5692L124.97 28.5899ZM127.349 27.5628C128.417 27.2854 129.551 27.0865 130.754 26.9705L130.177 20.9982C128.681 21.1426 127.234 21.3936 125.841 21.7554L127.349 27.5628ZM130.777 26.9681C132.383 26.8004 133.707 26.6416 134.735 26.4911L133.866 20.5543C132.954 20.6879 131.721 20.8369 130.154 21.0006L130.777 26.9681ZM134.771 26.4857C135.865 26.3123 137.1 26.0051 138.093 25.3338L134.734 20.3622C134.825 20.3008 134.824 20.3235 134.644 20.3808C134.475 20.4348 134.212 20.4993 133.831 20.5597L134.771 26.4857ZM138.093 25.3338C139.447 24.4189 140.071 22.9964 140.071 21.5341H134.071C134.071 21.4438 134.089 21.2237 134.223 20.9559C134.362 20.6773 134.561 20.4794 134.734 20.3622L138.093 25.3338ZM140.071 21.5341V21.4276H134.071V21.5341H140.071ZM140.071 21.4276C140.071 19.6205 139.467 17.8481 137.97 16.5504L134.041 21.0845C134.046 21.089 134.041 21.0856 134.033 21.0751C134.026 21.0647 134.024 21.0592 134.027 21.0653C134.032 21.0771 134.071 21.1792 134.071 21.4276H140.071ZM137.989 16.5668C136.563 15.3099 134.761 14.8942 133.022 14.8942V20.8942C133.436 20.8942 133.698 20.9442 133.849 20.9909C133.922 21.0135 133.966 21.0345 133.989 21.0472C134.012 21.0595 134.021 21.067 134.022 21.0681L137.989 16.5668ZM133.022 14.8942C131.238 14.8942 129.453 15.2897 127.973 16.3997L131.573 21.1997C131.703 21.1024 132.084 20.8942 133.022 20.8942V14.8942ZM127.996 16.3828C126.696 17.3382 125.75 18.6245 125.293 20.2028L131.057 21.8711C131.121 21.6502 131.24 21.4449 131.55 21.2167L127.996 16.3828ZM128.418 18.0468L121.422 17.4786L120.936 23.4589L127.932 24.0271L128.418 18.0468ZM124.113 21.0973C124.369 19.9004 124.854 18.9338 125.546 18.1316L121.003 14.2122C119.612 15.8247 118.7 17.7227 118.246 19.8402L124.113 21.0973ZM125.555 18.1206C126.247 17.3108 127.171 16.646 128.409 16.156L126.201 10.5769C124.149 11.389 122.385 12.5945 120.994 14.2232L125.555 18.1206ZM128.419 16.1519C129.653 15.6582 131.18 15.3722 133.058 15.3722V9.37216C130.58 9.37216 128.271 9.74896 126.191 10.581L128.419 16.1519ZM133.058 15.3722C134.337 15.3722 135.535 15.5217 136.663 15.8108L138.153 9.99884C136.511 9.57769 134.809 9.37216 133.058 9.37216V15.3722ZM136.669 15.8123C137.754 16.0882 138.656 16.4998 139.411 17.0227L142.827 12.0895C141.427 11.1209 139.856 10.4317 138.147 9.99732L136.669 15.8123ZM139.424 17.0314C140.113 17.5033 140.647 18.0976 141.049 18.8485L146.338 16.0166C145.486 14.4237 144.303 13.1004 142.814 12.0808L139.424 17.0314ZM141.055 18.8596C141.397 19.4916 141.635 20.3687 141.635 21.6051H147.635C147.635 19.5982 147.245 17.6935 146.332 16.0054L141.055 18.8596ZM141.635 21.6051V40H147.635V21.6051H141.635ZM144.635 37H137.461V43H144.635V37ZM140.461 40V36.218H134.461V40H140.461ZM137.461 33.218H137.248V39.218H137.461V33.218ZM134.58 34.8468C134.316 35.3607 133.962 35.8183 133.5 36.2288L137.481 40.7172C138.486 39.8256 139.305 38.7799 139.917 37.5892L134.58 34.8468ZM133.52 36.2108C133.102 36.5749 132.558 36.8999 131.838 37.1563L133.852 42.8082C135.192 42.3307 136.411 41.6495 137.461 40.7353L133.52 36.2108ZM131.867 37.1461C131.217 37.3704 130.369 37.5149 129.276 37.5149V43.5149C130.882 43.5149 132.413 43.3043 133.823 42.8184L131.867 37.1461ZM131.442 38.2947C132.955 38.2947 134.421 37.9947 135.761 37.3061L133.018 31.9695C132.654 32.1568 132.155 32.2947 131.442 32.2947V38.2947ZM135.79 37.2909C137.067 36.617 138.137 35.67 138.922 34.445L133.87 31.2084C133.684 31.4986 133.417 31.759 132.989 31.9846L135.79 37.2909ZM138.922 34.445C139.737 33.1722 140.124 31.7451 140.124 30.2521H134.124C134.124 30.6767 134.025 30.966 133.87 31.2084L138.922 34.445ZM140.124 30.2521V27.358H134.124V30.2521H140.124ZM135.489 24.8426C135.539 24.8102 135.551 24.8092 135.502 24.8303C135.456 24.8504 135.375 24.8823 135.248 24.9221L137.047 30.6461C137.597 30.473 138.206 30.2326 138.759 29.8733L135.489 24.8426ZM135.301 24.906C134.99 24.9973 134.614 25.0912 134.166 25.1851L135.395 31.0578C135.964 30.9386 136.499 30.8076 136.994 30.6622L135.301 24.906ZM134.231 25.1721C133.745 25.2626 133.258 25.3475 132.771 25.4268L133.735 31.3488C134.267 31.2623 134.798 31.1696 135.329 31.0708L134.231 25.1721ZM132.839 25.4166C132.327 25.4879 131.862 25.5535 131.444 25.6132L132.293 31.5529C132.703 31.4943 133.161 31.4297 133.668 31.359L132.839 25.4166ZM131.433 25.6149C130.348 25.774 129.312 26.0394 128.361 26.4471L130.724 31.962C131.099 31.8015 131.613 31.6526 132.304 31.5513L131.433 25.6149ZM128.361 26.4471C127.308 26.8984 126.34 27.577 125.605 28.5493L130.39 32.168C130.394 32.1628 130.41 32.1424 130.454 32.1095C130.501 32.075 130.584 32.0218 130.724 31.962L128.361 26.4471ZM125.626 28.5209C124.78 29.6133 124.447 30.8867 124.447 32.1342H130.447C130.447 32.0371 130.46 32.0157 130.45 32.046C130.446 32.0609 130.437 32.0843 130.422 32.113C130.407 32.1419 130.389 32.1703 130.369 32.1964L125.626 28.5209ZM124.447 32.1342C124.447 33.9943 125.18 35.7381 126.797 36.9186L130.335 32.0729C130.332 32.0705 130.348 32.0826 130.373 32.1123C130.399 32.1427 130.421 32.178 130.438 32.2127C130.454 32.2466 130.457 32.265 130.456 32.258C130.454 32.2497 130.447 32.211 130.447 32.1342H124.447ZM126.84 36.9498C128.218 37.9185 129.822 38.2947 131.442 38.2947V32.2947C130.743 32.2947 130.429 32.1383 130.291 32.0417L126.84 36.9498ZM155.616 38.7571L154.077 41.3323L154.086 41.3376L154.095 41.3429L155.616 38.7571ZM151 33.7855L148.32 35.1332L148.326 35.1451L151 33.7855ZM151.018 19.1193L148.35 17.7479L148.347 17.7537L151.018 19.1193ZM155.652 14.1655L157.18 16.7474L157.191 16.7406L155.652 14.1655ZM169.04 13.6683L170.346 10.9674L170.346 10.9674L169.04 13.6683ZM173.283 17.3082L170.787 18.9723L173.283 17.3082ZM175.006 22.8125V25.8125H178.161L178.002 22.661L175.006 22.8125ZM167.868 22.8125L164.9 23.2512L165.279 25.8125H167.868V22.8125ZM166.27 19.5277L164.163 21.6638L164.178 21.6785L164.194 21.693L166.27 19.5277ZM159.842 19.2259L161.605 21.6535L161.611 21.6492L159.842 19.2259ZM157.8 30.8026L155.004 31.8886L155.008 31.9003L155.013 31.9121L157.8 30.8026ZM159.842 33.5902L161.611 31.1668L161.611 31.1668L159.842 33.5902ZM165.24 34.0163L163.88 31.3422L163.871 31.3469L163.862 31.3517L165.24 34.0163ZM166.962 32.4716L164.473 30.7976L164.466 30.8075L166.962 32.4716ZM167.868 30.0036V27.0036H165.28L164.9 29.5639L167.868 30.0036ZM175.006 30.0036L178.001 30.1737L178.181 27.0036H175.006V30.0036ZM173.301 35.5078L170.776 33.8874L170.773 33.8923L173.301 35.5078ZM169.129 39.201L167.787 36.5177L167.787 36.5177L169.129 39.201ZM162.825 37.5327C160.461 37.5327 158.606 37.0349 157.138 36.1713L154.095 41.3429C156.652 42.8467 159.602 43.5327 162.825 43.5327V37.5327ZM157.155 36.1819C155.651 35.2825 154.501 34.0513 153.674 32.426L148.326 35.1451C149.654 37.7574 151.581 39.8406 154.077 41.3323L157.155 36.1819ZM153.68 32.4379C152.857 30.8003 152.402 28.8365 152.402 26.4702H146.402C146.402 29.62 147.012 32.533 148.32 35.1331L153.68 32.4379ZM152.402 26.4702C152.402 24.066 152.864 22.0992 153.689 20.4849L148.347 17.7537C147.017 20.3535 146.402 23.2872 146.402 26.4702H152.402ZM153.686 20.4907C154.523 18.8615 155.679 17.6356 157.18 16.7473L154.124 11.5836C151.625 13.0628 149.69 15.1394 148.35 17.7479L153.686 20.4907ZM157.191 16.7406C158.647 15.8704 160.473 15.3722 162.79 15.3722V9.37216C159.59 9.37216 156.658 10.0695 154.113 11.5903L157.191 16.7406ZM162.79 15.3722C164.805 15.3722 166.427 15.7372 167.734 16.3693L170.346 10.9674C168.078 9.8712 165.533 9.37216 162.79 9.37216V15.3722ZM167.734 16.3693C169.068 17.0141 170.06 17.8813 170.787 18.9723L175.78 15.6441C174.424 13.6102 172.586 12.0508 170.346 10.9674L167.734 16.3693ZM170.787 18.9723C171.493 20.0313 171.927 21.3288 172.01 22.964L178.002 22.661C177.871 20.0822 177.157 17.7102 175.78 15.6441L170.787 18.9723ZM175.006 19.8125H167.868V25.8125H175.006V19.8125ZM170.836 22.3738C170.552 20.457 169.761 18.7189 168.346 17.3624L164.194 21.693C164.507 21.9937 164.781 22.4455 164.9 23.2512L170.836 22.3738ZM168.376 17.3916C166.874 15.9103 164.954 15.267 162.914 15.267V21.267C163.644 21.267 163.961 21.4642 164.163 21.6638L168.376 17.3916ZM162.914 15.267C161.161 15.267 159.506 15.7578 158.074 16.8025L161.611 21.6492C161.931 21.4155 162.324 21.267 162.914 21.267V15.267ZM158.08 16.7982C156.668 17.823 155.684 19.243 155.035 20.8591L160.602 23.0969C160.923 22.2982 161.288 21.8834 161.605 21.6535L158.08 16.7982ZM155.035 20.8591C154.369 22.5158 154.09 24.3797 154.09 26.3636H160.09C160.09 24.9148 160.297 23.8549 160.602 23.0969L155.035 20.8591ZM154.09 26.3636C154.09 28.3595 154.36 30.2295 155.004 31.8886L160.597 29.7165C160.294 28.9372 160.09 27.8479 160.09 26.3636H154.09ZM155.013 31.9121C155.663 33.5454 156.654 34.9771 158.074 36.0136L161.611 31.1668C161.279 30.9249 160.908 30.4981 160.588 29.6931L155.013 31.9121ZM158.074 36.0136C159.506 37.0582 161.161 37.549 162.914 37.549V31.549C162.324 31.549 161.931 31.4006 161.611 31.1668L158.074 36.0136ZM162.914 37.549C164.2 37.549 165.458 37.2814 166.618 36.681L163.862 31.3517C163.649 31.4615 163.356 31.549 162.914 31.549V37.549ZM166.6 36.6905C167.774 36.0935 168.733 35.2235 169.459 34.1357L164.466 30.8075C164.292 31.0692 164.103 31.229 163.88 31.3422L166.6 36.6905ZM169.452 34.1456C170.202 33.0299 170.639 31.7686 170.836 30.4432L164.9 29.5639C164.813 30.1561 164.646 30.5402 164.473 30.7976L169.452 34.1456ZM167.868 33.0036H175.006V27.0036H167.868V33.0036ZM172.011 29.8334C171.918 31.4574 171.486 32.7814 170.776 33.8874L175.826 37.1282C177.152 35.0619 177.856 32.7163 178.001 30.1737L172.011 29.8334ZM170.773 33.8923C170.077 34.9813 169.109 35.8565 167.787 36.5177L170.47 41.8843C172.699 40.77 174.513 39.183 175.829 37.1234L170.773 33.8923ZM167.787 36.5177C166.51 37.156 164.888 37.5327 162.825 37.5327V43.5327C165.616 43.5327 168.196 43.0216 170.47 41.8843L167.787 36.5177ZM194.355 12.7273H197.355V9.72727H194.355V12.7273ZM194.355 18.4091V21.4091H197.355V18.4091H194.355ZM177.931 18.4091H174.931V21.4091H177.931V18.4091ZM177.931 12.7273V9.72727H174.931V12.7273H177.931ZM181.66 6.19318V3.19318H178.66V6.19318H181.66ZM189.224 6.19318H192.224V3.19318H189.224V6.19318ZM189.543 33.2528L186.909 34.6894L186.919 34.7066L186.928 34.7236L189.543 33.2528ZM190.431 34.0518L189.302 36.8312L189.317 36.8372L189.331 36.8431L190.431 34.0518ZM192.846 34.1939L193.339 37.1531L193.387 37.1451L193.434 37.1356L192.846 34.1939ZM193.662 34.0341L196.598 33.4137L195.991 30.5452L193.11 31.0855L193.662 34.0341ZM194.852 39.6626L195.747 42.5261L198.352 41.7121L197.787 39.0423L194.852 39.6626ZM193.254 40.071L192.598 37.1437L192.574 37.149L192.55 37.1548L193.254 40.071ZM190.751 40.3729L190.642 37.3748L190.634 37.3751L190.751 40.3729ZM185.956 39.6449L184.822 42.4219L184.83 42.4253L185.956 39.6449ZM182.778 37.0526L185.298 35.4239L185.298 35.4239L182.778 37.0526ZM181.66 32.6136L184.66 32.6335L184.66 32.6236V32.6136H181.66ZM191.355 12.7273V18.4091H197.355V12.7273H191.355ZM194.355 15.4091H177.931V21.4091H194.355V15.4091ZM180.931 18.4091V12.7273H174.931V18.4091H180.931ZM177.931 15.7273H194.355V9.72727H177.931V15.7273ZM181.66 9.19318H189.224V3.19318H181.66V9.19318ZM186.224 6.19318V31.6193H192.224V6.19318H186.224ZM186.224 31.6193C186.224 32.5609 186.357 33.6762 186.909 34.6894L192.177 31.8163C192.248 31.9472 192.256 32.0177 192.248 31.9755C192.24 31.9342 192.224 31.8223 192.224 31.6193H186.224ZM186.928 34.7236C187.452 35.6541 188.253 36.4051 189.302 36.8312L191.56 31.2724C191.684 31.3228 191.814 31.401 191.932 31.5068C192.048 31.611 192.119 31.713 192.158 31.7821L186.928 34.7236ZM189.331 36.8431C190.138 37.1608 190.973 37.2827 191.78 37.2827V31.2827C191.57 31.2827 191.505 31.2507 191.531 31.2606L189.331 36.8431ZM191.78 37.2827C192.303 37.2827 192.823 37.239 193.339 37.1531L192.353 31.2347C192.158 31.2671 191.968 31.2827 191.78 31.2827V37.2827ZM193.434 37.1356C193.786 37.0653 194.044 37.0148 194.215 36.9827L193.11 31.0855C192.902 31.1244 192.616 31.1804 192.257 31.2521L193.434 37.1356ZM190.727 34.6545L191.917 40.283L197.787 39.0423L196.598 33.4137L190.727 34.6545ZM193.957 36.7992C193.695 36.8812 193.255 36.9963 192.598 37.1437L193.91 42.9984C194.626 42.8379 195.252 42.6808 195.747 42.5261L193.957 36.7992ZM192.55 37.1548C192.118 37.2591 191.496 37.344 190.642 37.3748L190.859 43.3709C191.97 43.3307 193.017 43.2144 193.958 42.9873L192.55 37.1548ZM190.634 37.3751C189.14 37.4333 187.982 37.2285 187.083 36.8644L184.83 42.4253C186.678 43.174 188.715 43.4544 190.867 43.3706L190.634 37.3751ZM187.091 36.8679C186.266 36.5304 185.704 36.0517 185.298 35.4239L180.259 38.6813C181.368 40.3971 182.925 41.6466 184.822 42.4219L187.091 36.8679ZM185.298 35.4239C184.936 34.8639 184.651 33.9992 184.66 32.6335L178.66 32.5938C178.645 34.8029 179.106 36.8975 180.259 38.6813L185.298 35.4239ZM184.66 32.6136V6.19318H178.66V32.6136H184.66ZM204.174 38.8281L202.687 41.4338L202.696 41.439L202.705 41.4441L204.174 38.8281ZM199.522 33.9631L196.857 35.3405L196.86 35.3467L199.522 33.9631ZM199.522 19.1016L196.854 17.7302L196.854 17.7302L199.522 19.1016ZM204.121 14.1477L202.586 11.5698L202.579 11.5739L204.121 14.1477ZM216.141 13.2422L215.09 16.0521L215.103 16.0569L215.116 16.0616L216.141 13.2422ZM220.225 15.8168L218.115 17.9489L218.12 17.9543L218.125 17.9596L220.225 15.8168ZM222.959 20.1491L220.15 21.2004L220.152 21.2067L222.959 20.1491ZM223.936 28.299V31.299H226.936V28.299H223.936ZM200.907 28.299H197.907V31.299H200.907V28.299ZM200.907 23.6115V20.6115H197.907V23.6115H200.907ZM216.816 23.6115V26.6115H219.816V23.6115H216.816ZM216.106 20.7173L213.492 22.1899L213.492 22.1899L216.106 20.7173ZM214.135 18.7464L212.619 21.3351L212.64 21.3478L212.662 21.3602L214.135 18.7464ZM208.187 18.8175L209.72 21.3961L209.73 21.39L208.187 18.8175ZM206.127 20.9304L208.736 22.4112L208.74 22.4037L208.744 22.3962L206.127 20.9304ZM205.363 23.8601L202.364 23.8271L202.363 23.8436V23.8601H205.363ZM206.109 31.8146L203.432 33.1692L203.439 33.1819L203.445 33.1946L206.109 31.8146ZM213.851 34.5312L212.888 31.6901L212.888 31.6901L213.851 34.5312ZM215.644 33.4659L213.575 31.2935L213.575 31.2935L215.644 33.4659ZM216.78 31.7259L216.978 28.7324L214.763 28.5862L213.975 30.6619L216.78 31.7259ZM223.776 32.1875L226.711 32.8076L227.427 29.4219L223.974 29.194L223.776 32.1875ZM221.592 36.5909L219.337 34.6124L219.336 34.6139L221.592 36.5909ZM217.366 39.5028L218.48 42.2883L218.49 42.2843L217.366 39.5028ZM211.418 37.5327C209.02 37.5327 207.133 37.0491 205.642 36.2122L202.705 41.4441C205.263 42.8798 208.205 43.5327 211.418 43.5327V37.5327ZM205.661 36.2225C204.159 35.3659 203.012 34.1732 202.184 32.5795L196.86 35.3467C198.21 37.9433 200.164 39.9939 202.687 41.4338L205.661 36.2225ZM202.187 32.5856C201.36 30.9858 200.888 28.9859 200.888 26.4879H194.888C194.888 29.7428 195.506 32.7263 196.857 35.3405L202.187 32.5856ZM200.888 26.4879C200.888 24.075 201.355 22.0983 202.19 20.4729L196.854 17.7302C195.511 20.3425 194.888 23.29 194.888 26.4879H200.888ZM202.19 20.4729C203.032 18.8345 204.182 17.6074 205.662 16.7216L202.579 11.5739C200.105 13.0555 198.19 15.131 196.854 17.7302L202.19 20.4729ZM205.655 16.7256C207.111 15.8589 208.896 15.3722 211.116 15.3722V9.37216C207.986 9.37216 205.107 10.0692 202.586 11.5698L205.655 16.7256ZM211.116 15.3722C212.588 15.3722 213.904 15.6083 215.09 16.0521L217.192 10.4323C215.277 9.71608 213.243 9.37216 211.116 9.37216V15.3722ZM215.116 16.0616C216.279 16.4846 217.268 17.1113 218.115 17.9489L222.335 13.6846C220.862 12.2259 219.128 11.1362 217.166 10.4228L215.116 16.0616ZM218.125 17.9596C218.944 18.762 219.632 19.8172 220.15 21.2004L225.769 19.0979C224.985 17.001 223.849 15.1679 222.325 13.6739L218.125 17.9596ZM220.152 21.2067C220.648 22.5227 220.936 24.1739 220.936 26.2216H226.936C226.936 23.6291 226.573 21.2321 225.767 19.0916L220.152 21.2067ZM220.936 26.2216V28.299H226.936V26.2216H220.936ZM223.936 25.299H200.907V31.299H223.936V25.299ZM203.907 28.299V23.6115H197.907V28.299H203.907ZM200.907 26.6115H216.816V20.6115H200.907V26.6115ZM219.816 23.6115C219.816 22.0743 219.477 20.5902 218.719 19.2448L213.492 22.1899C213.681 22.5253 213.816 22.9707 213.816 23.6115H219.816ZM218.719 19.2448C217.977 17.9269 216.925 16.8752 215.607 16.1327L212.662 21.3602C213.025 21.5647 213.287 21.8269 213.492 22.1899L218.719 19.2448ZM215.651 16.1578C214.299 15.3657 212.795 15.0185 211.241 15.0185V21.0185C211.888 21.0185 212.314 21.1566 212.619 21.3351L215.651 16.1578ZM211.241 15.0185C209.61 15.0185 208.047 15.4028 206.643 16.245L209.73 21.39C210.102 21.1668 210.575 21.0185 211.241 21.0185V15.0185ZM206.653 16.2389C205.325 17.0285 204.264 18.1163 203.509 19.4646L208.744 22.3962C208.984 21.9689 209.296 21.6481 209.72 21.3961L206.653 16.2389ZM203.518 19.4496C202.753 20.7979 202.381 22.2785 202.364 23.8271L208.363 23.893C208.37 23.2874 208.507 22.8148 208.736 22.4112L203.518 19.4496ZM202.363 23.8601V28.3168H208.363V23.8601H202.363ZM202.363 28.3168C202.363 30.0324 202.68 31.6826 203.432 33.1692L208.786 30.4601C208.544 29.9817 208.363 29.3 208.363 28.3168H202.363ZM203.445 33.1946C204.208 34.6658 205.319 35.8554 206.758 36.6859L209.757 31.4888C209.35 31.2539 209.029 30.9284 208.773 30.4346L203.445 33.1946ZM206.758 36.6859C208.217 37.5272 209.849 37.8864 211.542 37.8864V31.8864C210.703 31.8864 210.145 31.7129 209.757 31.4888L206.758 36.6859ZM211.542 37.8864C212.665 37.8864 213.765 37.7279 214.814 37.3724L212.888 31.6901C212.539 31.8081 212.1 31.8864 211.542 31.8864V37.8864ZM214.814 37.3724C215.894 37.0063 216.877 36.4343 217.713 35.6383L213.575 31.2935C213.416 31.4445 213.204 31.5827 212.888 31.6901L214.814 37.3724ZM217.713 35.6383C218.558 34.8339 219.177 33.8665 219.585 32.7898L213.975 30.6619C213.863 30.9583 213.725 31.151 213.575 31.2935L217.713 35.6383ZM216.583 34.7193L223.579 35.181L223.974 29.194L216.978 28.7324L216.583 34.7193ZM220.841 31.5674C220.589 32.76 220.088 33.7562 219.337 34.6124L223.847 38.5694C225.298 36.9161 226.253 34.9768 226.711 32.8076L220.841 31.5674ZM219.336 34.6139C218.594 35.4608 217.592 36.1761 216.242 36.7214L218.49 42.2843C220.598 41.4328 222.413 40.2068 223.849 38.5679L219.336 34.6139ZM216.252 36.7174C214.958 37.2351 213.366 37.5327 211.418 37.5327V43.5327C213.968 43.5327 216.342 43.1436 218.48 42.2883L216.252 36.7174ZM228.872 40H225.872V43H228.872V40ZM228.872 12.7273V9.72727H225.872V12.7273H228.872ZM236.205 12.7273H239.205V9.72727H236.205V12.7273ZM236.205 17.4858H233.205V20.4858H236.205V17.4858ZM236.489 17.4858V20.4858H238.735L239.368 18.3312L236.489 17.4858ZM238.993 13.6506L240.773 16.0651L240.781 16.0593L240.789 16.0535L238.993 13.6506ZM244.266 12.4077L244.589 9.42505L244.589 9.42505L244.266 12.4077ZM245.42 12.603H248.42V10.2606L246.148 9.69255L245.42 12.603ZM245.42 19.3146L244.558 22.1881L248.42 23.3467V19.3146H245.42ZM239.241 19.6342L240.683 22.2652L240.695 22.2584L239.241 19.6342ZM237.182 21.6229L234.606 20.0846L234.598 20.0979L234.59 20.1113L237.182 21.6229ZM236.436 40V43H239.436V40H236.436ZM231.872 40V12.7273H225.872V40H231.872ZM228.872 15.7273H236.205V9.72727H228.872V15.7273ZM233.205 12.7273V17.4858H239.205V12.7273H233.205ZM236.205 20.4858H236.489V14.4858H236.205V20.4858ZM239.368 18.3312C239.72 17.1307 240.233 16.4633 240.773 16.0651L237.212 11.236C235.409 12.566 234.252 14.4554 233.611 16.6404L239.368 18.3312ZM240.789 16.0535C241.418 15.5829 242.131 15.3366 243.041 15.3366V9.33665C240.897 9.33665 238.911 9.96634 237.197 11.2477L240.789 16.0535ZM243.041 15.3366C243.296 15.3366 243.596 15.3527 243.944 15.3903L244.589 9.42505C244.06 9.36794 243.543 9.33665 243.041 9.33665V15.3366ZM243.944 15.3903C244.282 15.4269 244.526 15.4718 244.693 15.5134L246.148 9.69255C245.652 9.56847 245.126 9.48318 244.589 9.42505L243.944 15.3903ZM242.42 12.603V19.3146H248.42V12.603H242.42ZM246.282 16.4412C245.704 16.2676 245.031 16.1478 244.339 16.0564L243.554 22.0047C244.116 22.079 244.427 22.1486 244.558 22.1881L246.282 16.4412ZM244.339 16.0564C243.608 15.9598 242.901 15.9062 242.224 15.9062V21.9062C242.589 21.9062 243.03 21.9355 243.554 22.0047L244.339 16.0564ZM242.224 15.9062C240.661 15.9062 239.156 16.2517 237.787 17.0101L240.695 22.2584C241.078 22.0461 241.563 21.9062 242.224 21.9062V15.9062ZM237.8 17.0033C236.463 17.7356 235.387 18.7773 234.606 20.0846L239.757 23.1611C239.994 22.7639 240.291 22.4799 240.683 22.2652L237.8 17.0033ZM234.59 20.1113C233.793 21.4787 233.436 22.9957 233.436 24.5703H239.436C239.436 23.9195 239.576 23.4716 239.773 23.1345L234.59 20.1113ZM233.436 24.5703V40H239.436V24.5703H233.436ZM236.436 37H228.872V43H236.436V37ZM272.023 20.5043L272.207 23.4986L275.418 23.301L274.997 20.1114L272.023 20.5043ZM265.098 20.9304L262.156 21.5187L262.67 24.0855L265.282 23.9247L265.098 20.9304ZM264.335 19.3324L261.997 21.2134L262.009 21.2275L262.02 21.2415L264.335 19.3324ZM262.79 18.1783L261.51 20.8916L261.54 20.906L261.571 20.9197L262.79 18.1783ZM257.57 18.4801L259.119 21.0493L259.132 21.041L259.146 21.0325L257.57 18.4801ZM257.143 22.0845L255.183 24.355L255.183 24.355L257.143 22.0845ZM259.825 23.1676L259.194 26.1006L259.213 26.1047L259.232 26.1085L259.825 23.1676ZM264.761 24.1619L265.364 21.2232L265.353 21.221L264.761 24.1619ZM270.691 26.7898L268.651 28.9896L268.651 28.9896L270.691 26.7898ZM271.064 36.2536L268.699 34.4074L268.694 34.4139L268.689 34.4204L271.064 36.2536ZM266.767 39.4141L267.909 42.1881L267.918 42.1844L266.767 39.4141ZM251.87 38.2777L250.131 40.7226L250.139 40.728L250.147 40.7335L251.87 38.2777ZM248.124 32.0987L247.966 29.1028L244.696 29.2746L245.153 32.5173L248.124 32.0987ZM255.563 31.7081L258.502 31.1076L257.985 28.5768L255.406 28.7122L255.563 31.7081ZM257.197 34.2294L255.525 36.7203L255.537 36.7282L255.549 36.7361L257.197 34.2294ZM263.713 34.3182L265.316 36.8538L265.326 36.8477L263.713 34.3182ZM264.956 32.3118L267.956 32.3553L267.956 32.3077L267.956 32.2601L264.956 32.3118ZM264.086 30.625L262.224 32.9771L262.239 32.9892L262.254 33.001L264.086 30.625ZM261.458 29.5952L262.046 26.6534L262.044 26.653L261.458 29.5952ZM256.735 28.6541L256.147 31.5959L256.149 31.5963L256.735 28.6541ZM250.787 25.8842L248.646 27.9862L248.656 27.9959L250.787 25.8842ZM250.272 16.3317L247.88 14.521L247.875 14.5281L247.869 14.5353L250.272 16.3317ZM254.303 13.402L253.201 10.6113L253.195 10.6139L254.303 13.402ZM268.543 14.5561L266.764 16.9716L266.77 16.9767L268.543 14.5561ZM271.838 17.5099L264.914 17.9361L265.282 23.9247L272.207 23.4986L271.838 17.5099ZM268.04 20.342C267.823 19.2564 267.349 18.2717 266.649 17.4232L262.02 21.2415C262.102 21.34 262.137 21.4207 262.156 21.5187L268.04 20.342ZM266.672 17.4514C265.947 16.5508 265.029 15.8906 264.008 15.4368L261.571 20.9197C261.829 21.0341 261.941 21.1433 261.997 21.2134L266.672 17.4514ZM264.07 15.465C262.951 14.9374 261.74 14.7344 260.535 14.7344V20.7344C261.081 20.7344 261.374 20.8273 261.51 20.8916L264.07 15.465ZM260.535 14.7344C258.939 14.7344 257.373 15.0754 255.993 15.9277L259.146 21.0325C259.376 20.8906 259.787 20.7344 260.535 20.7344V14.7344ZM256.021 15.911C254.476 16.8421 253.362 18.3896 253.362 20.4332H259.362C259.362 20.4775 259.356 20.5518 259.331 20.645C259.305 20.7395 259.265 20.8303 259.216 20.9099C259.116 21.072 259.033 21.101 259.119 21.0493L256.021 15.911ZM253.362 20.4332C253.362 22.0112 254.045 23.3723 255.183 24.355L259.104 19.814C259.119 19.8268 259.199 19.9024 259.269 20.0513C259.342 20.2046 259.362 20.3463 259.362 20.4332H253.362ZM255.183 24.355C256.291 25.3121 257.799 25.8007 259.194 26.1006L260.455 20.2346C259.937 20.1232 259.571 20.0094 259.328 19.911C259.074 19.8083 259.038 19.7567 259.104 19.814L255.183 24.355ZM259.232 26.1085L264.168 27.1029L265.353 21.221L260.417 20.2267L259.232 26.1085ZM264.157 27.1006C266.532 27.5882 267.91 28.3019 268.651 28.9896L272.731 24.59C270.868 22.8629 268.293 21.8247 265.364 21.2233L264.157 27.1006ZM268.651 28.9896C269.272 29.5654 269.644 30.3195 269.644 31.5483H275.644C275.644 28.8472 274.714 26.4289 272.731 24.59L268.651 28.9896ZM269.644 31.5483C269.644 32.6984 269.322 33.6098 268.699 34.4074L273.429 38.0997C274.913 36.1985 275.644 33.973 275.644 31.5483H269.644ZM268.689 34.4204C268.014 35.2948 267.033 36.0547 265.616 36.6438L267.918 42.1844C270.147 41.2583 272.03 39.9111 273.439 38.0867L268.689 34.4204ZM265.625 36.64C264.243 37.2089 262.555 37.5327 260.499 37.5327V43.5327C263.179 43.5327 265.669 43.1107 267.909 42.1881L265.625 36.64ZM260.499 37.5327C257.278 37.5327 255.072 36.8595 253.593 35.8219L250.147 40.7335C252.953 42.7025 256.5 43.5327 260.499 43.5327V37.5327ZM253.609 35.8328C252.154 34.7984 251.347 33.4738 251.094 31.6801L245.153 32.5173C245.634 35.932 247.325 38.7267 250.131 40.7226L253.609 35.8328ZM248.281 35.0946L255.721 34.704L255.406 28.7122L247.966 29.1028L248.281 35.0946ZM252.624 32.3086C252.993 34.1138 253.951 35.664 255.525 36.7203L258.869 31.7385C258.714 31.6348 258.583 31.5041 258.502 31.1076L252.624 32.3086ZM255.549 36.7361C257.031 37.7108 258.758 38.0817 260.517 38.0817V32.0817C259.577 32.0817 259.091 31.8843 258.845 31.7227L255.549 36.7361ZM260.517 38.0817C262.197 38.0817 263.879 37.763 265.316 36.8538L262.11 31.7826C261.938 31.8913 261.489 32.0817 260.517 32.0817V38.0817ZM265.326 36.8477C266.811 35.9008 267.926 34.3804 267.956 32.3553L261.956 32.2683C261.957 32.2224 261.964 32.1528 261.988 32.0694C262.012 31.9853 262.047 31.909 262.086 31.8461C262.165 31.7195 262.215 31.7156 262.1 31.7887L265.326 36.8477ZM267.956 32.2601C267.927 30.6152 267.171 29.215 265.917 28.249L262.254 33.001C262.237 32.9876 262.145 32.9093 262.063 32.7504C261.979 32.5876 261.958 32.4411 261.956 32.3635L267.956 32.2601ZM265.948 28.2729C264.839 27.3945 263.423 26.9288 262.046 26.6534L260.87 32.5369C261.335 32.6299 261.673 32.7311 261.908 32.8234C262.148 32.9172 262.23 32.9818 262.224 32.9771L265.948 28.2729ZM262.044 26.653L257.321 25.712L256.149 31.5963L260.872 32.5373L262.044 26.653ZM257.323 25.7124C254.986 25.2449 253.646 24.507 252.918 23.7725L248.656 27.9959C250.532 29.8893 253.158 30.998 256.147 31.5959L257.323 25.7124ZM252.927 23.7823C252.249 23.091 251.852 22.2 251.852 20.8594H245.852C245.852 23.5907 246.745 26.0497 248.646 27.9862L252.927 23.7823ZM251.852 20.8594C251.852 19.6816 252.157 18.8201 252.675 18.1281L247.869 14.5353C246.493 16.3764 245.852 18.5334 245.852 20.8594H251.852ZM252.664 18.1424C253.239 17.3826 254.103 16.7092 255.41 16.19L253.195 10.6139C251.045 11.4679 249.223 12.7476 247.88 14.521L252.664 18.1424ZM255.404 16.1926C256.718 15.6739 258.366 15.3722 260.411 15.3722V9.37216C257.791 9.37216 255.367 9.75699 253.201 10.6114L255.404 16.1926ZM260.411 15.3722C263.466 15.3722 265.473 16.0212 266.764 16.9716L270.322 12.1406C267.659 10.1791 264.244 9.37216 260.411 9.37216V15.3722ZM266.77 16.9767C268.079 17.9345 268.821 19.1745 269.049 20.8971L274.997 20.1114C274.562 16.8151 272.984 14.0896 270.315 12.1355L266.77 16.9767Z" fill="#FFE81F" mask="url(#path-1-outside-1_3_6)"/>
</svg>
