<svg width="103" height="46" viewBox="0 0 103 46" fill="none" xmlns="http://www.w3.org/2000/svg">
<mask id="path-1-outside-1_12_141" maskUnits="userSpaceOnUse" x="0" y="0" width="103" height="46" fill="black">
<rect fill="white" width="103" height="46"/>
<path d="M3.16051 40V3.63636H27.2372V9.97514H10.8487V18.6399H25.6392V24.9787H10.8487V40H3.16051ZM34.1353 40H25.8967L38.4499 3.63636H48.3576L60.8931 40H52.6545L43.5458 11.946H43.2617L34.1353 40ZM33.6204 25.7067H53.0806V31.7081H33.6204V25.7067ZM77.286 27.358H83.8201L87.1049 31.5838L90.3365 35.348L96.4267 42.983H89.2534L85.063 37.8338L82.9146 34.7798L77.286 27.358ZM96.9771 21.8182C96.9771 25.7836 96.2254 29.1572 94.7221 31.9389C93.2306 34.7206 91.1947 36.8454 88.6142 38.3132C86.0455 39.7692 83.1573 40.4972 79.9494 40.4972C76.7179 40.4972 73.8178 39.7633 71.2491 38.2955C68.6805 36.8277 66.6504 34.7029 65.1589 31.9212C63.6674 29.1394 62.9217 25.7718 62.9217 21.8182C62.9217 17.8527 63.6674 14.4792 65.1589 11.6974C66.6504 8.91572 68.6805 6.79687 71.2491 5.34091C73.8178 3.87311 76.7179 3.1392 79.9494 3.1392C83.1573 3.1392 86.0455 3.87311 88.6142 5.34091C91.1947 6.79687 93.2306 8.91572 94.7221 11.6974C96.2254 14.4792 96.9771 17.8527 96.9771 21.8182ZM89.1824 21.8182C89.1824 19.2495 88.7976 17.0833 88.0282 15.3196C87.2707 13.5559 86.1994 12.2183 84.8145 11.3068C83.4295 10.3954 81.8078 9.93963 79.9494 9.93963C78.091 9.93963 76.4693 10.3954 75.0843 11.3068C73.6994 12.2183 72.6222 13.5559 71.8528 15.3196C71.0952 17.0833 70.7164 19.2495 70.7164 21.8182C70.7164 24.3868 71.0952 26.553 71.8528 28.3168C72.6222 30.0805 73.6994 31.4181 75.0843 32.3295C76.4693 33.241 78.091 33.6967 79.9494 33.6967C81.8078 33.6967 83.4295 33.241 84.8145 32.3295C86.1994 31.4181 87.2707 30.0805 88.0282 28.3168C88.7976 26.553 89.1824 24.3868 89.1824 21.8182Z"/>
</mask>
<path d="M3.16051 40H0.160511V43H3.16051V40ZM3.16051 3.63636V0.636362H0.160511V3.63636H3.16051ZM27.2372 3.63636H30.2372V0.636362H27.2372V3.63636ZM27.2372 9.97514V12.9751H30.2372V9.97514H27.2372ZM10.8487 9.97514V6.97514H7.84872V9.97514H10.8487ZM10.8487 18.6399H7.84872V21.6399H10.8487V18.6399ZM25.6392 18.6399H28.6392V15.6399H25.6392V18.6399ZM25.6392 24.9787V27.9787H28.6392V24.9787H25.6392ZM10.8487 24.9787V21.9787H7.84872V24.9787H10.8487ZM10.8487 40V43H13.8487V40H10.8487ZM6.16051 40V3.63636H0.160511V40H6.16051ZM3.16051 6.63636H27.2372V0.636362H3.16051V6.63636ZM24.2372 3.63636V9.97514H30.2372V3.63636H24.2372ZM27.2372 6.97514H10.8487V12.9751H27.2372V6.97514ZM7.84872 9.97514V18.6399H13.8487V9.97514H7.84872ZM10.8487 21.6399H25.6392V15.6399H10.8487V21.6399ZM22.6392 18.6399V24.9787H28.6392V18.6399H22.6392ZM25.6392 21.9787H10.8487V27.9787H25.6392V21.9787ZM7.84872 24.9787V40H13.8487V24.9787H7.84872ZM10.8487 37H3.16051V43H10.8487V37ZM34.1353 40V43H36.3141L36.9881 40.9281L34.1353 40ZM25.8967 40L23.0609 39.021L21.6873 43H25.8967V40ZM38.4499 3.63636V0.636362H36.3118L35.6142 2.65741L38.4499 3.63636ZM48.3576 3.63636L51.1938 2.65865L50.4967 0.636362H48.3576V3.63636ZM60.8931 40V43H65.1005L63.7293 39.0223L60.8931 40ZM52.6545 40L49.8011 40.9264L50.4744 43H52.6545V40ZM43.5458 11.946L46.3992 11.0196L45.7259 8.94602H43.5458V11.946ZM43.2617 11.946V8.94602H41.0829L40.4089 11.0179L43.2617 11.946ZM33.6204 25.7067V22.7067H30.6204V25.7067H33.6204ZM53.0806 25.7067H56.0806V22.7067H53.0806V25.7067ZM53.0806 31.7081V34.7081H56.0806V31.7081H53.0806ZM33.6204 31.7081H30.6204V34.7081H33.6204V31.7081ZM34.1353 37H25.8967V43H34.1353V37ZM28.7324 40.979L41.2857 4.61532L35.6142 2.65741L23.0609 39.021L28.7324 40.979ZM38.4499 6.63636H48.3576V0.636362H38.4499V6.63636ZM45.5214 4.61408L58.0569 40.9777L63.7293 39.0223L51.1938 2.65865L45.5214 4.61408ZM60.8931 37H52.6545V43H60.8931V37ZM55.5078 39.0736L46.3992 11.0196L40.6924 12.8725L49.8011 40.9264L55.5078 39.0736ZM43.5458 8.94602H43.2617V14.946H43.5458V8.94602ZM40.4089 11.0179L31.2825 39.0719L36.9881 40.9281L46.1146 12.8741L40.4089 11.0179ZM33.6204 28.7067H53.0806V22.7067H33.6204V28.7067ZM50.0806 25.7067V31.7081H56.0806V25.7067H50.0806ZM53.0806 28.7081H33.6204V34.7081H53.0806V28.7081ZM36.6204 31.7081V25.7067H30.6204V31.7081H36.6204ZM77.286 27.358V24.358H71.2458L74.8957 29.1707L77.286 27.358ZM83.8201 27.358L86.1887 25.5168L85.2879 24.358H83.8201V27.358ZM87.1049 31.5838L84.7363 33.4249L84.7811 33.4826L84.8287 33.5379L87.1049 31.5838ZM90.3365 35.348L92.6817 33.4773L92.648 33.4349L92.6127 33.3939L90.3365 35.348ZM96.4267 42.983V45.983H102.657L98.7719 41.1122L96.4267 42.983ZM89.2534 42.983L86.9265 44.8765L87.8269 45.983H89.2534V42.983ZM85.063 37.8338L82.6094 39.5599L82.6698 39.6459L82.7362 39.7274L85.063 37.8338ZM82.9146 34.7798L85.3683 33.0537L85.3374 33.0098L85.305 32.967L82.9146 34.7798ZM94.7221 31.9389L92.0829 30.5126L92.0782 30.5213L94.7221 31.9389ZM88.6142 38.3132L90.0935 40.9231L90.0974 40.9209L88.6142 38.3132ZM71.2491 38.2955L72.7375 35.6907L71.2491 38.2955ZM65.1589 31.9212L62.515 33.3388L65.1589 31.9212ZM65.1589 11.6974L67.8028 13.115V13.115L65.1589 11.6974ZM71.2491 5.34091L72.7285 7.95082L72.7375 7.94564L71.2491 5.34091ZM88.6142 5.34091L87.1257 7.94564L87.1329 7.9497L87.14 7.95371L88.6142 5.34091ZM94.7221 11.6974L92.0782 13.1151L92.0829 13.1238L94.7221 11.6974ZM88.0282 15.3196L85.2718 16.5036L85.2751 16.5114L85.2785 16.5192L88.0282 15.3196ZM84.8145 11.3068L83.1652 13.8128L84.8145 11.3068ZM75.0843 11.3068L76.7336 13.8128L75.0843 11.3068ZM71.8528 15.3196L69.1031 14.12L69.0997 14.1278L69.0963 14.1356L71.8528 15.3196ZM71.8528 28.3168L69.0963 29.5008L69.0997 29.5085L69.1031 29.5163L71.8528 28.3168ZM75.0843 32.3295L76.7336 29.8236V29.8236L75.0843 32.3295ZM84.8145 32.3295L83.1652 29.8236V29.8236L84.8145 32.3295ZM88.0282 28.3168L85.2785 27.1172L85.2751 27.125L85.2718 27.1328L88.0282 28.3168ZM77.286 30.358H83.8201V24.358H77.286V30.358ZM81.4515 29.1991L84.7363 33.4249L89.4735 29.7427L86.1887 25.5168L81.4515 29.1991ZM84.8287 33.5379L88.0602 37.3022L92.6127 33.3939L89.3812 29.6297L84.8287 33.5379ZM87.9912 37.2188L94.0814 44.8537L98.7719 41.1122L92.6817 33.4773L87.9912 37.2188ZM96.4267 39.983H89.2534V45.983H96.4267V39.983ZM91.5802 41.0894L87.3899 35.9402L82.7362 39.7274L86.9265 44.8765L91.5802 41.0894ZM87.5167 36.1077L85.3683 33.0537L80.4609 36.506L82.6094 39.5599L87.5167 36.1077ZM85.305 32.967L79.6764 25.5452L74.8957 29.1707L80.5242 36.5926L85.305 32.967ZM93.9771 21.8182C93.9771 25.4098 93.2967 28.2666 92.0829 30.5126L97.3614 33.3652C99.1542 30.0478 99.9771 26.1574 99.9771 21.8182H93.9771ZM92.0782 30.5213C90.8361 32.8378 89.1887 34.5351 87.1309 35.7055L90.0974 40.9209C93.2007 39.1557 95.6252 36.6034 97.3661 33.3565L92.0782 30.5213ZM87.1348 35.7033C85.0558 36.8818 82.6849 37.4972 79.9494 37.4972V43.4972C83.6297 43.4972 87.0352 42.6566 90.0935 40.9231L87.1348 35.7033ZM79.9494 37.4972C77.1904 37.4972 74.8117 36.876 72.7375 35.6907L69.7607 40.9002C72.8238 42.6505 76.2453 43.4972 79.9494 43.4972V37.4972ZM72.7375 35.6907C70.6909 34.5212 69.0468 32.8236 67.8028 30.5036L62.515 33.3388C64.254 36.5822 66.67 39.1341 69.7607 40.9002L72.7375 35.6907ZM67.8028 30.5036C66.5969 28.2544 65.9217 25.3997 65.9217 21.8182H59.9217C59.9217 26.1438 60.738 30.0245 62.515 33.3388L67.8028 30.5036ZM65.9217 21.8182C65.9217 18.2231 66.5975 15.363 67.8028 13.115L62.515 10.2798C60.7373 13.5953 59.9217 17.4824 59.9217 21.8182H65.9217ZM67.8028 13.115C69.0458 10.7968 70.6872 9.10784 72.7285 7.9508L69.7698 2.73101C66.6737 4.4859 64.255 7.03465 62.515 10.2798L67.8028 13.115ZM72.7375 7.94564C74.8117 6.76038 77.1904 6.1392 79.9494 6.1392V0.139203C76.2453 0.139203 72.8238 0.985826 69.7607 2.73618L72.7375 7.94564ZM79.9494 6.1392C82.6805 6.1392 85.0482 6.75847 87.1257 7.94564L90.1026 2.73618C87.0428 0.987743 83.634 0.139203 79.9494 0.139203V6.1392ZM87.14 7.95371C89.1924 9.11173 90.8371 10.8003 92.0782 13.115L97.3661 10.2798C95.6242 7.0311 93.1969 4.48202 90.0884 2.7281L87.14 7.95371ZM92.0829 13.1238C93.2967 15.3697 93.9771 18.2265 93.9771 21.8182H99.9771C99.9771 17.479 99.1542 13.5886 97.3614 10.2711L92.0829 13.1238ZM92.1824 21.8182C92.1824 18.9677 91.7578 16.3661 90.778 14.12L85.2785 16.5192C85.8375 17.8005 86.1824 19.5314 86.1824 21.8182H92.1824ZM90.7847 14.1356C89.8329 11.9196 88.4129 10.0836 86.4637 8.80083L83.1652 13.8128C83.9859 14.3529 84.7085 15.1921 85.2718 16.5036L90.7847 14.1356ZM86.4637 8.80083C84.5312 7.52903 82.3207 6.93963 79.9494 6.93963V12.9396C81.2949 12.9396 82.3278 13.2617 83.1652 13.8128L86.4637 8.80083ZM79.9494 6.93963C77.5781 6.93963 75.3676 7.52903 73.4351 8.80083L76.7336 13.8128C77.571 13.2617 78.6038 12.9396 79.9494 12.9396V6.93963ZM73.4351 8.80083C71.4904 10.0807 70.0668 11.9109 69.1031 14.12L74.6025 16.5192C75.1777 15.2008 75.9084 14.3559 76.7336 13.8128L73.4351 8.80083ZM69.0963 14.1356C68.1336 16.3769 67.7164 18.9726 67.7164 21.8182H73.7164C73.7164 19.5264 74.0568 17.7898 74.6093 16.5036L69.0963 14.1356ZM67.7164 21.8182C67.7164 24.6637 68.1336 27.2595 69.0963 29.5008L74.6093 27.1328C74.0568 25.8466 73.7164 24.1099 73.7164 21.8182H67.7164ZM69.1031 29.5163C70.0668 31.7254 71.4904 33.5557 73.4351 34.8355L76.7336 29.8236C75.9084 29.2805 75.1777 28.4356 74.6025 27.1172L69.1031 29.5163ZM73.4351 34.8355C75.3676 36.1073 77.5781 36.6967 79.9494 36.6967V30.6967C78.6038 30.6967 77.571 30.3747 76.7336 29.8236L73.4351 34.8355ZM79.9494 36.6967C82.3207 36.6967 84.5312 36.1073 86.4637 34.8355L83.1652 29.8236C82.3278 30.3747 81.2949 30.6967 79.9494 30.6967V36.6967ZM86.4637 34.8355C88.4129 33.5527 89.8329 31.7168 90.7847 29.5008L85.2718 27.1328C84.7085 28.4442 83.9859 29.2834 83.1652 29.8236L86.4637 34.8355ZM90.778 29.5163C91.7578 27.2702 92.1824 24.6687 92.1824 21.8182H86.1824C86.1824 24.105 85.8375 25.8358 85.2785 27.1172L90.778 29.5163Z" fill="#FFE81F" mask="url(#path-1-outside-1_12_141)"/>
</svg>
