<svg width="509" height="46" viewBox="0 0 509 46" fill="none" xmlns="http://www.w3.org/2000/svg">
<mask id="path-1-outside-1_3_6" maskUnits="userSpaceOnUse" x="0" y="0" width="509" height="46" fill="black">
<rect fill="white" width="509" height="46"/>
<path d="M36.245 18.3672H28.468C28.326 17.361 28.036 16.4673 27.598 15.6861C27.16 14.893 26.5978 14.2183 25.9112 13.6619C25.2247 13.1056 24.4316 12.6794 23.532 12.3835C22.6442 12.0876 21.6795 11.9396 20.6378 11.9396C18.7557 11.9396 17.1162 12.4072 15.7195 13.3423C14.3227 14.2656 13.2396 15.6151 12.4702 17.3906C11.7008 19.1544 11.3161 21.2969 11.3161 23.8182C11.3161 26.4105 11.7008 28.5885 12.4702 30.3523C13.2514 32.116 14.3404 33.4477 15.7372 34.3473C17.134 35.2469 18.7498 35.6967 20.5845 35.6967C21.6143 35.6967 22.5672 35.5606 23.4432 35.2884C24.331 35.0161 25.1181 34.6196 25.8047 34.0987C26.4912 33.5661 27.0594 32.9209 27.5092 32.1634C27.9709 31.4058 28.2905 30.5417 28.468 29.571L36.245 29.6065C36.0438 31.2756 35.5407 32.8854 34.7358 34.4361C33.9427 35.9749 32.8714 37.3539 31.522 38.5732C30.1844 39.7805 28.5864 40.7393 26.728 41.4496C24.8814 42.148 22.7921 42.4972 20.4602 42.4972C17.2169 42.4972 14.3168 41.7633 11.7599 40.2955C9.21496 38.8277 7.20265 36.7029 5.72301 33.9212C4.25521 31.1394 3.52131 27.7718 3.52131 23.8182C3.52131 19.8527 4.26705 16.4792 5.75852 13.6974C7.25 10.9157 9.27415 8.79687 11.831 7.34091C14.3878 5.87311 17.2642 5.1392 20.4602 5.1392C22.5672 5.1392 24.5204 5.43513 26.3196 6.02699C28.1307 6.61884 29.7346 7.48295 31.1314 8.61932C32.5282 9.74384 33.6645 11.1229 34.5405 12.7564C35.4283 14.3899 35.9964 16.2602 36.245 18.3672ZM49.18 26.233V42H41.6161V5.63636H48.967V19.5391H49.2866C49.9021 17.9292 50.8964 16.6686 52.2695 15.7571C53.6426 14.8338 55.3649 14.3722 57.4364 14.3722C59.3304 14.3722 60.9817 14.7865 62.3903 15.6151C63.8107 16.4318 64.9116 17.6096 65.6928 19.1484C66.4859 20.6754 66.8765 22.5043 66.8647 24.6349V42H59.3008V25.9844C59.3126 24.3035 58.8865 22.9955 58.0224 22.0604C57.1701 21.1252 55.9746 20.6577 54.4357 20.6577C53.4059 20.6577 52.4944 20.8767 51.7013 21.3146C50.9201 21.7526 50.3046 22.3918 49.8548 23.2322C49.4168 24.0608 49.1919 25.0611 49.18 26.233ZM80.5943 42.5149C78.8542 42.5149 77.3036 42.2131 75.9423 41.6094C74.581 40.9938 73.5038 40.0883 72.7108 38.8928C71.9295 37.6854 71.5389 36.1821 71.5389 34.3828C71.5389 32.8677 71.8171 31.5952 72.3734 30.5653C72.9297 29.5355 73.6873 28.7069 74.6461 28.0795C75.6049 27.4522 76.694 26.9787 77.9132 26.6591C79.1442 26.3395 80.4345 26.1146 81.7839 25.9844C83.3701 25.8187 84.6485 25.6648 85.6191 25.5227C86.5898 25.3688 87.2941 25.1439 87.7321 24.848C88.17 24.5521 88.389 24.1141 88.389 23.5341V23.4276C88.389 22.303 88.0339 21.433 87.3237 20.8175C86.6253 20.2019 85.631 19.8942 84.3407 19.8942C82.9795 19.8942 81.8964 20.196 81.0914 20.7997C80.2865 21.3916 79.7538 22.1373 79.4934 23.0369L72.4977 22.4688C72.8528 20.8116 73.5512 19.3793 74.5929 18.1719C75.6345 16.9527 76.978 16.0175 78.6234 15.3665C80.2806 14.7036 82.1982 14.3722 84.3762 14.3722C85.8914 14.3722 87.3414 14.5497 88.7264 14.9048C90.1232 15.2599 91.3601 15.8104 92.4373 16.5561C93.5263 17.3018 94.3845 18.2607 95.0119 19.4325C95.6393 20.5926 95.9529 21.9834 95.9529 23.6051V42H88.7797V38.218H88.5666C88.1286 39.0703 87.5427 39.822 86.8088 40.473C86.0749 41.1122 85.193 41.6153 84.1632 41.9822C83.1333 42.3374 81.9437 42.5149 80.5943 42.5149ZM82.7605 37.2947C83.8732 37.2947 84.8556 37.0758 85.7079 36.6378C86.5602 36.188 87.229 35.5843 87.7143 34.8267C88.1996 34.0691 88.4423 33.2109 88.4423 32.2521V29.358C88.2056 29.5118 87.88 29.6539 87.4657 29.7841C87.0633 29.9025 86.6075 30.0149 86.0985 30.1214C85.5895 30.2161 85.0806 30.3049 84.5716 30.3878C84.0626 30.4588 83.6009 30.5239 83.1866 30.5831C82.2988 30.7133 81.5235 30.9205 80.8606 31.2045C80.1977 31.4886 79.6828 31.8733 79.3159 32.3587C78.9489 32.8321 78.7654 33.424 78.7654 34.1342C78.7654 35.1641 79.1383 35.9512 79.8841 36.4957C80.6416 37.0284 81.6004 37.2947 82.7605 37.2947ZM101.821 42V14.7273H109.154V19.4858H109.438C109.936 17.7931 110.77 16.5147 111.942 15.6506C113.114 14.7746 114.463 14.3366 115.99 14.3366C116.369 14.3366 116.777 14.3603 117.215 14.4077C117.653 14.455 118.038 14.5201 118.369 14.603V21.3146C118.014 21.2081 117.523 21.1134 116.896 21.0305C116.268 20.9477 115.694 20.9062 115.173 20.9062C114.061 20.9062 113.066 21.1489 112.191 21.6342C111.326 22.1077 110.64 22.7706 110.131 23.6229C109.634 24.4751 109.385 25.4576 109.385 26.5703V42H101.821ZM129.276 42.5149C127.536 42.5149 125.985 42.2131 124.624 41.6094C123.263 40.9938 122.185 40.0883 121.392 38.8928C120.611 37.6854 120.221 36.1821 120.221 34.3828C120.221 32.8677 120.499 31.5952 121.055 30.5653C121.611 29.5355 122.369 28.7069 123.328 28.0795C124.287 27.4522 125.376 26.9787 126.595 26.6591C127.826 26.3395 129.116 26.1146 130.466 25.9844C132.052 25.8187 133.33 25.6648 134.301 25.5227C135.271 25.3688 135.976 25.1439 136.414 24.848C136.852 24.5521 137.071 24.1141 137.071 23.5341V23.4276C137.071 22.303 136.716 21.433 136.005 20.8175C135.307 20.2019 134.313 19.8942 133.022 19.8942C131.661 19.8942 130.578 20.196 129.773 20.7997C128.968 21.3916 128.435 22.1373 128.175 23.0369L121.179 22.4688C121.534 20.8116 122.233 19.3793 123.275 18.1719C124.316 16.9527 125.66 16.0175 127.305 15.3665C128.962 14.7036 130.88 14.3722 133.058 14.3722C134.573 14.3722 136.023 14.5497 137.408 14.9048C138.805 15.2599 140.042 15.8104 141.119 16.5561C142.208 17.3018 143.066 18.2607 143.694 19.4325C144.321 20.5926 144.635 21.9834 144.635 23.6051V42H137.461V38.218H137.248C136.81 39.0703 136.224 39.822 135.49 40.473C134.757 41.1122 133.875 41.6153 132.845 41.9822C131.815 42.3374 130.625 42.5149 129.276 42.5149ZM131.442 37.2947C132.555 37.2947 133.537 37.0758 134.39 36.6378C135.242 36.188 135.911 35.5843 136.396 34.8267C136.881 34.0691 137.124 33.2109 137.124 32.2521V29.358C136.887 29.5118 136.562 29.6539 136.147 29.7841C135.745 29.9025 135.289 30.0149 134.78 30.1214C134.271 30.2161 133.762 30.3049 133.253 30.3878C132.744 30.4588 132.283 30.5239 131.868 30.5831C130.98 30.7133 130.205 30.9205 129.542 31.2045C128.879 31.4886 128.364 31.8733 127.998 32.3587C127.631 32.8321 127.447 33.424 127.447 34.1342C127.447 35.1641 127.82 35.9512 128.566 36.4957C129.323 37.0284 130.282 37.2947 131.442 37.2947ZM162.825 42.5327C160.032 42.5327 157.629 41.9408 155.616 40.7571C153.616 39.5616 152.077 37.9044 151 35.7855C149.935 33.6667 149.402 31.2282 149.402 28.4702C149.402 25.6766 149.941 23.2263 151.018 21.1193C152.107 19.0005 153.652 17.3492 155.652 16.1655C157.652 14.9699 160.032 14.3722 162.79 14.3722C165.169 14.3722 167.252 14.8042 169.04 15.6683C170.827 16.5324 172.242 17.7457 173.283 19.3082C174.325 20.8707 174.899 22.7055 175.006 24.8125H167.868C167.667 23.4512 167.134 22.3563 166.27 21.5277C165.418 20.6873 164.299 20.267 162.914 20.267C161.742 20.267 160.718 20.5866 159.842 21.2259C158.978 21.8532 158.304 22.7706 157.818 23.978C157.333 25.1854 157.09 26.6473 157.09 28.3636C157.09 30.1037 157.327 31.5833 157.8 32.8026C158.286 34.0218 158.966 34.951 159.842 35.5902C160.718 36.2294 161.742 36.549 162.914 36.549C163.778 36.549 164.554 36.3714 165.24 36.0163C165.938 35.6612 166.513 35.1463 166.962 34.4716C167.424 33.785 167.726 32.9624 167.868 32.0036H175.006C174.887 34.0869 174.319 35.9216 173.301 37.5078C172.295 39.0821 170.904 40.3132 169.129 41.201C167.353 42.0888 165.252 42.5327 162.825 42.5327ZM194.355 14.7273V20.4091H177.931V14.7273H194.355ZM181.66 8.19318H189.224V33.6193C189.224 34.3177 189.33 34.8622 189.543 35.2528C189.756 35.6316 190.052 35.898 190.431 36.0518C190.822 36.2057 191.271 36.2827 191.78 36.2827C192.135 36.2827 192.491 36.2531 192.846 36.1939C193.201 36.1229 193.473 36.0696 193.662 36.0341L194.852 41.6626C194.473 41.781 193.941 41.9171 193.254 42.071C192.568 42.2367 191.733 42.3374 190.751 42.3729C188.928 42.4439 187.33 42.2012 185.956 41.6449C184.595 41.0885 183.536 40.2244 182.778 39.0526C182.021 37.8807 181.648 36.401 181.66 34.6136V8.19318ZM211.418 42.5327C208.613 42.5327 206.198 41.9645 204.174 40.8281C202.162 39.6799 200.611 38.0582 199.522 35.9631C198.433 33.8561 197.888 31.3643 197.888 28.4879C197.888 25.6825 198.433 23.2204 199.522 21.1016C200.611 18.9827 202.144 17.3314 204.121 16.1477C206.109 14.964 208.441 14.3722 211.116 14.3722C212.916 14.3722 214.59 14.6622 216.141 15.2422C217.704 15.8104 219.065 16.6686 220.225 17.8168C221.397 18.965 222.308 20.4091 222.959 22.1491C223.61 23.8774 223.936 25.9015 223.936 28.2216V30.299H200.907V25.6115H216.816C216.816 24.5225 216.579 23.5578 216.106 22.7173C215.632 21.8769 214.975 21.2199 214.135 20.7464C213.306 20.2611 212.341 20.0185 211.241 20.0185C210.092 20.0185 209.074 20.2848 208.187 20.8175C207.311 21.3383 206.624 22.0426 206.127 22.9304C205.63 23.8063 205.375 24.7829 205.363 25.8601V30.3168C205.363 31.6662 205.612 32.8321 206.109 33.8146C206.618 34.7971 207.334 35.5547 208.258 36.0874C209.181 36.62 210.276 36.8864 211.542 36.8864C212.383 36.8864 213.152 36.768 213.851 36.5312C214.549 36.2945 215.147 35.9394 215.644 35.4659C216.141 34.9924 216.52 34.4124 216.78 33.7259L223.776 34.1875C223.421 35.8684 222.693 37.3362 221.592 38.5909C220.503 39.8338 219.095 40.8045 217.366 41.5028C215.65 42.1894 213.667 42.5327 211.418 42.5327ZM228.872 42V14.7273H236.205V19.4858H236.489C236.986 17.7931 237.821 16.5147 238.993 15.6506C240.165 14.7746 241.514 14.3366 243.041 14.3366C243.42 14.3366 243.828 14.3603 244.266 14.4077C244.704 14.455 245.089 14.5201 245.42 14.603V21.3146C245.065 21.2081 244.574 21.1134 243.947 21.0305C243.319 20.9477 242.745 20.9062 242.224 20.9062C241.112 20.9062 240.117 21.1489 239.241 21.6342C238.377 22.1077 237.691 22.7706 237.182 23.6229C236.684 24.4751 236.436 25.4576 236.436 26.5703V42H228.872ZM272.023 22.5043L265.098 22.9304C264.98 22.3385 264.725 21.8059 264.335 21.3324C263.944 20.8471 263.429 20.4624 262.79 20.1783C262.162 19.8823 261.411 19.7344 260.535 19.7344C259.363 19.7344 258.375 19.983 257.57 20.4801C256.765 20.9654 256.362 21.6165 256.362 22.4332C256.362 23.0843 256.623 23.6347 257.143 24.0845C257.664 24.5343 258.558 24.8954 259.825 25.1676L264.761 26.1619C267.412 26.7064 269.389 27.5824 270.691 28.7898C271.993 29.9972 272.644 31.5833 272.644 33.5483C272.644 35.3357 272.117 36.9041 271.064 38.2536C270.022 39.603 268.59 40.6565 266.767 41.4141C264.956 42.1598 262.867 42.5327 260.499 42.5327C256.889 42.5327 254.013 41.781 251.87 40.2777C249.739 38.7625 248.491 36.7029 248.124 34.0987L255.563 33.7081C255.788 34.8089 256.333 35.6494 257.197 36.2294C258.061 36.7976 259.168 37.0817 260.517 37.0817C261.843 37.0817 262.908 36.8272 263.713 36.3182C264.53 35.7973 264.944 35.1286 264.956 34.3118C264.944 33.6252 264.654 33.063 264.086 32.625C263.518 32.1752 262.642 31.8319 261.458 31.5952L256.735 30.6541C254.072 30.1214 252.089 29.1982 250.787 27.8842C249.497 26.5703 248.852 24.8954 248.852 22.8594C248.852 21.1075 249.325 19.5982 250.272 18.3317C251.231 17.0651 252.574 16.0885 254.303 15.402C256.043 14.7154 258.079 14.3722 260.411 14.3722C263.855 14.3722 266.566 15.1001 268.543 16.5561C270.531 18.0121 271.691 19.9948 272.023 22.5043ZM300.13 42.5327C297.621 42.5327 295.454 42.0829 293.631 41.1832C291.808 40.2836 290.406 39.0644 289.423 37.5256C288.453 35.9749 287.967 34.2467 287.967 32.3409C287.967 30.9205 288.251 29.6598 288.82 28.5589C289.388 27.4581 290.181 26.446 291.199 25.5227C292.217 24.5876 293.401 23.6584 294.75 22.7351L301.799 18.1009C302.71 17.5208 303.379 16.9112 303.805 16.272C304.232 15.621 304.445 14.9167 304.445 14.1591C304.445 13.437 304.155 12.7682 303.575 12.1527C302.995 11.5372 302.172 11.2353 301.107 11.2472C300.396 11.2472 299.781 11.407 299.26 11.7266C298.739 12.0343 298.331 12.4427 298.035 12.9517C297.751 13.4489 297.609 14.0052 297.609 14.6207C297.609 15.3783 297.822 16.1477 298.248 16.929C298.674 17.7102 299.242 18.5388 299.952 19.4148C300.663 20.2789 301.438 21.214 302.278 22.2202L319.519 42H311.636L297.254 25.9844C296.307 24.9072 295.36 23.7827 294.413 22.6108C293.478 21.4271 292.696 20.1723 292.069 18.8466C291.442 17.509 291.128 16.0589 291.128 14.4964C291.128 12.7327 291.536 11.1465 292.353 9.73793C293.182 8.32931 294.342 7.21662 295.833 6.39986C297.325 5.57126 299.065 5.15696 301.053 5.15696C302.995 5.15696 304.67 5.5535 306.078 6.34659C307.499 7.12784 308.588 8.16951 309.345 9.47159C310.115 10.7618 310.499 12.1823 310.499 13.733C310.499 15.4493 310.073 17.0059 309.221 18.4027C308.38 19.7876 307.197 21.0305 305.67 22.1314L298.248 27.4759C297.242 28.2098 296.496 28.9614 296.011 29.7308C295.537 30.4884 295.3 31.2164 295.3 31.9148C295.3 32.7789 295.513 33.5542 295.94 34.2408C296.366 34.9273 296.969 35.4718 297.751 35.8743C298.532 36.2649 299.449 36.4602 300.503 36.4602C301.781 36.4602 303.042 36.1702 304.285 35.5902C305.54 34.9983 306.676 34.1638 307.694 33.0866C308.724 31.9976 309.546 30.7074 310.162 29.2159C310.777 27.7244 311.085 26.0732 311.085 24.2621H317.353C317.353 26.4875 317.11 28.4938 316.625 30.2812C316.14 32.0568 315.465 33.6075 314.601 34.9332C313.737 36.2472 312.748 37.3243 311.636 38.1648C311.281 38.3897 310.937 38.6027 310.606 38.804C310.274 39.0052 309.931 39.2183 309.576 39.4432C308.227 40.5322 306.717 41.3194 305.048 41.8047C303.391 42.29 301.752 42.5327 300.13 42.5327ZM334.385 5.63636H343.867L353.881 30.0682H354.307L364.321 5.63636H373.803V42H366.345V18.3317H366.044L356.633 41.8224H351.555L342.144 18.2429H341.843V42H334.385V5.63636ZM392.317 42.5327C389.559 42.5327 387.174 41.9467 385.162 40.7749C383.161 39.5911 381.617 37.9458 380.528 35.8388C379.439 33.7199 378.894 31.2637 378.894 28.4702C378.894 25.6529 379.439 23.1908 380.528 21.0838C381.617 18.965 383.161 17.3196 385.162 16.1477C387.174 14.964 389.559 14.3722 392.317 14.3722C395.076 14.3722 397.455 14.964 399.455 16.1477C401.468 17.3196 403.018 18.965 404.107 21.0838C405.196 23.1908 405.741 25.6529 405.741 28.4702C405.741 31.2637 405.196 33.7199 404.107 35.8388C403.018 37.9458 401.468 39.5911 399.455 40.7749C397.455 41.9467 395.076 42.5327 392.317 42.5327ZM392.353 36.6733C393.608 36.6733 394.655 36.3182 395.496 35.608C396.336 34.8859 396.969 33.9034 397.396 32.6605C397.834 31.4176 398.053 30.0031 398.053 28.4169C398.053 26.8307 397.834 25.4162 397.396 24.1733C396.969 22.9304 396.336 21.9479 395.496 21.2259C394.655 20.5038 393.608 20.1428 392.353 20.1428C391.086 20.1428 390.021 20.5038 389.157 21.2259C388.305 21.9479 387.66 22.9304 387.222 24.1733C386.795 25.4162 386.582 26.8307 386.582 28.4169C386.582 30.0031 386.795 31.4176 387.222 32.6605C387.66 33.9034 388.305 34.8859 389.157 35.608C390.021 36.3182 391.086 36.6733 392.353 36.6733ZM435.206 14.7273L425.672 42H417.149L407.614 14.7273H415.604L421.268 34.2408H421.552L427.199 14.7273H435.206ZM439.077 42V14.7273H446.641V42H439.077ZM442.877 11.2116C441.752 11.2116 440.788 10.8388 439.983 10.093C439.19 9.33546 438.793 8.42992 438.793 7.37642C438.793 6.33475 439.19 5.44105 439.983 4.69531C440.788 3.93774 441.752 3.55895 442.877 3.55895C444.001 3.55895 444.96 3.93774 445.753 4.69531C446.558 5.44105 446.961 6.33475 446.961 7.37642C446.961 8.42992 446.558 9.33546 445.753 10.093C444.96 10.8388 444.001 11.2116 442.877 11.2116ZM465.129 42.5327C462.324 42.5327 459.909 41.9645 457.885 40.8281C455.872 39.6799 454.322 38.0582 453.233 35.9631C452.144 33.8561 451.599 31.3643 451.599 28.4879C451.599 25.6825 452.144 23.2204 453.233 21.1016C454.322 18.9827 455.855 17.3314 457.831 16.1477C459.82 14.964 462.152 14.3722 464.827 14.3722C466.626 14.3722 468.301 14.6622 469.852 15.2422C471.415 15.8104 472.776 16.6686 473.936 17.8168C475.108 18.965 476.019 20.4091 476.67 22.1491C477.321 23.8774 477.647 25.9015 477.647 28.2216V30.299H454.618V25.6115H470.527C470.527 24.5225 470.29 23.5578 469.817 22.7173C469.343 21.8769 468.686 21.2199 467.846 20.7464C467.017 20.2611 466.052 20.0185 464.952 20.0185C463.803 20.0185 462.785 20.2848 461.898 20.8175C461.022 21.3383 460.335 22.0426 459.838 22.9304C459.341 23.8063 459.086 24.7829 459.074 25.8601V30.3168C459.074 31.6662 459.323 32.8321 459.82 33.8146C460.329 34.7971 461.045 35.5547 461.969 36.0874C462.892 36.62 463.987 36.8864 465.253 36.8864C466.094 36.8864 466.863 36.768 467.562 36.5312C468.26 36.2945 468.858 35.9394 469.355 35.4659C469.852 34.9924 470.231 34.4124 470.491 33.7259L477.487 34.1875C477.132 35.8684 476.404 37.3362 475.303 38.5909C474.214 39.8338 472.805 40.8045 471.077 41.5028C469.361 42.1894 467.378 42.5327 465.129 42.5327ZM505.275 22.5043L498.35 22.9304C498.232 22.3385 497.977 21.8059 497.586 21.3324C497.196 20.8471 496.681 20.4624 496.042 20.1783C495.414 19.8823 494.663 19.7344 493.787 19.7344C492.615 19.7344 491.626 19.983 490.822 20.4801C490.017 20.9654 489.614 21.6165 489.614 22.4332C489.614 23.0843 489.875 23.6347 490.395 24.0845C490.916 24.5343 491.81 24.8954 493.077 25.1676L498.013 26.1619C500.664 26.7064 502.641 27.5824 503.943 28.7898C505.245 29.9972 505.896 31.5833 505.896 33.5483C505.896 35.3357 505.369 36.9041 504.316 38.2536C503.274 39.603 501.842 40.6565 500.019 41.4141C498.208 42.1598 496.119 42.5327 493.751 42.5327C490.141 42.5327 487.265 41.781 485.122 40.2777C482.991 38.7625 481.742 36.7029 481.376 34.0987L488.815 33.7081C489.04 34.8089 489.585 35.6494 490.449 36.2294C491.313 36.7976 492.42 37.0817 493.769 37.0817C495.095 37.0817 496.16 36.8272 496.965 36.3182C497.782 35.7973 498.196 35.1286 498.208 34.3118C498.196 33.6252 497.906 33.063 497.338 32.625C496.77 32.1752 495.894 31.8319 494.71 31.5952L489.987 30.6541C487.324 30.1214 485.341 29.1982 484.039 27.8842C482.749 26.5703 482.104 24.8954 482.104 22.8594C482.104 21.1075 482.577 19.5982 483.524 18.3317C484.483 17.0651 485.826 16.0885 487.555 15.402C489.295 14.7154 491.331 14.3722 493.662 14.3722C497.107 14.3722 499.818 15.1001 501.795 16.5561C503.783 18.0121 504.943 19.9948 505.275 22.5043Z"/>
</mask>
<path d="M36.245 18.3672V21.3672H39.6198L39.2244 18.0157L36.245 18.3672ZM28.468 18.3672L25.4975 18.7866L25.8618 21.3672H28.468V18.3672ZM27.598 15.6861L24.9718 17.1363L24.9765 17.1447L24.9812 17.1531L27.598 15.6861ZM25.9112 13.6619L24.0225 15.9927L24.0225 15.9927L25.9112 13.6619ZM23.532 12.3835L22.5833 15.2296L22.5945 15.2333L23.532 12.3835ZM15.7195 13.3423L17.3738 15.845L17.3811 15.8401L17.3884 15.8352L15.7195 13.3423ZM12.4702 17.3906L15.2199 18.5902L15.2228 18.5834L12.4702 17.3906ZM12.4702 30.3523L9.72043 31.5518L9.7238 31.5596L9.72722 31.5673L12.4702 30.3523ZM15.7372 34.3473L14.1128 36.8694H14.1128L15.7372 34.3473ZM23.4432 35.2884L22.5636 32.4202L22.5528 32.4235L23.4432 35.2884ZM25.8047 34.0987L27.6178 36.4888L27.6308 36.479L27.6437 36.469L25.8047 34.0987ZM27.5092 32.1634L24.9474 30.6022L24.9385 30.6169L24.9297 30.6317L27.5092 32.1634ZM28.468 29.571L28.4817 26.5711L25.9691 26.5596L25.517 29.0312L28.468 29.571ZM36.245 29.6065L39.2235 29.9656L39.6266 26.6219L36.2587 26.6066L36.245 29.6065ZM34.7358 34.4361L32.0731 33.0539L32.0691 33.0617L34.7358 34.4361ZM31.522 38.5732L33.5322 40.8001L33.5332 40.7991L31.522 38.5732ZM26.728 41.4496L27.7892 44.2556L27.7989 44.2519L26.728 41.4496ZM11.7599 40.2955L10.2611 42.8942L10.2663 42.8972L11.7599 40.2955ZM5.72301 33.9212L3.06971 35.3212L3.07439 35.33L5.72301 33.9212ZM5.75852 13.6974L8.40246 15.115V15.115L5.75852 13.6974ZM11.831 7.34091L13.3155 9.94788L13.3246 9.94267L11.831 7.34091ZM26.3196 6.02699L25.3822 8.87677L25.3877 8.87858L26.3196 6.02699ZM31.1314 8.61932L29.2381 10.9465L29.2441 10.9513L29.2501 10.9561L31.1314 8.61932ZM34.5405 12.7564L31.8966 14.1741L31.9006 14.1815L31.9046 14.1889L34.5405 12.7564ZM36.245 15.3672H28.468V21.3672H36.245V15.3672ZM31.4386 17.9478C31.2515 16.6227 30.8574 15.3652 30.2149 14.2191L24.9812 17.1531C25.2146 17.5694 25.4005 18.0994 25.4975 18.7866L31.4386 17.9478ZM30.2242 14.2358C29.6042 13.1132 28.7944 12.137 27.8 11.3311L24.0225 15.9927C24.4012 16.2996 24.7159 16.6728 24.9718 17.1363L30.2242 14.2358ZM27.8 11.3311C26.8107 10.5295 25.69 9.93526 24.4694 9.53374L22.5945 15.2333C23.1732 15.4236 23.6386 15.6817 24.0225 15.9927L27.8 11.3311ZM24.4806 9.53747C23.2545 9.12874 21.9658 8.93963 20.6378 8.93963V14.9396C21.3932 14.9396 22.0339 15.0464 22.5833 15.2296L24.4806 9.53747ZM20.6378 8.93963C18.2352 8.93963 15.999 9.54492 14.0505 10.8494L17.3884 15.8352C18.2335 15.2695 19.2762 14.9396 20.6378 14.9396V8.93963ZM14.0652 10.8397C12.111 12.1314 10.6814 13.9735 9.7175 16.1978L15.2228 18.5834C15.7978 17.2566 16.5344 16.3998 17.3738 15.845L14.0652 10.8397ZM9.72043 16.1911C8.74327 18.431 8.31605 21.0062 8.31605 23.8182H14.3161C14.3161 21.5876 14.6583 19.8777 15.2199 18.5902L9.72043 16.1911ZM8.31605 23.8182C8.31605 26.688 8.73929 29.3027 9.72043 31.5518L15.2199 29.1527C14.6622 27.8743 14.3161 26.1331 14.3161 23.8182H8.31605ZM9.72722 31.5673C10.7066 33.7783 12.1482 35.6041 14.1128 36.8694L17.3616 31.8252C16.5327 31.2912 15.7963 30.4537 15.2131 29.1373L9.72722 31.5673ZM14.1128 36.8694C16.0438 38.1131 18.2359 38.6967 20.5845 38.6967V32.6967C19.2636 32.6967 18.2242 32.3807 17.3616 31.8252L14.1128 36.8694ZM20.5845 38.6967C21.8797 38.6967 23.1364 38.5253 24.3336 38.1532L22.5528 32.4235C21.9981 32.5959 21.349 32.6967 20.5845 32.6967V38.6967ZM24.3228 38.1565C25.5212 37.789 26.6295 37.2385 27.6178 36.4888L23.9915 31.7086C23.6067 32.0006 23.1408 32.2432 22.5636 32.4202L24.3228 38.1565ZM27.6437 36.469C28.6317 35.7024 29.4496 34.7715 30.0888 33.695L24.9297 30.6317C24.6692 31.0704 24.3508 31.4297 23.9657 31.7285L27.6437 36.469ZM30.0711 33.7245C30.7442 32.6199 31.1828 31.4024 31.4191 30.1108L25.517 29.0312C25.3982 29.6809 25.1976 30.1917 24.9474 30.6022L30.0711 33.7245ZM28.4543 32.571L36.2313 32.6065L36.2587 26.6066L28.4817 26.5711L28.4543 32.571ZM33.2666 29.2474C33.1101 30.5453 32.7189 31.8099 32.0731 33.0539L37.3984 35.8182C38.3625 33.961 38.9775 32.0058 39.2235 29.9656L33.2666 29.2474ZM32.0691 33.0617C31.4497 34.2635 30.606 35.3577 29.5108 36.3472L33.5332 40.7991C35.1369 39.3502 36.4357 37.6863 37.4025 35.8104L32.0691 33.0617ZM29.5119 36.3462C28.4764 37.2809 27.2055 38.0555 25.657 38.6472L27.7989 44.2519C29.9673 43.4232 31.8925 42.2802 33.5322 40.8001L29.5119 36.3462ZM25.6667 38.6436C24.2146 39.1928 22.4939 39.4972 20.4602 39.4972V45.4972C23.0904 45.4972 25.5482 45.1032 27.7892 44.2556L25.6667 38.6436ZM20.4602 39.4972C17.6871 39.4972 15.3113 38.875 13.2535 37.6937L10.2663 42.8972C13.3222 44.6515 16.7466 45.4972 20.4602 45.4972V39.4972ZM13.2588 37.6967C11.2365 36.5304 9.60707 34.835 8.37163 32.5123L3.07439 35.33C4.79823 38.5708 7.19339 41.1249 10.2611 42.8942L13.2588 37.6967ZM8.3763 32.5211C7.18732 30.2678 6.52131 27.4066 6.52131 23.8182H0.521307C0.521307 28.1369 1.32309 32.011 3.06973 35.3212L8.3763 32.5211ZM6.52131 23.8182C6.52131 20.2231 7.19716 17.363 8.40246 15.115L3.11459 12.2798C1.33693 15.5953 0.521307 19.4824 0.521307 23.8182H6.52131ZM8.40246 15.115C9.64734 12.7932 11.2853 11.1039 13.3155 9.94786L10.3465 4.73395C7.26299 6.48981 4.85266 9.03819 3.11458 12.2798L8.40246 15.115ZM13.3246 9.94267C15.389 8.75752 17.7429 8.1392 20.4602 8.1392V2.1392C16.7855 2.1392 13.3865 2.98869 10.3374 4.73915L13.3246 9.94267ZM20.4602 8.1392C22.2842 8.1392 23.9174 8.39493 25.3822 8.87677L27.257 3.17721C25.1233 2.47533 22.8502 2.1392 20.4602 2.1392V8.1392ZM25.3877 8.87858C26.8694 9.3628 28.1432 10.0557 29.2381 10.9465L33.0247 6.29218C31.326 4.91022 29.3919 3.87488 27.2515 3.1754L25.3877 8.87858ZM29.2501 10.9561C30.323 11.8199 31.2041 12.8828 31.8966 14.1741L37.1844 11.3387C36.1249 9.36297 34.7333 7.66774 33.0127 6.28252L29.2501 10.9561ZM31.9046 14.1889C32.5863 15.4433 33.0556 16.9376 33.2657 18.7187L39.2244 18.0157C38.9373 15.5828 38.2702 13.3365 37.1764 11.3239L31.9046 14.1889ZM49.18 26.233L46.1802 26.2027L46.18 26.2178V26.233H49.18ZM49.18 42V45H52.18V42H49.18ZM41.6161 42H38.6161V45H41.6161V42ZM41.6161 5.63636V2.63636H38.6161V5.63636H41.6161ZM48.967 5.63636H51.967V2.63636H48.967V5.63636ZM48.967 19.5391H45.967V22.5391H48.967V19.5391ZM49.2866 19.5391V22.5391H51.3513L52.0887 20.6105L49.2866 19.5391ZM52.2695 15.7571L53.9287 18.2566L53.9361 18.2516L53.9435 18.2466L52.2695 15.7571ZM62.3903 15.6151L60.8692 18.2009L60.882 18.2084L60.8949 18.2158L62.3903 15.6151ZM65.6928 19.1484L63.0178 20.5065L63.0241 20.5189L63.0305 20.5312L65.6928 19.1484ZM66.8647 24.6349L63.8647 24.6183L63.8647 24.6266V24.6349H66.8647ZM66.8647 42V45H69.8647V42H66.8647ZM59.3008 42H56.3008V45H59.3008V42ZM59.3008 25.9844L56.3009 25.9632L56.3008 25.9738V25.9844H59.3008ZM58.0224 22.0604L55.8051 24.0812L55.812 24.0888L55.819 24.0964L58.0224 22.0604ZM51.7014 21.3146L50.2511 18.6885L50.2427 18.6931L50.2343 18.6978L51.7014 21.3146ZM49.8548 23.2322L47.2098 21.8166L47.2061 21.8235L47.2025 21.8303L49.8548 23.2322ZM46.18 26.233V42H52.18V26.233H46.18ZM49.18 39H41.6161V45H49.18V39ZM44.6161 42V5.63636H38.6161V42H44.6161ZM41.6161 8.63636H48.967V2.63636H41.6161V8.63636ZM45.967 5.63636V19.5391H51.967V5.63636H45.967ZM48.967 22.5391H49.2866V16.5391H48.967V22.5391ZM52.0887 20.6105C52.4921 19.5556 53.1007 18.8061 53.9287 18.2566L50.6104 13.2576C48.6921 14.531 47.3122 16.3028 46.4844 18.4677L52.0887 20.6105ZM53.9435 18.2466C54.7101 17.7312 55.8107 17.3722 57.4364 17.3722V11.3722C54.9192 11.3722 52.5752 11.9364 50.5955 13.2676L53.9435 18.2466ZM57.4364 17.3722C58.8816 17.3722 59.9906 17.684 60.8692 18.2009L63.9113 13.0293C61.9727 11.8889 59.7791 11.3722 57.4364 11.3722V17.3722ZM60.8949 18.2158C61.7821 18.7259 62.4858 19.4586 63.0178 20.5065L68.3678 17.7904C67.3373 15.7606 65.8394 14.1377 63.8857 13.0143L60.8949 18.2158ZM63.0305 20.5312C63.5518 21.535 63.8745 22.8604 63.8647 24.6183L69.8647 24.6516C69.8786 22.1481 69.42 19.8159 68.3552 17.7657L63.0305 20.5312ZM63.8647 24.6349V42H69.8647V24.6349H63.8647ZM66.8647 39H59.3008V45H66.8647V39ZM62.3008 42V25.9844H56.3008V42H62.3008ZM62.3007 26.0055C62.3161 23.8131 61.755 21.6794 60.2257 20.0244L55.819 24.0964C56.0179 24.3116 56.3091 24.7939 56.3009 25.9632L62.3007 26.0055ZM60.2397 20.0396C58.6983 18.3484 56.6211 17.6577 54.4357 17.6577V23.6577C55.328 23.6577 55.6419 23.9021 55.8051 24.0812L60.2397 20.0396ZM54.4357 17.6577C52.9689 17.6577 51.5459 17.9734 50.2511 18.6885L53.1516 23.9408C53.4429 23.7799 53.8429 23.6577 54.4357 23.6577V17.6577ZM50.2343 18.6978C48.9213 19.4339 47.9115 20.5056 47.2098 21.8166L52.4998 24.6479C52.6977 24.278 52.9189 24.0713 53.1684 23.9315L50.2343 18.6978ZM47.2025 21.8303C46.4919 23.1746 46.1957 24.6697 46.1802 26.2027L52.1799 26.2633C52.1881 25.4525 52.3417 24.947 52.507 24.6342L47.2025 21.8303ZM75.9423 41.6094L74.7063 44.3429L74.7162 44.3474L74.7261 44.3518L75.9423 41.6094ZM72.7108 38.8928L70.192 40.5225L70.2013 40.5369L70.2108 40.5511L72.7108 38.8928ZM72.3734 30.5653L69.7339 29.1394L72.3734 30.5653ZM74.6461 28.0795L73.0035 25.5692L74.6461 28.0795ZM77.9132 26.6591L77.1593 23.7553L77.1525 23.7571L77.9132 26.6591ZM81.7839 25.9844L82.0721 28.9705L82.0839 28.9694L82.0956 28.9681L81.7839 25.9844ZM85.6191 25.5227L86.0535 28.4911L86.0712 28.4885L86.0889 28.4857L85.6191 25.5227ZM87.7321 24.848L86.0525 22.3622L86.0525 22.3622L87.7321 24.848ZM87.3237 20.8175L85.3401 23.0681L85.3495 23.0764L85.3589 23.0845L87.3237 20.8175ZM81.0914 20.7997L82.8686 23.2167L82.8801 23.2082L82.8914 23.1997L81.0914 20.7997ZM79.4934 23.0369L79.2506 26.0271L81.6936 26.2255L82.3751 23.8711L79.4934 23.0369ZM72.4977 22.4688L69.5643 21.8402L68.8481 25.1822L72.2548 25.4589L72.4977 22.4688ZM74.5929 18.1719L76.8643 20.1316L76.8691 20.1261L76.8738 20.1206L74.5929 18.1719ZM78.6234 15.3665L79.7272 18.1561L79.7376 18.1519L78.6234 15.3665ZM88.7264 14.9048L87.9813 17.8108L87.9872 17.8123L88.7264 14.9048ZM92.4373 16.5561L90.7297 19.0227L90.736 19.027L90.7423 19.0314L92.4373 16.5561ZM95.0119 19.4325L92.367 20.8485L92.3731 20.8596L95.0119 19.4325ZM95.9529 42V45H98.9529V42H95.9529ZM88.7797 42H85.7797V45H88.7797V42ZM88.7797 38.218H91.7797V35.218H88.7797V38.218ZM88.5666 38.218V35.218H86.7353L85.8983 36.8468L88.5666 38.218ZM86.8088 40.473L88.7791 42.7353L88.7894 42.7263L88.7996 42.7172L86.8088 40.473ZM84.1632 41.9822L85.1411 44.8184L85.1557 44.8134L85.1701 44.8082L84.1632 41.9822ZM85.7079 36.6378L87.0791 39.3061L87.0937 39.2986L87.1082 39.2909L85.7079 36.6378ZM87.7143 34.8267L85.1882 33.2084L87.7143 34.8267ZM88.4423 29.358H91.4423V23.8299L86.8073 26.8426L88.4423 29.358ZM87.4657 29.7841L88.3122 32.6622L88.3388 32.6544L88.3652 32.6461L87.4657 29.7841ZM86.0985 30.1214L86.6473 33.0708L86.6803 33.0647L86.7131 33.0578L86.0985 30.1214ZM84.5716 30.3878L84.9861 33.359L85.0199 33.3543L85.0536 33.3488L84.5716 30.3878ZM83.1866 30.5831L82.7623 27.6132L82.7513 27.6149L83.1866 30.5831ZM80.8606 31.2045L82.0424 33.962L80.8606 31.2045ZM79.3159 32.3587L81.6871 34.1964L81.6981 34.1823L81.7089 34.168L79.3159 32.3587ZM79.8841 36.4957L78.115 38.9186L78.1366 38.9344L78.1585 38.9498L79.8841 36.4957ZM80.5943 39.5149C79.2033 39.5149 78.0777 39.2746 77.1585 38.867L74.7261 44.3518C76.5294 45.1515 78.5052 45.5149 80.5943 45.5149V39.5149ZM77.1783 38.8758C76.3088 38.4826 75.6787 37.9398 75.2107 37.2344L70.2108 40.5511C71.329 42.2368 72.8533 43.505 74.7063 44.3429L77.1783 38.8758ZM75.2295 37.263C74.8328 36.65 74.5389 35.7488 74.5389 34.3828H68.5389C68.5389 36.6154 69.0262 38.7207 70.192 40.5225L75.2295 37.263ZM74.5389 34.3828C74.5389 33.2231 74.7527 32.4729 75.0129 31.9913L69.7339 29.1394C68.8814 30.7175 68.5389 32.5122 68.5389 34.3828H74.5389ZM75.0129 31.9913C75.3375 31.3903 75.7564 30.9382 76.2887 30.5899L73.0035 25.5692C71.6182 26.4756 70.522 27.6807 69.7339 29.1394L75.0129 31.9913ZM76.2887 30.5899C76.9509 30.1566 77.7367 29.8067 78.6739 29.561L77.1525 23.7571C75.6512 24.1507 74.2589 24.7477 73.0035 25.5692L76.2887 30.5899ZM78.667 29.5628C79.7356 29.2854 80.8695 29.0865 82.0721 28.9705L81.4958 22.9982C79.9994 23.1426 78.5528 23.3936 77.1593 23.7554L78.667 29.5628ZM82.0956 28.9681C83.7009 28.8004 85.025 28.6416 86.0535 28.4911L85.1847 22.5543C84.272 22.6879 83.0392 22.8369 81.4722 23.0006L82.0956 28.9681ZM86.0889 28.4857C87.183 28.3123 88.418 28.0051 89.4116 27.3338L86.0525 22.3622C86.1434 22.3008 86.1423 22.3235 85.9628 22.3808C85.7935 22.4348 85.5303 22.4993 85.1494 22.5597L86.0889 28.4857ZM89.4116 27.3338C90.7656 26.4189 91.389 24.9964 91.389 23.5341H85.389C85.389 23.4438 85.4076 23.2237 85.5415 22.9559C85.6808 22.6773 85.8791 22.4794 86.0525 22.3622L89.4116 27.3338ZM91.389 23.5341V23.4276H85.389V23.5341H91.389ZM91.389 23.4276C91.389 21.6205 90.7858 19.8481 89.2885 18.5504L85.3589 23.0845C85.364 23.089 85.3594 23.0856 85.3519 23.0751C85.3443 23.0647 85.3426 23.0592 85.3451 23.0653C85.35 23.0771 85.389 23.1792 85.389 23.4276H91.389ZM89.3073 18.5668C87.8811 17.3099 86.0794 16.8942 84.3407 16.8942V22.8942C84.7541 22.8942 85.0164 22.9442 85.1671 22.9909C85.2402 23.0135 85.2845 23.0345 85.3079 23.0472C85.3304 23.0595 85.3389 23.067 85.3401 23.0681L89.3073 18.5668ZM84.3407 16.8942C82.5567 16.8942 80.7715 17.2897 79.2914 18.3997L82.8914 23.1997C83.0213 23.1024 83.4022 22.8942 84.3407 22.8942V16.8942ZM79.3143 18.3828C78.0148 19.3382 77.0686 20.6245 76.6117 22.2028L82.3751 23.8711C82.4391 23.6502 82.5582 23.4449 82.8686 23.2167L79.3143 18.3828ZM79.7363 20.0468L72.7405 19.4786L72.2548 25.4589L79.2506 26.0271L79.7363 20.0468ZM75.4311 23.0973C75.6876 21.9004 76.1722 20.9338 76.8643 20.1316L72.3214 16.2122C70.9302 17.8247 70.018 19.7227 69.5643 21.8402L75.4311 23.0973ZM76.8738 20.1206C77.5656 19.3108 78.4889 18.646 79.7272 18.156L77.5196 12.5769C75.4671 13.389 73.7034 14.5945 72.312 16.2232L76.8738 20.1206ZM79.7376 18.1519C80.9717 17.6582 82.4982 17.3722 84.3762 17.3722V11.3722C81.8982 11.3722 79.5895 11.749 77.5092 12.581L79.7376 18.1519ZM84.3762 17.3722C85.655 17.3722 86.8539 17.5217 87.9813 17.8108L89.4715 11.9988C87.829 11.5777 86.1278 11.3722 84.3762 11.3722V17.3722ZM87.9872 17.8123C89.0721 18.0882 89.9745 18.4998 90.7297 19.0227L94.145 14.0895C92.7458 13.1209 91.1742 12.4317 89.4656 11.9973L87.9872 17.8123ZM90.7423 19.0314C91.4314 19.5033 91.9651 20.0976 92.3671 20.8485L97.6567 18.0166C96.804 16.4237 95.6213 15.1004 94.1323 14.0808L90.7423 19.0314ZM92.3731 20.8596C92.7149 21.4916 92.9529 22.3687 92.9529 23.6051H98.9529C98.9529 21.5982 98.5636 19.6935 97.6507 18.0054L92.3731 20.8596ZM92.9529 23.6051V42H98.9529V23.6051H92.9529ZM95.9529 39H88.7797V45H95.9529V39ZM91.7797 42V38.218H85.7797V42H91.7797ZM88.7797 35.218H88.5666V41.218H88.7797V35.218ZM85.8983 36.8468C85.6342 37.3607 85.2807 37.8183 84.8179 38.2288L88.7996 42.7172C89.8047 41.8256 90.623 40.7799 91.2349 39.5892L85.8983 36.8468ZM84.8384 38.2108C84.4203 38.5749 83.8759 38.8999 83.1562 39.1563L85.1701 44.8082C86.5101 44.3307 87.7294 43.6495 88.7791 42.7353L84.8384 38.2108ZM83.1852 39.1461C82.5349 39.3704 81.6872 39.5149 80.5943 39.5149V45.5149C82.2002 45.5149 83.7318 45.3043 85.1411 44.8184L83.1852 39.1461ZM82.7605 40.2947C84.2731 40.2947 85.7391 39.9947 87.0791 39.3061L84.3367 33.9695C83.9722 34.1568 83.4732 34.2947 82.7605 34.2947V40.2947ZM87.1082 39.2909C88.3852 38.617 89.4557 37.67 90.2404 36.445L85.1882 33.2084C85.0023 33.4986 84.7352 33.759 84.3076 33.9846L87.1082 39.2909ZM90.2404 36.445C91.0558 35.1722 91.4423 33.7451 91.4423 32.2521H85.4423C85.4423 32.6767 85.3435 32.966 85.1882 33.2084L90.2404 36.445ZM91.4423 32.2521V29.358H85.4423V32.2521H91.4423ZM86.8073 26.8426C86.8573 26.8102 86.869 26.8092 86.8208 26.8303C86.7747 26.8504 86.6929 26.8823 86.5663 26.9221L88.3652 32.6461C88.9158 32.473 89.5245 32.2326 90.0773 31.8733L86.8073 26.8426ZM86.6192 26.906C86.3088 26.9973 85.9325 27.0912 85.484 27.1851L86.7131 33.0578C87.2826 32.9386 87.8178 32.8076 88.3122 32.6622L86.6192 26.906ZM85.5498 27.1721C85.0629 27.2626 84.5762 27.3475 84.0895 27.4268L85.0536 33.3488C85.5849 33.2623 86.1162 33.1696 86.6473 33.0708L85.5498 27.1721ZM84.157 27.4166C83.6454 27.4879 83.1805 27.5535 82.7624 27.6132L83.6109 33.5529C84.0213 33.4943 84.4797 33.4297 84.9861 33.359L84.157 27.4166ZM82.7513 27.6149C81.6663 27.774 80.6301 28.0394 79.6789 28.4471L82.0424 33.962C82.4169 33.8015 82.9314 33.6526 83.622 33.5513L82.7513 27.6149ZM79.6789 28.4471C78.6259 28.8984 77.6581 29.577 76.9229 30.5493L81.7089 34.168C81.7128 34.1628 81.7287 34.1424 81.7729 34.1095C81.819 34.075 81.9028 34.0218 82.0424 33.962L79.6789 28.4471ZM76.9446 30.5209C76.0981 31.6133 75.7654 32.8867 75.7654 34.1342H81.7654C81.7654 34.0371 81.7779 34.0157 81.7685 34.046C81.7639 34.0609 81.7552 34.0843 81.7403 34.113C81.7254 34.1419 81.7073 34.1703 81.6871 34.1964L76.9446 30.5209ZM75.7654 34.1342C75.7654 35.9943 76.4981 37.7381 78.115 38.9186L81.6531 34.0729C81.6499 34.0705 81.6668 34.0826 81.6918 34.1123C81.7173 34.1427 81.7399 34.178 81.7563 34.2127C81.7724 34.2466 81.7755 34.265 81.7741 34.258C81.7724 34.2497 81.7654 34.211 81.7654 34.1342H75.7654ZM78.1585 38.9498C79.5362 39.9185 81.1399 40.2947 82.7605 40.2947V34.2947C82.061 34.2947 81.747 34.1383 81.6096 34.0416L78.1585 38.9498ZM101.821 42H98.8212V45H101.821V42ZM101.821 14.7273V11.7273H98.8212V14.7273H101.821ZM109.154 14.7273H112.154V11.7273H109.154V14.7273ZM109.154 19.4858H106.154V22.4858H109.154V19.4858ZM109.438 19.4858V22.4858H111.684L112.317 20.3312L109.438 19.4858ZM111.942 15.6506L113.722 18.0651L113.73 18.0593L113.738 18.0535L111.942 15.6506ZM117.215 14.4077L117.538 11.425L117.538 11.425L117.215 14.4077ZM118.369 14.603H121.369V12.2606L119.097 11.6926L118.369 14.603ZM118.369 21.3146L117.507 24.1881L121.369 25.3467V21.3146H118.369ZM112.191 21.6342L113.632 24.2652L113.644 24.2584L112.191 21.6342ZM110.131 23.6229L107.555 22.0846L107.547 22.0979L107.54 22.1113L110.131 23.6229ZM109.385 42V45H112.385V42H109.385ZM104.821 42V14.7273H98.8212V42H104.821ZM101.821 17.7273H109.154V11.7273H101.821V17.7273ZM106.154 14.7273V19.4858H112.154V14.7273H106.154ZM109.154 22.4858H109.438V16.4858H109.154V22.4858ZM112.317 20.3312C112.669 19.1307 113.182 18.4633 113.722 18.0651L110.162 13.236C108.358 14.566 107.202 16.4554 106.56 18.6404L112.317 20.3312ZM113.738 18.0535C114.368 17.5829 115.08 17.3366 115.99 17.3366V11.3366C113.846 11.3366 111.86 11.9663 110.146 13.2477L113.738 18.0535ZM115.99 17.3366C116.246 17.3366 116.545 17.3527 116.893 17.3903L117.538 11.425C117.01 11.3679 116.492 11.3366 115.99 11.3366V17.3366ZM116.893 17.3903C117.231 17.4269 117.475 17.4718 117.642 17.5134L119.097 11.6926C118.601 11.5685 118.076 11.4832 117.538 11.425L116.893 17.3903ZM115.369 14.603V21.3146H121.369V14.603H115.369ZM119.232 18.4412C118.653 18.2676 117.981 18.1478 117.289 18.0564L116.503 24.0047C117.066 24.079 117.376 24.1486 117.507 24.1881L119.232 18.4412ZM117.289 18.0564C116.558 17.9598 115.85 17.9062 115.173 17.9062V23.9062C115.539 23.9062 115.979 23.9355 116.503 24.0047L117.289 18.0564ZM115.173 17.9062C113.61 17.9062 112.105 18.2517 110.737 19.0101L113.644 24.2584C114.028 24.0461 114.512 23.9062 115.173 23.9062V17.9062ZM110.749 19.0033C109.413 19.7356 108.336 20.7773 107.555 22.0846L112.706 25.1611C112.944 24.7639 113.24 24.4799 113.632 24.2652L110.749 19.0033ZM107.54 22.1113C106.742 23.4787 106.385 24.9957 106.385 26.5703H112.385C112.385 25.9195 112.526 25.4716 112.722 25.1345L107.54 22.1113ZM106.385 26.5703V42H112.385V26.5703H106.385ZM109.385 39H101.821V45H109.385V39ZM124.624 41.6094L123.388 44.3429L123.398 44.3474L123.408 44.3518L124.624 41.6094ZM121.392 38.8928L118.874 40.5225L118.883 40.5369L118.892 40.5511L121.392 38.8928ZM121.055 30.5653L118.416 29.1394L121.055 30.5653ZM123.328 28.0795L121.685 25.5692L123.328 28.0795ZM126.595 26.6591L125.841 23.7553L125.834 23.7571L126.595 26.6591ZM130.466 25.9844L130.754 28.9705L130.765 28.9694L130.777 28.9681L130.466 25.9844ZM134.301 25.5227L134.735 28.4911L134.753 28.4885L134.771 28.4857L134.301 25.5227ZM136.414 24.848L134.734 22.3622V22.3622L136.414 24.848ZM136.005 20.8175L134.022 23.0681L134.031 23.0764L134.041 23.0845L136.005 20.8175ZM129.773 20.7997L131.55 23.2167L131.562 23.2082L131.573 23.1997L129.773 20.7997ZM128.175 23.0369L127.932 26.0271L130.375 26.2255L131.057 23.8711L128.175 23.0369ZM121.179 22.4688L118.246 21.8402L117.53 25.1822L120.936 25.4589L121.179 22.4688ZM123.275 18.1719L125.546 20.1316L125.551 20.1261L125.555 20.1206L123.275 18.1719ZM127.305 15.3665L128.409 18.1561L128.419 18.1519L127.305 15.3665ZM137.408 14.9048L136.663 17.8108L136.669 17.8123L137.408 14.9048ZM141.119 16.5561L139.411 19.0227L139.418 19.027L139.424 19.0314L141.119 16.5561ZM143.694 19.4325L141.049 20.8485L141.055 20.8596L143.694 19.4325ZM144.635 42V45H147.635V42H144.635ZM137.461 42H134.461V45H137.461V42ZM137.461 38.218H140.461V35.218H137.461V38.218ZM137.248 38.218V35.218H135.417L134.58 36.8468L137.248 38.218ZM135.49 40.473L137.461 42.7353L137.471 42.7263L137.481 42.7172L135.49 40.473ZM132.845 41.9822L133.823 44.8184L133.837 44.8134L133.852 44.8082L132.845 41.9822ZM134.39 36.6378L135.761 39.3061L135.775 39.2986L135.79 39.2909L134.39 36.6378ZM136.396 34.8267L133.87 33.2084L136.396 34.8267ZM137.124 29.358H140.124V23.8299L135.489 26.8426L137.124 29.358ZM136.147 29.7841L136.994 32.6622L137.02 32.6544L137.047 32.6461L136.147 29.7841ZM134.78 30.1214L135.329 33.0708L135.362 33.0647L135.395 33.0578L134.78 30.1214ZM133.253 30.3878L133.668 33.359L133.702 33.3543L133.735 33.3488L133.253 30.3878ZM131.868 30.5831L131.444 27.6132L131.433 27.6149L131.868 30.5831ZM129.542 31.2045L130.724 33.962L129.542 31.2045ZM127.998 32.3587L130.369 34.1964L130.38 34.1823L130.39 34.168L127.998 32.3587ZM128.566 36.4957L126.797 38.9186L126.818 38.9344L126.84 38.9498L128.566 36.4957ZM129.276 39.5149C127.885 39.5149 126.759 39.2746 125.84 38.867L123.408 44.3518C125.211 45.1515 127.187 45.5149 129.276 45.5149V39.5149ZM125.86 38.8758C124.99 38.4826 124.36 37.9398 123.892 37.2344L118.892 40.5511C120.011 42.2368 121.535 43.505 123.388 44.3429L125.86 38.8758ZM123.911 37.263C123.514 36.65 123.221 35.7488 123.221 34.3828H117.221C117.221 36.6154 117.708 38.7207 118.874 40.5225L123.911 37.263ZM123.221 34.3828C123.221 33.2231 123.434 32.4729 123.695 31.9913L118.416 29.1394C117.563 30.7175 117.221 32.5122 117.221 34.3828H123.221ZM123.695 31.9913C124.019 31.3903 124.438 30.9382 124.97 30.5899L121.685 25.5692C120.3 26.4756 119.204 27.6807 118.416 29.1394L123.695 31.9913ZM124.97 30.5899C125.633 30.1566 126.418 29.8067 127.356 29.561L125.834 23.7571C124.333 24.1507 122.941 24.7477 121.685 25.5692L124.97 30.5899ZM127.349 29.5628C128.417 29.2854 129.551 29.0865 130.754 28.9705L130.177 22.9982C128.681 23.1426 127.234 23.3936 125.841 23.7554L127.349 29.5628ZM130.777 28.9681C132.383 28.8004 133.707 28.6416 134.735 28.4911L133.866 22.5543C132.954 22.6879 131.721 22.8369 130.154 23.0006L130.777 28.9681ZM134.771 28.4857C135.865 28.3123 137.1 28.0051 138.093 27.3338L134.734 22.3622C134.825 22.3008 134.824 22.3235 134.644 22.3808C134.475 22.4348 134.212 22.4993 133.831 22.5597L134.771 28.4857ZM138.093 27.3338C139.447 26.4189 140.071 24.9964 140.071 23.5341H134.071C134.071 23.4438 134.089 23.2237 134.223 22.9559C134.362 22.6773 134.561 22.4794 134.734 22.3622L138.093 27.3338ZM140.071 23.5341V23.4276H134.071V23.5341H140.071ZM140.071 23.4276C140.071 21.6205 139.467 19.8481 137.97 18.5504L134.041 23.0845C134.046 23.089 134.041 23.0856 134.033 23.0751C134.026 23.0647 134.024 23.0592 134.027 23.0653C134.032 23.0771 134.071 23.1792 134.071 23.4276H140.071ZM137.989 18.5668C136.563 17.3099 134.761 16.8942 133.022 16.8942V22.8942C133.436 22.8942 133.698 22.9442 133.849 22.9909C133.922 23.0135 133.966 23.0345 133.989 23.0472C134.012 23.0595 134.021 23.067 134.022 23.0681L137.989 18.5668ZM133.022 16.8942C131.238 16.8942 129.453 17.2897 127.973 18.3997L131.573 23.1997C131.703 23.1024 132.084 22.8942 133.022 22.8942V16.8942ZM127.996 18.3828C126.696 19.3382 125.75 20.6245 125.293 22.2028L131.057 23.8711C131.121 23.6502 131.24 23.4449 131.55 23.2167L127.996 18.3828ZM128.418 20.0468L121.422 19.4786L120.936 25.4589L127.932 26.0271L128.418 20.0468ZM124.113 23.0973C124.369 21.9004 124.854 20.9338 125.546 20.1316L121.003 16.2122C119.612 17.8247 118.7 19.7227 118.246 21.8402L124.113 23.0973ZM125.555 20.1206C126.247 19.3108 127.171 18.646 128.409 18.156L126.201 12.5769C124.149 13.389 122.385 14.5945 120.994 16.2232L125.555 20.1206ZM128.419 18.1519C129.653 17.6582 131.18 17.3722 133.058 17.3722V11.3722C130.58 11.3722 128.271 11.749 126.191 12.581L128.419 18.1519ZM133.058 17.3722C134.337 17.3722 135.535 17.5217 136.663 17.8108L138.153 11.9988C136.511 11.5777 134.809 11.3722 133.058 11.3722V17.3722ZM136.669 17.8123C137.754 18.0882 138.656 18.4998 139.411 19.0227L142.827 14.0895C141.427 13.1209 139.856 12.4317 138.147 11.9973L136.669 17.8123ZM139.424 19.0314C140.113 19.5033 140.647 20.0976 141.049 20.8485L146.338 18.0166C145.486 16.4237 144.303 15.1004 142.814 14.0808L139.424 19.0314ZM141.055 20.8596C141.397 21.4916 141.635 22.3687 141.635 23.6051H147.635C147.635 21.5982 147.245 19.6935 146.332 18.0054L141.055 20.8596ZM141.635 23.6051V42H147.635V23.6051H141.635ZM144.635 39H137.461V45H144.635V39ZM140.461 42V38.218H134.461V42H140.461ZM137.461 35.218H137.248V41.218H137.461V35.218ZM134.58 36.8468C134.316 37.3607 133.962 37.8183 133.5 38.2288L137.481 42.7172C138.486 41.8256 139.305 40.7799 139.917 39.5892L134.58 36.8468ZM133.52 38.2108C133.102 38.5749 132.558 38.8999 131.838 39.1563L133.852 44.8082C135.192 44.3307 136.411 43.6495 137.461 42.7353L133.52 38.2108ZM131.867 39.1461C131.217 39.3704 130.369 39.5149 129.276 39.5149V45.5149C130.882 45.5149 132.413 45.3043 133.823 44.8184L131.867 39.1461ZM131.442 40.2947C132.955 40.2947 134.421 39.9947 135.761 39.3061L133.018 33.9695C132.654 34.1568 132.155 34.2947 131.442 34.2947V40.2947ZM135.79 39.2909C137.067 38.617 138.137 37.67 138.922 36.445L133.87 33.2084C133.684 33.4986 133.417 33.759 132.989 33.9846L135.79 39.2909ZM138.922 36.445C139.737 35.1722 140.124 33.7451 140.124 32.2521H134.124C134.124 32.6767 134.025 32.966 133.87 33.2084L138.922 36.445ZM140.124 32.2521V29.358H134.124V32.2521H140.124ZM135.489 26.8426C135.539 26.8102 135.551 26.8092 135.502 26.8303C135.456 26.8504 135.375 26.8823 135.248 26.9221L137.047 32.6461C137.597 32.473 138.206 32.2326 138.759 31.8733L135.489 26.8426ZM135.301 26.906C134.99 26.9973 134.614 27.0912 134.166 27.1851L135.395 33.0578C135.964 32.9386 136.499 32.8076 136.994 32.6622L135.301 26.906ZM134.231 27.1721C133.745 27.2626 133.258 27.3475 132.771 27.4268L133.735 33.3488C134.267 33.2623 134.798 33.1696 135.329 33.0708L134.231 27.1721ZM132.839 27.4166C132.327 27.4879 131.862 27.5535 131.444 27.6132L132.293 33.5529C132.703 33.4943 133.161 33.4297 133.668 33.359L132.839 27.4166ZM131.433 27.6149C130.348 27.774 129.312 28.0394 128.361 28.4471L130.724 33.962C131.099 33.8015 131.613 33.6526 132.304 33.5513L131.433 27.6149ZM128.361 28.4471C127.308 28.8984 126.34 29.577 125.605 30.5493L130.39 34.168C130.394 34.1628 130.41 34.1424 130.454 34.1095C130.501 34.075 130.584 34.0218 130.724 33.962L128.361 28.4471ZM125.626 30.5209C124.78 31.6133 124.447 32.8867 124.447 34.1342H130.447C130.447 34.0371 130.46 34.0157 130.45 34.046C130.446 34.0609 130.437 34.0843 130.422 34.113C130.407 34.1419 130.389 34.1703 130.369 34.1964L125.626 30.5209ZM124.447 34.1342C124.447 35.9943 125.18 37.7381 126.797 38.9186L130.335 34.0729C130.332 34.0705 130.348 34.0826 130.373 34.1123C130.399 34.1427 130.421 34.178 130.438 34.2127C130.454 34.2466 130.457 34.265 130.456 34.258C130.454 34.2497 130.447 34.211 130.447 34.1342H124.447ZM126.84 38.9498C128.218 39.9185 129.822 40.2947 131.442 40.2947V34.2947C130.743 34.2947 130.429 34.1383 130.291 34.0416L126.84 38.9498ZM155.616 40.7571L154.077 43.3323L154.086 43.3376L154.095 43.3429L155.616 40.7571ZM151 35.7855L148.32 37.1332L148.326 37.1451L151 35.7855ZM151.018 21.1193L148.35 19.7479L148.347 19.7537L151.018 21.1193ZM155.652 16.1655L157.18 18.7474L157.191 18.7406L155.652 16.1655ZM169.04 15.6683L170.346 12.9674L169.04 15.6683ZM173.283 19.3082L170.787 20.9723L173.283 19.3082ZM175.006 24.8125V27.8125H178.161L178.002 24.661L175.006 24.8125ZM167.868 24.8125L164.9 25.2512L165.279 27.8125H167.868V24.8125ZM166.27 21.5277L164.163 23.6638L164.178 23.6785L164.194 23.693L166.27 21.5277ZM159.842 21.2259L161.605 23.6535L161.611 23.6492L159.842 21.2259ZM157.8 32.8026L155.004 33.8886L155.008 33.9003L155.013 33.9121L157.8 32.8026ZM159.842 35.5902L161.611 33.1668L159.842 35.5902ZM165.24 36.0163L163.88 33.3422L163.871 33.3469L163.862 33.3517L165.24 36.0163ZM166.962 34.4716L164.473 32.7976L164.466 32.8075L166.962 34.4716ZM167.868 32.0036V29.0036H165.28L164.9 31.5639L167.868 32.0036ZM175.006 32.0036L178.001 32.1737L178.181 29.0036H175.006V32.0036ZM173.301 37.5078L170.776 35.8874L170.773 35.8923L173.301 37.5078ZM169.129 41.201L167.787 38.5177L169.129 41.201ZM162.825 39.5327C160.461 39.5327 158.606 39.0349 157.138 38.1713L154.095 43.3429C156.652 44.8467 159.602 45.5327 162.825 45.5327V39.5327ZM157.155 38.1819C155.651 37.2825 154.501 36.0513 153.674 34.426L148.326 37.1451C149.654 39.7574 151.581 41.8406 154.077 43.3323L157.155 38.1819ZM153.68 34.4379C152.857 32.8003 152.402 30.8365 152.402 28.4702H146.402C146.402 31.62 147.012 34.533 148.32 37.1331L153.68 34.4379ZM152.402 28.4702C152.402 26.066 152.864 24.0992 153.689 22.4849L148.347 19.7537C147.018 22.3535 146.402 25.2872 146.402 28.4702H152.402ZM153.686 22.4907C154.523 20.8615 155.679 19.6356 157.18 18.7473L154.124 13.5836C151.625 15.0628 149.69 17.1394 148.35 19.7479L153.686 22.4907ZM157.191 18.7406C158.647 17.8704 160.473 17.3722 162.79 17.3722V11.3722C159.59 11.3722 156.658 12.0695 154.113 13.5903L157.191 18.7406ZM162.79 17.3722C164.805 17.3722 166.427 17.7372 167.734 18.3693L170.346 12.9674C168.078 11.8712 165.533 11.3722 162.79 11.3722V17.3722ZM167.734 18.3693C169.068 19.0141 170.06 19.8813 170.787 20.9723L175.78 17.6441C174.424 15.6102 172.586 14.0508 170.346 12.9674L167.734 18.3693ZM170.787 20.9723C171.493 22.0313 171.927 23.3288 172.01 24.964L178.002 24.661C177.871 22.0822 177.157 19.7102 175.78 17.6441L170.787 20.9723ZM175.006 21.8125H167.868V27.8125H175.006V21.8125ZM170.836 24.3738C170.552 22.457 169.761 20.7189 168.346 19.3624L164.194 23.693C164.507 23.9937 164.781 24.4455 164.9 25.2512L170.836 24.3738ZM168.376 19.3916C166.874 17.9103 164.954 17.267 162.914 17.267V23.267C163.644 23.267 163.961 23.4642 164.163 23.6638L168.376 19.3916ZM162.914 17.267C161.161 17.267 159.506 17.7578 158.074 18.8025L161.611 23.6492C161.931 23.4155 162.324 23.267 162.914 23.267V17.267ZM158.08 18.7982C156.668 19.823 155.684 21.243 155.035 22.8591L160.602 25.0969C160.923 24.2982 161.288 23.8834 161.605 23.6535L158.08 18.7982ZM155.035 22.8591C154.369 24.5158 154.09 26.3797 154.09 28.3636H160.09C160.09 26.9148 160.297 25.8549 160.602 25.0969L155.035 22.8591ZM154.09 28.3636C154.09 30.3595 154.36 32.2295 155.004 33.8886L160.597 31.7165C160.294 30.9372 160.09 29.8479 160.09 28.3636H154.09ZM155.013 33.9121C155.663 35.5454 156.654 36.9771 158.074 38.0136L161.611 33.1668C161.279 32.9249 160.908 32.4981 160.588 31.6931L155.013 33.9121ZM158.074 38.0136C159.506 39.0582 161.161 39.549 162.914 39.549V33.549C162.324 33.549 161.931 33.4006 161.611 33.1668L158.074 38.0136ZM162.914 39.549C164.2 39.549 165.458 39.2814 166.618 38.681L163.862 33.3517C163.649 33.4615 163.356 33.549 162.914 33.549V39.549ZM166.6 38.6905C167.774 38.0935 168.733 37.2235 169.459 36.1357L164.466 32.8075C164.292 33.0692 164.103 33.229 163.88 33.3422L166.6 38.6905ZM169.452 36.1456C170.202 35.0299 170.639 33.7686 170.836 32.4432L164.9 31.5639C164.813 32.1561 164.646 32.5402 164.473 32.7976L169.452 36.1456ZM167.868 35.0036H175.006V29.0036H167.868V35.0036ZM172.011 31.8334C171.918 33.4574 171.486 34.7814 170.776 35.8874L175.826 39.1282C177.152 37.0619 177.856 34.7163 178.001 32.1737L172.011 31.8334ZM170.773 35.8923C170.077 36.9813 169.109 37.8565 167.787 38.5177L170.47 43.8843C172.699 42.77 174.513 41.183 175.829 39.1234L170.773 35.8923ZM167.787 38.5177C166.51 39.156 164.888 39.5327 162.825 39.5327V45.5327C165.616 45.5327 168.196 45.0216 170.47 43.8843L167.787 38.5177ZM194.355 14.7273H197.355V11.7273H194.355V14.7273ZM194.355 20.4091V23.4091H197.355V20.4091H194.355ZM177.931 20.4091H174.931V23.4091H177.931V20.4091ZM177.931 14.7273V11.7273H174.931V14.7273H177.931ZM181.66 8.19318V5.19318H178.66V8.19318H181.66ZM189.224 8.19318H192.224V5.19318H189.224V8.19318ZM189.543 35.2528L186.909 36.6894L186.919 36.7066L186.928 36.7236L189.543 35.2528ZM190.431 36.0518L189.302 38.8312L189.317 38.8372L189.331 38.8431L190.431 36.0518ZM192.846 36.1939L193.339 39.1531L193.387 39.1451L193.434 39.1356L192.846 36.1939ZM193.662 36.0341L196.598 35.4137L195.991 32.5452L193.11 33.0855L193.662 36.0341ZM194.852 41.6626L195.747 44.5261L198.352 43.7121L197.787 41.0423L194.852 41.6626ZM193.254 42.071L192.598 39.1437L192.574 39.149L192.55 39.1548L193.254 42.071ZM190.751 42.3729L190.642 39.3748L190.634 39.3751L190.751 42.3729ZM185.956 41.6449L184.822 44.4219L184.83 44.4253L185.956 41.6449ZM182.778 39.0526L185.298 37.4239L182.778 39.0526ZM181.66 34.6136L184.66 34.6335L184.66 34.6236V34.6136H181.66ZM191.355 14.7273V20.4091H197.355V14.7273H191.355ZM194.355 17.4091H177.931V23.4091H194.355V17.4091ZM180.931 20.4091V14.7273H174.931V20.4091H180.931ZM177.931 17.7273H194.355V11.7273H177.931V17.7273ZM181.66 11.1932H189.224V5.19318H181.66V11.1932ZM186.224 8.19318V33.6193H192.224V8.19318H186.224ZM186.224 33.6193C186.224 34.5609 186.357 35.6762 186.909 36.6894L192.177 33.8163C192.248 33.9472 192.256 34.0177 192.248 33.9755C192.24 33.9342 192.224 33.8223 192.224 33.6193H186.224ZM186.928 36.7236C187.452 37.6541 188.253 38.4051 189.302 38.8312L191.56 33.2724C191.684 33.3228 191.814 33.401 191.932 33.5068C192.048 33.611 192.119 33.713 192.158 33.7821L186.928 36.7236ZM189.331 38.8431C190.138 39.1608 190.973 39.2827 191.78 39.2827V33.2827C191.57 33.2827 191.505 33.2507 191.531 33.2606L189.331 38.8431ZM191.78 39.2827C192.303 39.2827 192.823 39.239 193.339 39.1531L192.353 33.2347C192.158 33.2671 191.968 33.2827 191.78 33.2827V39.2827ZM193.434 39.1356C193.786 39.0653 194.044 39.0149 194.215 38.9827L193.11 33.0855C192.902 33.1244 192.616 33.1804 192.257 33.2522L193.434 39.1356ZM190.727 36.6545L191.917 42.283L197.787 41.0423L196.598 35.4137L190.727 36.6545ZM193.957 38.7992C193.695 38.8812 193.255 38.9963 192.598 39.1437L193.91 44.9984C194.626 44.8379 195.252 44.6808 195.747 44.5261L193.957 38.7992ZM192.55 39.1548C192.118 39.2591 191.496 39.344 190.642 39.3748L190.859 45.3709C191.97 45.3307 193.017 45.2144 193.958 44.9873L192.55 39.1548ZM190.634 39.3751C189.14 39.4333 187.982 39.2285 187.083 38.8644L184.83 44.4253C186.678 45.174 188.715 45.4544 190.867 45.3706L190.634 39.3751ZM187.091 38.8679C186.266 38.5304 185.704 38.0517 185.298 37.4239L180.259 40.6813C181.368 42.3971 182.925 43.6466 184.822 44.4219L187.091 38.8679ZM185.298 37.4239C184.936 36.8639 184.651 35.9992 184.66 34.6335L178.66 34.5938C178.645 36.8029 179.106 38.8975 180.259 40.6813L185.298 37.4239ZM184.66 34.6136V8.19318H178.66V34.6136H184.66ZM204.174 40.8281L202.687 43.4338L202.696 43.439L202.705 43.4441L204.174 40.8281ZM199.522 35.9631L196.857 37.3405L196.86 37.3467L199.522 35.9631ZM199.522 21.1016L196.854 19.7302L199.522 21.1016ZM204.121 16.1477L202.586 13.5698L202.579 13.5739L204.121 16.1477ZM216.141 15.2422L215.09 18.0521L215.103 18.0569L215.116 18.0616L216.141 15.2422ZM220.225 17.8168L218.115 19.9489L218.12 19.9543L218.125 19.9596L220.225 17.8168ZM222.959 22.1491L220.15 23.2004L220.152 23.2067L222.959 22.1491ZM223.936 30.299V33.299H226.936V30.299H223.936ZM200.907 30.299H197.907V33.299H200.907V30.299ZM200.907 25.6115V22.6115H197.907V25.6115H200.907ZM216.816 25.6115V28.6115H219.816V25.6115H216.816ZM216.106 22.7173L213.492 24.1899V24.1899L216.106 22.7173ZM214.135 20.7464L212.619 23.3351L212.64 23.3478L212.662 23.3602L214.135 20.7464ZM208.187 20.8175L209.72 23.3961L209.73 23.3899L208.187 20.8175ZM206.127 22.9304L208.736 24.4112L208.74 24.4037L208.744 24.3962L206.127 22.9304ZM205.363 25.8601L202.364 25.8271L202.363 25.8436V25.8601H205.363ZM206.109 33.8146L203.432 35.1692L203.439 35.1819L203.445 35.1946L206.109 33.8146ZM213.851 36.5312L212.888 33.6901L213.851 36.5312ZM215.644 35.4659L213.575 33.2935L215.644 35.4659ZM216.78 33.7259L216.978 30.7324L214.763 30.5862L213.975 32.6619L216.78 33.7259ZM223.776 34.1875L226.711 34.8076L227.427 31.4219L223.974 31.194L223.776 34.1875ZM221.592 38.5909L219.337 36.6124L219.336 36.6139L221.592 38.5909ZM217.366 41.5028L218.48 44.2883L218.49 44.2843L217.366 41.5028ZM211.418 39.5327C209.02 39.5327 207.133 39.0491 205.642 38.2122L202.705 43.4441C205.263 44.8798 208.205 45.5327 211.418 45.5327V39.5327ZM205.661 38.2225C204.159 37.3659 203.012 36.1732 202.184 34.5795L196.86 37.3467C198.21 39.9433 200.164 41.9939 202.687 43.4338L205.661 38.2225ZM202.187 34.5856C201.36 32.9858 200.888 30.9859 200.888 28.4879H194.888C194.888 31.7428 195.506 34.7263 196.857 37.3405L202.187 34.5856ZM200.888 28.4879C200.888 26.075 201.355 24.0983 202.19 22.4729L196.854 19.7302C195.511 22.3425 194.888 25.29 194.888 28.4879H200.888ZM202.19 22.4729C203.032 20.8345 204.182 19.6074 205.662 18.7216L202.579 13.5739C200.105 15.0555 198.19 17.131 196.854 19.7302L202.19 22.4729ZM205.655 18.7256C207.111 17.8589 208.896 17.3722 211.116 17.3722V11.3722C207.986 11.3722 205.107 12.0692 202.586 13.5698L205.655 18.7256ZM211.116 17.3722C212.588 17.3722 213.904 17.6083 215.09 18.0521L217.192 12.4323C215.277 11.7161 213.243 11.3722 211.116 11.3722V17.3722ZM215.116 18.0616C216.279 18.4846 217.268 19.1113 218.115 19.9489L222.335 15.6846C220.862 14.2259 219.128 13.1362 217.166 12.4228L215.116 18.0616ZM218.125 19.9596C218.944 20.762 219.632 21.8172 220.15 23.2004L225.769 21.0979C224.985 19.001 223.849 17.1679 222.325 15.6739L218.125 19.9596ZM220.152 23.2067C220.648 24.5227 220.936 26.1739 220.936 28.2216H226.936C226.936 25.6291 226.573 23.2321 225.767 21.0916L220.152 23.2067ZM220.936 28.2216V30.299H226.936V28.2216H220.936ZM223.936 27.299H200.907V33.299H223.936V27.299ZM203.907 30.299V25.6115H197.907V30.299H203.907ZM200.907 28.6115H216.816V22.6115H200.907V28.6115ZM219.816 25.6115C219.816 24.0743 219.477 22.5902 218.719 21.2448L213.492 24.1899C213.681 24.5253 213.816 24.9707 213.816 25.6115H219.816ZM218.719 21.2448C217.977 19.9269 216.925 18.8752 215.607 18.1327L212.662 23.3602C213.025 23.5647 213.287 23.8269 213.492 24.1899L218.719 21.2448ZM215.651 18.1578C214.299 17.3657 212.795 17.0185 211.241 17.0185V23.0185C211.888 23.0185 212.314 23.1566 212.619 23.3351L215.651 18.1578ZM211.241 17.0185C209.61 17.0185 208.047 17.4028 206.643 18.245L209.73 23.3899C210.102 23.1668 210.575 23.0185 211.241 23.0185V17.0185ZM206.653 18.2389C205.325 19.0285 204.264 20.1163 203.509 21.4646L208.744 24.3962C208.984 23.9689 209.296 23.6481 209.72 23.3961L206.653 18.2389ZM203.518 21.4496C202.753 22.7979 202.381 24.2785 202.364 25.8271L208.363 25.893C208.37 25.2874 208.507 24.8148 208.736 24.4112L203.518 21.4496ZM202.363 25.8601V30.3168H208.363V25.8601H202.363ZM202.363 30.3168C202.363 32.0324 202.68 33.6826 203.432 35.1692L208.786 32.4601C208.544 31.9817 208.363 31.3 208.363 30.3168H202.363ZM203.445 35.1946C204.208 36.6658 205.319 37.8554 206.758 38.6859L209.757 33.4888C209.35 33.2539 209.029 32.9284 208.773 32.4346L203.445 35.1946ZM206.758 38.6859C208.217 39.5272 209.849 39.8864 211.542 39.8864V33.8864C210.703 33.8864 210.145 33.7129 209.757 33.4888L206.758 38.6859ZM211.542 39.8864C212.665 39.8864 213.765 39.7279 214.814 39.3724L212.888 33.6901C212.539 33.8081 212.1 33.8864 211.542 33.8864V39.8864ZM214.814 39.3724C215.894 39.0063 216.877 38.4343 217.713 37.6383L213.575 33.2935C213.416 33.4445 213.204 33.5827 212.888 33.6901L214.814 39.3724ZM217.713 37.6383C218.558 36.8339 219.177 35.8665 219.585 34.7898L213.975 32.6619C213.863 32.9583 213.725 33.151 213.575 33.2935L217.713 37.6383ZM216.583 36.7193L223.579 37.181L223.974 31.194L216.978 30.7324L216.583 36.7193ZM220.841 33.5674C220.589 34.76 220.088 35.7562 219.337 36.6124L223.847 40.5694C225.298 38.9161 226.253 36.9768 226.711 34.8076L220.841 33.5674ZM219.336 36.6139C218.594 37.4608 217.592 38.1761 216.242 38.7214L218.49 44.2843C220.598 43.4328 222.413 42.2068 223.849 40.5679L219.336 36.6139ZM216.252 38.7174C214.958 39.2351 213.366 39.5327 211.418 39.5327V45.5327C213.968 45.5327 216.342 45.1436 218.48 44.2883L216.252 38.7174ZM228.872 42H225.872V45H228.872V42ZM228.872 14.7273V11.7273H225.872V14.7273H228.872ZM236.205 14.7273H239.205V11.7273H236.205V14.7273ZM236.205 19.4858H233.205V22.4858H236.205V19.4858ZM236.489 19.4858V22.4858H238.735L239.368 20.3312L236.489 19.4858ZM238.993 15.6506L240.773 18.0651L240.781 18.0593L240.789 18.0535L238.993 15.6506ZM244.266 14.4077L244.589 11.425L244.589 11.425L244.266 14.4077ZM245.42 14.603H248.42V12.2606L246.148 11.6926L245.42 14.603ZM245.42 21.3146L244.558 24.1881L248.42 25.3467V21.3146H245.42ZM239.241 21.6342L240.683 24.2652L240.695 24.2584L239.241 21.6342ZM237.182 23.6229L234.606 22.0846L234.598 22.0979L234.59 22.1113L237.182 23.6229ZM236.436 42V45H239.436V42H236.436ZM231.872 42V14.7273H225.872V42H231.872ZM228.872 17.7273H236.205V11.7273H228.872V17.7273ZM233.205 14.7273V19.4858H239.205V14.7273H233.205ZM236.205 22.4858H236.489V16.4858H236.205V22.4858ZM239.368 20.3312C239.72 19.1307 240.233 18.4633 240.773 18.0651L237.212 13.236C235.409 14.566 234.252 16.4554 233.611 18.6404L239.368 20.3312ZM240.789 18.0535C241.418 17.5829 242.131 17.3366 243.041 17.3366V11.3366C240.897 11.3366 238.911 11.9663 237.197 13.2477L240.789 18.0535ZM243.041 17.3366C243.296 17.3366 243.596 17.3527 243.944 17.3903L244.589 11.425C244.06 11.3679 243.543 11.3366 243.041 11.3366V17.3366ZM243.944 17.3903C244.282 17.4269 244.526 17.4718 244.693 17.5134L246.148 11.6926C245.652 11.5685 245.126 11.4832 244.589 11.425L243.944 17.3903ZM242.42 14.603V21.3146H248.42V14.603H242.42ZM246.282 18.4412C245.704 18.2676 245.031 18.1478 244.339 18.0564L243.554 24.0047C244.116 24.079 244.427 24.1486 244.558 24.1881L246.282 18.4412ZM244.339 18.0564C243.608 17.9598 242.901 17.9062 242.224 17.9062V23.9062C242.589 23.9062 243.03 23.9355 243.554 24.0047L244.339 18.0564ZM242.224 17.9062C240.661 17.9062 239.156 18.2517 237.787 19.0101L240.695 24.2584C241.078 24.0461 241.563 23.9062 242.224 23.9062V17.9062ZM237.8 19.0033C236.463 19.7356 235.387 20.7773 234.606 22.0846L239.757 25.1611C239.994 24.7639 240.291 24.4799 240.683 24.2652L237.8 19.0033ZM234.59 22.1113C233.793 23.4787 233.436 24.9957 233.436 26.5703H239.436C239.436 25.9195 239.576 25.4716 239.773 25.1345L234.59 22.1113ZM233.436 26.5703V42H239.436V26.5703H233.436ZM236.436 39H228.872V45H236.436V39ZM272.023 22.5043L272.207 25.4986L275.418 25.301L274.997 22.1114L272.023 22.5043ZM265.098 22.9304L262.156 23.5187L262.67 26.0855L265.282 25.9247L265.098 22.9304ZM264.335 21.3324L261.997 23.2134L262.009 23.2275L262.02 23.2415L264.335 21.3324ZM262.79 20.1783L261.51 22.8916L261.54 22.906L261.571 22.9197L262.79 20.1783ZM257.57 20.4801L259.119 23.0493L259.132 23.041L259.146 23.0325L257.57 20.4801ZM257.143 24.0845L255.183 26.355V26.355L257.143 24.0845ZM259.825 25.1676L259.194 28.1006L259.213 28.1047L259.232 28.1085L259.825 25.1676ZM264.761 26.1619L265.364 23.2232L265.353 23.221L264.761 26.1619ZM270.691 28.7898L268.651 30.9896V30.9896L270.691 28.7898ZM271.064 38.2536L268.699 36.4074L268.694 36.4139L268.689 36.4204L271.064 38.2536ZM266.767 41.4141L267.909 44.1881L267.918 44.1844L266.767 41.4141ZM251.87 40.2777L250.131 42.7226L250.139 42.728L250.147 42.7335L251.87 40.2777ZM248.124 34.0987L247.966 31.1028L244.696 31.2746L245.153 34.5173L248.124 34.0987ZM255.563 33.7081L258.503 33.1076L257.985 30.5768L255.406 30.7122L255.563 33.7081ZM257.197 36.2294L255.525 38.7203L255.537 38.7282L255.549 38.7361L257.197 36.2294ZM263.713 36.3182L265.316 38.8538L265.326 38.8477L263.713 36.3182ZM264.956 34.3118L267.956 34.3553L267.956 34.3077L267.956 34.2601L264.956 34.3118ZM264.086 32.625L262.224 34.9771L262.239 34.9892L262.254 35.001L264.086 32.625ZM261.458 31.5952L262.046 28.6534L262.044 28.653L261.458 31.5952ZM256.735 30.6541L256.147 33.5959L256.149 33.5963L256.735 30.6541ZM250.787 27.8842L248.646 29.9862L248.656 29.9959L250.787 27.8842ZM250.272 18.3317L247.88 16.521L247.875 16.5281L247.869 16.5353L250.272 18.3317ZM254.303 15.402L253.201 12.6113L253.195 12.6139L254.303 15.402ZM268.543 16.5561L266.763 18.9716L266.77 18.9767L268.543 16.5561ZM271.838 19.5099L264.914 19.9361L265.282 25.9247L272.207 25.4986L271.838 19.5099ZM268.04 22.342C267.823 21.2564 267.349 20.2717 266.649 19.4232L262.02 23.2415C262.102 23.34 262.137 23.4207 262.156 23.5187L268.04 22.342ZM266.672 19.4514C265.947 18.5508 265.029 17.8906 264.008 17.4368L261.571 22.9197C261.829 23.0341 261.941 23.1433 261.997 23.2134L266.672 19.4514ZM264.07 17.465C262.951 16.9374 261.741 16.7344 260.535 16.7344V22.7344C261.081 22.7344 261.374 22.8273 261.51 22.8916L264.07 17.465ZM260.535 16.7344C258.939 16.7344 257.373 17.0754 255.993 17.9277L259.146 23.0325C259.376 22.8906 259.787 22.7344 260.535 22.7344V16.7344ZM256.021 17.911C254.476 18.8421 253.362 20.3896 253.362 22.4332H259.362C259.362 22.4775 259.356 22.5518 259.331 22.645C259.305 22.7395 259.265 22.8303 259.216 22.9099C259.116 23.072 259.033 23.101 259.119 23.0493L256.021 17.911ZM253.362 22.4332C253.362 24.0112 254.045 25.3723 255.183 26.355L259.104 21.8141C259.119 21.8268 259.199 21.9024 259.269 22.0513C259.342 22.2046 259.362 22.3463 259.362 22.4332H253.362ZM255.183 26.355C256.291 27.3121 257.799 27.8007 259.194 28.1006L260.455 22.2346C259.937 22.1232 259.571 22.0094 259.328 21.911C259.074 21.8083 259.038 21.7567 259.104 21.814L255.183 26.355ZM259.232 28.1085L264.168 29.1029L265.353 23.221L260.417 22.2267L259.232 28.1085ZM264.157 29.1006C266.532 29.5882 267.91 30.3019 268.651 30.9896L272.731 26.59C270.868 24.8629 268.293 23.8247 265.364 23.2233L264.157 29.1006ZM268.651 30.9896C269.272 31.5654 269.644 32.3195 269.644 33.5483H275.644C275.644 30.8472 274.714 28.4289 272.731 26.59L268.651 30.9896ZM269.644 33.5483C269.644 34.6984 269.322 35.6098 268.699 36.4074L273.429 40.0997C274.913 38.1985 275.644 35.973 275.644 33.5483H269.644ZM268.689 36.4204C268.014 37.2948 267.033 38.0547 265.616 38.6438L267.918 44.1844C270.147 43.2583 272.03 41.9111 273.439 40.0867L268.689 36.4204ZM265.625 38.64C264.243 39.2089 262.555 39.5327 260.499 39.5327V45.5327C263.179 45.5327 265.669 45.1107 267.909 44.1881L265.625 38.64ZM260.499 39.5327C257.278 39.5327 255.072 38.8595 253.593 37.8219L250.147 42.7335C252.953 44.7025 256.5 45.5327 260.499 45.5327V39.5327ZM253.609 37.8328C252.154 36.7984 251.347 35.4738 251.094 33.6801L245.153 34.5173C245.634 37.932 247.325 40.7267 250.131 42.7226L253.609 37.8328ZM248.281 37.0946L255.721 36.704L255.406 30.7122L247.966 31.1028L248.281 37.0946ZM252.624 34.3086C252.993 36.1138 253.951 37.664 255.525 38.7203L258.869 33.7385C258.714 33.6348 258.583 33.5041 258.503 33.1076L252.624 34.3086ZM255.549 38.7361C257.031 39.7108 258.758 40.0817 260.517 40.0817V34.0817C259.577 34.0817 259.091 33.8843 258.845 33.7227L255.549 38.7361ZM260.517 40.0817C262.197 40.0817 263.879 39.763 265.316 38.8538L262.11 33.7826C261.938 33.8913 261.489 34.0817 260.517 34.0817V40.0817ZM265.326 38.8477C266.811 37.9008 267.926 36.3804 267.956 34.3553L261.956 34.2683C261.957 34.2224 261.964 34.1528 261.988 34.0694C262.012 33.9853 262.047 33.909 262.086 33.8461C262.165 33.7195 262.215 33.7156 262.1 33.7887L265.326 38.8477ZM267.956 34.2601C267.927 32.6152 267.171 31.215 265.917 30.249L262.254 35.001C262.237 34.9876 262.145 34.9093 262.063 34.7504C261.979 34.5876 261.958 34.4411 261.956 34.3635L267.956 34.2601ZM265.948 30.2729C264.839 29.3945 263.423 28.9288 262.046 28.6534L260.87 34.5369C261.335 34.6299 261.673 34.7311 261.908 34.8234C262.148 34.9172 262.23 34.9818 262.224 34.9771L265.948 30.2729ZM262.044 28.653L257.321 27.712L256.149 33.5963L260.872 34.5373L262.044 28.653ZM257.323 27.7124C254.986 27.2449 253.646 26.507 252.918 25.7725L248.656 29.9959C250.532 31.8893 253.158 32.998 256.147 33.5959L257.323 27.7124ZM252.927 25.7823C252.249 25.091 251.852 24.2 251.852 22.8594H245.852C245.852 25.5907 246.745 28.0497 248.646 29.9862L252.927 25.7823ZM251.852 22.8594C251.852 21.6816 252.157 20.8201 252.675 20.1281L247.869 16.5353C246.493 18.3764 245.852 20.5334 245.852 22.8594H251.852ZM252.664 20.1424C253.239 19.3826 254.103 18.7092 255.41 18.19L253.195 12.6139C251.045 13.4679 249.223 14.7476 247.88 16.521L252.664 20.1424ZM255.404 18.1926C256.718 17.6739 258.366 17.3722 260.411 17.3722V11.3722C257.791 11.3722 255.367 11.757 253.201 12.6114L255.404 18.1926ZM260.411 17.3722C263.466 17.3722 265.473 18.0212 266.764 18.9716L270.322 14.1406C267.659 12.1791 264.244 11.3722 260.411 11.3722V17.3722ZM266.77 18.9767C268.079 19.9345 268.821 21.1745 269.049 22.8971L274.997 22.1114C274.562 18.8151 272.984 16.0896 270.315 14.1355L266.77 18.9767ZM293.631 41.1832L294.959 38.493V38.493L293.631 41.1832ZM289.423 37.5256L286.88 39.1173L286.888 39.1287L286.895 39.14L289.423 37.5256ZM291.199 25.5227L293.214 27.7449L293.221 27.7385L293.228 27.7321L291.199 25.5227ZM294.75 22.7351L293.102 20.2283L293.079 20.2435L293.056 20.2592L294.75 22.7351ZM301.799 18.1009L300.188 15.5699L300.17 15.5818L300.151 15.5941L301.799 18.1009ZM303.805 16.272L306.302 17.9361L306.309 17.9256L306.315 17.915L303.805 16.272ZM303.575 12.1527L305.758 10.0953V10.0953L303.575 12.1527ZM301.107 11.2472V14.2472H301.123L301.14 14.247L301.107 11.2472ZM299.26 11.7266L300.786 14.3093L300.808 14.2966L300.829 14.2835L299.26 11.7266ZM298.035 12.9517L295.441 11.4438L295.436 11.4535L295.43 11.4633L298.035 12.9517ZM298.248 16.929L300.882 15.4924L298.248 16.929ZM299.952 19.4148L297.622 21.3042L297.628 21.3119L297.635 21.3197L299.952 19.4148ZM302.278 22.2202L299.976 24.1434L299.996 24.1676L300.017 24.1914L302.278 22.2202ZM319.519 42V45H326.114L321.781 40.0288L319.519 42ZM311.636 42L309.404 44.0044L310.298 45H311.636V42ZM297.254 25.9844L295 27.9651L295.011 27.977L295.021 27.9888L297.254 25.9844ZM294.413 22.6108L292.059 24.4705L292.069 24.4835L292.079 24.4964L294.413 22.6108ZM292.069 18.8466L289.353 20.1205L289.357 20.1298L292.069 18.8466ZM292.353 9.73792L289.767 8.21686L289.762 8.22497L289.758 8.2331L292.353 9.73792ZM295.833 6.39986L297.274 9.03115L297.282 9.02676L297.29 9.02233L295.833 6.39986ZM306.078 6.34659L304.606 8.96073L304.619 8.96805L304.632 8.97524L306.078 6.34659ZM309.345 9.47159L306.752 10.9803L306.76 10.9942L306.769 11.0081L309.345 9.47159ZM309.221 18.4027L306.66 16.8401L306.656 16.8463L309.221 18.4027ZM305.67 22.1314L307.423 24.5659L307.424 24.5649L305.67 22.1314ZM298.248 27.4759L296.495 25.0414L296.487 25.0467L296.48 25.0521L298.248 27.4759ZM296.011 29.7308L293.473 28.1303L293.467 28.1408L296.011 29.7308ZM295.94 34.2408L293.391 35.8229L295.94 34.2408ZM297.751 35.8743L296.377 38.5412L296.393 38.5495L296.409 38.5576L297.751 35.8743ZM304.285 35.5902L305.553 38.3088L305.565 38.3035L304.285 35.5902ZM307.694 33.0866L305.514 31.0254L305.514 31.0261L307.694 33.0866ZM310.162 29.2159L312.935 30.3604L310.162 29.2159ZM311.085 24.2621V21.2621H308.085V24.2621H311.085ZM317.353 24.2621H320.353V21.2621H317.353V24.2621ZM316.625 30.2812L319.519 31.0722L319.52 31.0674L316.625 30.2812ZM314.601 34.9332L317.107 36.5817L317.114 36.5714L314.601 34.9332ZM311.636 38.1648L313.241 40.6992L313.345 40.6331L313.444 40.5586L311.636 38.1648ZM310.606 38.804L312.163 41.3683L310.606 38.804ZM309.576 39.4432L307.971 36.9087L307.826 37.0007L307.692 37.1086L309.576 39.4432ZM305.048 41.8047L304.211 38.924L304.205 38.9256L305.048 41.8047ZM300.13 39.5327C297.975 39.5327 296.284 39.1467 294.959 38.493L292.304 43.8735C294.625 45.019 297.266 45.5327 300.13 45.5327V39.5327ZM294.959 38.493C293.57 37.8074 292.607 36.9375 291.952 35.9112L286.895 39.14C288.204 41.1913 290.047 42.7598 292.304 43.8735L294.959 38.493ZM291.966 35.9338C291.307 34.8808 290.967 33.7084 290.967 32.3409H284.967C284.967 34.785 285.598 37.069 286.88 39.1173L291.966 35.9338ZM290.967 32.3409C290.967 31.3286 291.167 30.5517 291.485 29.9349L286.154 27.183C285.336 28.7679 284.967 30.5123 284.967 32.3409H290.967ZM291.485 29.9349C291.872 29.1857 292.433 28.4535 293.214 27.7449L289.183 23.3006C287.929 24.4385 286.903 25.7305 286.154 27.183L291.485 29.9349ZM293.228 27.7321C294.124 26.9093 295.192 26.0677 296.444 25.211L293.056 20.2592C291.609 21.2491 290.31 22.2659 289.169 23.3134L293.228 27.7321ZM296.398 25.2419L303.447 20.6076L300.151 15.5941L293.102 20.2283L296.398 25.2419ZM303.41 20.6318C304.54 19.9124 305.57 19.0337 306.302 17.9361L301.309 14.6079C301.189 14.7887 300.881 15.1293 300.188 15.5699L303.41 20.6318ZM306.315 17.915C307.052 16.7896 307.445 15.5168 307.445 14.1591H301.445C301.445 14.3165 301.411 14.4523 301.295 14.629L306.315 17.915ZM307.445 14.1591C307.445 12.5428 306.766 11.1656 305.758 10.0953L301.391 14.2101C301.48 14.3048 301.488 14.3404 301.475 14.3094C301.468 14.2946 301.46 14.2707 301.453 14.2399C301.447 14.209 301.445 14.1809 301.445 14.1591H307.445ZM305.758 10.0953C304.461 8.71902 302.744 8.22878 301.073 8.24734L301.14 14.247C301.385 14.2443 301.484 14.2793 301.489 14.2811C301.491 14.2817 301.476 14.2761 301.452 14.2606C301.428 14.2448 301.407 14.2265 301.391 14.2101L305.758 10.0953ZM301.107 8.24716C299.934 8.24716 298.756 8.51598 297.691 9.16959L300.829 14.2835C300.829 14.2835 300.83 14.2826 300.834 14.2809C300.839 14.2792 300.848 14.2753 300.866 14.2708C300.901 14.2617 300.977 14.2472 301.107 14.2472V8.24716ZM297.734 9.14378C296.784 9.70515 296.002 10.4786 295.441 11.4438L300.628 14.4596C300.659 14.4068 300.694 14.3635 300.786 14.3093L297.734 9.14378ZM295.43 11.4633C294.868 12.4476 294.609 13.5236 294.609 14.6207H300.609C300.609 14.4869 300.634 14.4501 300.64 14.4401L295.43 11.4633ZM294.609 14.6207C294.609 15.9614 294.99 17.2208 295.614 18.3655L300.882 15.4924C300.654 15.0746 300.609 14.7952 300.609 14.6207H294.609ZM295.614 18.3655C296.147 19.3423 296.826 20.3223 297.622 21.3042L302.283 17.5254C301.658 16.7553 301.201 16.0781 300.882 15.4924L295.614 18.3655ZM297.635 21.3197C298.351 22.1908 299.131 23.1321 299.976 24.1434L304.581 20.297C303.745 19.2959 302.974 18.3669 302.27 17.5099L297.635 21.3197ZM300.017 24.1914L317.258 43.9712L321.781 40.0288L304.54 20.249L300.017 24.1914ZM319.519 39H311.636V45H319.519V39ZM313.868 39.9956L299.486 23.9799L295.021 27.9888L309.404 44.0044L313.868 39.9956ZM299.507 24.0036C298.588 22.9591 297.668 21.8664 296.746 20.7252L292.079 24.4964C293.051 25.6989 294.025 26.8553 295 27.9651L299.507 24.0036ZM296.767 20.7511C295.968 19.7403 295.308 18.6783 294.781 17.5634L289.357 20.1298C290.084 21.6664 290.987 23.1138 292.059 24.4705L296.767 20.7511ZM294.785 17.5727C294.355 16.6566 294.128 15.6445 294.128 14.4964H288.128C288.128 16.4734 288.528 18.3614 289.353 20.1205L294.785 17.5727ZM294.128 14.4964C294.128 13.2158 294.418 12.1565 294.948 11.2428L289.758 8.2331C288.654 10.1366 288.128 12.2496 288.128 14.4964H294.128ZM294.939 11.259C295.482 10.3363 296.237 9.59892 297.274 9.03115L294.392 3.76857C292.446 4.83432 290.882 6.32227 289.767 8.21686L294.939 11.259ZM297.29 9.02233C298.267 8.47955 299.49 8.15696 301.053 8.15696V2.15696C298.64 2.15696 296.382 2.66297 294.376 3.77738L297.29 9.02233ZM301.053 8.15696C302.582 8.15696 303.729 8.46693 304.606 8.96073L307.55 3.73245C305.61 2.64008 303.407 2.15696 301.053 2.15696V8.15696ZM304.632 8.97524C305.614 9.51488 306.289 10.1845 306.752 10.9803L311.938 7.96291C310.886 6.15452 309.384 4.7408 307.524 3.71794L304.632 8.97524ZM306.769 11.0081C307.252 11.8183 307.499 12.705 307.499 13.733H313.499C313.499 11.6596 312.978 9.70539 311.922 7.93506L306.769 11.0081ZM307.499 13.733C307.499 14.9263 307.211 15.9375 306.66 16.8401L311.782 19.9653C312.936 18.0744 313.499 15.9724 313.499 13.733H307.499ZM306.656 16.8463C306.055 17.8364 305.168 18.7945 303.915 19.6979L307.424 24.5649C309.225 23.2666 310.706 21.7388 311.786 19.9591L306.656 16.8463ZM303.917 19.6969L296.495 25.0414L300.001 29.9103L307.423 24.5659L303.917 19.6969ZM296.48 25.0521C295.273 25.9323 294.22 26.9458 293.473 28.1303L298.548 31.3313C298.772 30.977 299.21 30.4872 300.016 29.8996L296.48 25.0521ZM293.467 28.1408C292.777 29.2437 292.3 30.517 292.3 31.9148H298.3C298.3 31.9094 298.301 31.8658 298.331 31.7728C298.362 31.6761 298.427 31.5258 298.555 31.3208L293.467 28.1408ZM292.3 31.9148C292.3 33.2976 292.649 34.6281 293.391 35.8229L298.489 32.6587C298.378 32.4804 298.3 32.2602 298.3 31.9148H292.3ZM293.391 35.8229C294.128 37.0107 295.157 37.9126 296.377 38.5412L299.125 33.2074C298.782 33.031 298.604 32.8439 298.489 32.6587L293.391 35.8229ZM296.409 38.5576C297.684 39.1951 299.078 39.4602 300.503 39.4602V33.4602C299.82 33.4602 299.38 33.3347 299.092 33.191L296.409 38.5576ZM300.503 39.4602C302.251 39.4602 303.943 39.0604 305.553 38.3087L303.016 32.8717C302.141 33.28 301.311 33.4602 300.503 33.4602V39.4602ZM305.565 38.3035C307.18 37.5415 308.617 36.4775 309.874 35.1472L305.514 31.0261C304.735 31.8502 303.899 32.4552 303.005 32.8769L305.565 38.3035ZM309.874 35.1479C311.174 33.7724 312.19 32.1651 312.935 30.3604L307.389 28.0714C306.903 29.2497 306.273 30.2229 305.514 31.0254L309.874 35.1479ZM312.935 30.3604C313.718 28.4641 314.085 26.4178 314.085 24.2621H308.085C308.085 25.7285 307.837 26.9848 307.389 28.0714L312.935 30.3604ZM311.085 27.2621H317.353V21.2621H311.085V27.2621ZM314.353 24.2621C314.353 26.2734 314.133 28.0093 313.73 29.4951L319.52 31.0674C320.087 28.9784 320.353 26.7015 320.353 24.2621H314.353ZM313.731 29.4903C313.315 31.0133 312.757 32.2688 312.088 33.2951L317.114 36.5714C318.173 34.9461 318.965 33.1003 319.519 31.0722L313.731 29.4903ZM312.094 33.2848C311.395 34.3484 310.634 35.1618 309.828 35.7709L313.444 40.5586C314.863 39.4869 316.079 38.1459 317.107 36.5817L312.094 33.2848ZM310.03 35.6303C309.69 35.8459 309.363 36.049 309.049 36.2396L312.163 41.3683C312.512 41.1565 312.871 40.9334 313.241 40.6992L310.03 35.6303ZM309.049 36.2396C308.7 36.4514 308.341 36.6745 307.971 36.9087L311.181 41.9776C311.522 41.762 311.849 41.559 312.163 41.3683L309.049 36.2396ZM307.692 37.1086C306.652 37.9475 305.499 38.5493 304.211 38.924L305.886 44.6854C307.936 44.0894 309.801 43.1169 311.46 41.7778L307.692 37.1086ZM304.205 38.9256C302.804 39.3359 301.448 39.5327 300.13 39.5327V45.5327C302.055 45.5327 303.978 45.2441 305.891 44.6838L304.205 38.9256ZM334.385 5.63636V2.63636H331.385V5.63636H334.385ZM343.867 5.63636L346.643 4.49858L345.879 2.63636H343.867V5.63636ZM353.881 30.0682L351.105 31.206L351.868 33.0682H353.881V30.0682ZM354.307 30.0682V33.0682H356.32L357.083 31.206L354.307 30.0682ZM364.321 5.63636V2.63636H362.309L361.545 4.49858L364.321 5.63636ZM373.803 5.63636H376.803V2.63636H373.803V5.63636ZM373.803 42V45H376.803V42H373.803ZM366.345 42H363.345V45H366.345V42ZM366.345 18.3317H369.345V15.3317H366.345V18.3317ZM366.044 18.3317V15.3317H364.014L363.259 17.2161L366.044 18.3317ZM356.633 41.8224V44.8224H358.663L359.418 42.9381L356.633 41.8224ZM351.555 41.8224L348.769 42.9344L349.522 44.8224H351.555V41.8224ZM342.144 18.2429L344.931 17.1309L344.177 15.2429H342.144V18.2429ZM341.842 18.2429V15.2429H338.842V18.2429H341.842ZM341.842 42V45H344.842V42H341.842ZM334.385 42H331.385V45H334.385V42ZM334.385 8.63636H343.867V2.63636H334.385V8.63636ZM341.091 6.77415L351.105 31.206L356.657 28.9304L346.643 4.49858L341.091 6.77415ZM353.881 33.0682H354.307V27.0682H353.881V33.0682ZM357.083 31.206L367.097 6.77415L361.545 4.49858L351.531 28.9304L357.083 31.206ZM364.321 8.63636H373.803V2.63636H364.321V8.63636ZM370.803 5.63636V42H376.803V5.63636H370.803ZM373.803 39H366.345V45H373.803V39ZM369.345 42V18.3317H363.345V42H369.345ZM366.345 15.3317H366.044V21.3317H366.345V15.3317ZM363.259 17.2161L353.848 40.7068L359.418 42.9381L368.828 19.4473L363.259 17.2161ZM356.633 38.8224H351.555V44.8224H356.633V38.8224ZM354.341 40.7104L344.931 17.1309L339.358 19.3549L348.769 42.9344L354.341 40.7104ZM342.144 15.2429H341.842V21.2429H342.144V15.2429ZM338.842 18.2429V42H344.842V18.2429H338.842ZM341.842 39H334.385V45H341.842V39ZM337.385 42V5.63636H331.385V42H337.385ZM385.162 40.7749L383.634 43.3567L383.643 43.362L383.652 43.3673L385.162 40.7749ZM380.528 35.8388L377.859 37.2102L377.863 37.2162L380.528 35.8388ZM380.528 21.0838L383.193 22.4613L383.196 22.4552L380.528 21.0838ZM385.162 16.1477L386.678 18.7363L386.683 18.7335L385.162 16.1477ZM399.455 16.1477L397.928 18.7296L397.937 18.7349L397.946 18.7402L399.455 16.1477ZM404.107 21.0838L401.439 22.4552L401.442 22.4613L404.107 21.0838ZM404.107 35.8388L406.772 37.2162L406.775 37.2102L404.107 35.8388ZM399.455 40.7749L400.972 43.3634L400.976 43.3607L399.455 40.7749ZM395.496 35.608L397.432 37.8993L397.441 37.8914L397.451 37.8835L395.496 35.608ZM397.396 32.6605L394.566 31.6635L394.562 31.6755L394.558 31.6875L397.396 32.6605ZM397.396 24.1733L394.558 25.1463L394.562 25.1583L394.566 25.1703L397.396 24.1733ZM389.157 21.2259L387.233 18.9238L387.225 18.9303L387.218 18.9369L389.157 21.2259ZM387.222 24.1733L384.392 23.1762L384.388 23.1883L384.384 23.2003L387.222 24.1733ZM387.222 32.6605L384.384 33.6335L384.388 33.6455L384.392 33.6576L387.222 32.6605ZM389.157 35.608L387.218 37.8969L387.235 37.9114L387.252 37.9256L389.157 35.608ZM392.317 39.5327C389.991 39.5327 388.147 39.0419 386.672 38.1824L383.652 43.3673C386.201 44.8516 389.127 45.5327 392.317 45.5327V39.5327ZM386.69 38.193C385.184 37.3022 384.029 36.0788 383.193 34.4613L377.863 37.2162C379.205 39.8127 381.139 41.8801 383.634 43.3567L386.69 38.193ZM383.196 34.4674C382.36 32.8404 381.894 30.869 381.894 28.4702H375.894C375.894 31.6585 376.518 34.5995 377.859 37.2101L383.196 34.4674ZM381.894 28.4702C381.894 26.0427 382.362 24.0694 383.193 22.4613L377.863 19.7064C376.516 22.3122 375.894 25.2632 375.894 28.4702H381.894ZM383.196 22.4552C384.032 20.8285 385.184 19.6118 386.678 18.7363L383.646 13.5592C381.139 15.0274 379.201 17.1014 377.859 19.7124L383.196 22.4552ZM386.683 18.7335C388.157 17.8666 389.997 17.3722 392.317 17.3722V11.3722C389.122 11.3722 386.192 12.0614 383.641 13.5619L386.683 18.7335ZM392.317 17.3722C394.639 17.3722 396.469 17.8668 397.928 18.7296L400.983 13.5659C398.44 12.0612 395.512 11.3722 392.317 11.3722V17.3722ZM397.946 18.7402C399.451 19.617 400.605 20.8332 401.439 22.4552L406.775 19.7124C405.431 17.0968 403.484 15.0222 400.965 13.5553L397.946 18.7402ZM401.442 22.4613C402.273 24.0694 402.741 26.0427 402.741 28.4702H408.741C408.741 25.2632 408.119 22.3122 406.772 19.7064L401.442 22.4613ZM402.741 28.4702C402.741 30.869 402.275 32.8404 401.439 34.4674L406.775 37.2102C408.117 34.5995 408.741 31.6585 408.741 28.4702H402.741ZM401.442 34.4613C400.609 36.0742 399.451 37.297 397.934 38.1891L400.976 43.3607C403.484 41.8853 405.428 39.8174 406.772 37.2162L401.442 34.4613ZM397.939 38.1863C396.479 39.0417 394.644 39.5327 392.317 39.5327V45.5327C395.507 45.5327 398.431 44.8518 400.972 43.3634L397.939 38.1863ZM392.353 39.6733C394.211 39.6733 395.975 39.1309 397.432 37.8993L393.559 33.3166C393.336 33.5054 393.004 33.6733 392.353 33.6733V39.6733ZM397.451 37.8835C398.766 36.7538 399.667 35.287 400.233 33.6335L394.558 31.6875C394.272 32.5199 393.907 33.018 393.541 33.3325L397.451 37.8835ZM400.225 33.6576C400.796 32.0367 401.053 30.2756 401.053 28.4169H395.053C395.053 29.7306 394.871 30.7986 394.566 31.6635L400.225 33.6576ZM401.053 28.4169C401.053 26.5582 400.796 24.7971 400.225 23.1762L394.566 25.1703C394.871 26.0352 395.053 27.1032 395.053 28.4169H401.053ZM400.233 23.2003C399.667 21.5468 398.766 20.08 397.451 18.9503L393.541 23.5014C393.907 23.8158 394.272 24.3139 394.558 25.1463L400.233 23.2003ZM397.451 18.9503C395.994 17.6989 394.224 17.1428 392.353 17.1428V23.1428C392.992 23.1428 393.316 23.3087 393.541 23.5014L397.451 18.9503ZM392.353 17.1428C390.477 17.1428 388.705 17.6944 387.233 18.9238L391.081 23.5279C391.338 23.3132 391.696 23.1428 392.353 23.1428V17.1428ZM387.218 18.9369C385.892 20.0604 384.975 21.5223 384.392 23.1762L390.051 25.1703C390.344 24.3385 390.718 23.8355 391.096 23.5148L387.218 18.9369ZM384.384 23.2003C383.831 24.8136 383.582 26.5661 383.582 28.4169H389.582C389.582 27.0954 389.76 26.0188 390.059 25.1463L384.384 23.2003ZM383.582 28.4169C383.582 30.2677 383.831 32.0202 384.384 33.6335L390.059 31.6875C389.76 30.815 389.582 29.7384 389.582 28.4169H383.582ZM384.392 33.6576C384.975 35.3115 385.892 36.7734 387.218 37.8969L391.096 33.319C390.718 32.9983 390.344 32.4953 390.051 31.6635L384.392 33.6576ZM387.252 37.9256C388.724 39.1351 390.489 39.6733 392.353 39.6733V33.6733C391.684 33.6733 391.318 33.5013 391.062 33.2903L387.252 37.9256ZM435.206 14.7273L438.038 15.7173L439.433 11.7273H435.206V14.7273ZM425.672 42V45H427.801L428.503 42.9901L425.672 42ZM417.149 42L414.317 42.9901L415.02 45H417.149V42ZM407.614 14.7273V11.7273H403.387L404.782 15.7173L407.614 14.7273ZM415.604 14.7273L418.485 13.891L417.857 11.7273H415.604V14.7273ZM421.268 34.2408L418.387 35.077L419.015 37.2408H421.268V34.2408ZM421.552 34.2408V37.2408H423.807L424.434 35.0746L421.552 34.2408ZM427.199 14.7273V11.7273H424.944L424.317 13.8934L427.199 14.7273ZM432.374 13.7372L422.84 41.0099L428.503 42.9901L438.038 15.7173L432.374 13.7372ZM425.672 39H417.149V45H425.672V39ZM419.981 41.0099L410.446 13.7372L404.782 15.7173L414.317 42.9901L419.981 41.0099ZM407.614 17.7273H415.604V11.7273H407.614V17.7273ZM412.723 15.5635L418.387 35.077L424.149 33.4045L418.485 13.891L412.723 15.5635ZM421.268 37.2408H421.552V31.2408H421.268V37.2408ZM424.434 35.0746L430.08 15.5611L424.317 13.8934L418.67 33.4069L424.434 35.0746ZM427.199 17.7273H435.206V11.7273H427.199V17.7273ZM439.077 42H436.077V45H439.077V42ZM439.077 14.7273V11.7273H436.077V14.7273H439.077ZM446.641 14.7273H449.641V11.7273H446.641V14.7273ZM446.641 42V45H449.641V42H446.641ZM439.983 10.093L437.91 12.2624L437.927 12.2782L437.944 12.2937L439.983 10.093ZM439.983 4.69531L442.038 6.88087L442.039 6.87991L439.983 4.69531ZM445.753 4.69531L443.681 6.86464L443.698 6.88045L443.714 6.896L445.753 4.69531ZM445.753 10.093L447.808 12.2786L447.809 12.2776L445.753 10.093ZM442.077 42V14.7273H436.077V42H442.077ZM439.077 17.7273H446.641V11.7273H439.077V17.7273ZM443.641 14.7273V42H449.641V14.7273H443.641ZM446.641 39H439.077V45H446.641V39ZM442.877 8.21165C442.488 8.21165 442.257 8.1103 442.021 7.89235L437.944 12.2937C439.318 13.5672 441.017 14.2116 442.877 14.2116V8.21165ZM442.055 7.92371C441.827 7.70605 441.793 7.57338 441.793 7.37642H435.793C435.793 9.28646 436.552 10.9649 437.91 12.2624L442.055 7.92371ZM441.793 7.37642C441.793 7.2035 441.817 7.0884 442.038 6.88087L437.928 2.50975C436.562 3.7937 435.793 5.466 435.793 7.37642H441.793ZM442.039 6.87991C442.276 6.6561 442.502 6.55895 442.877 6.55895V0.558947C441.003 0.558947 439.299 1.21937 437.927 2.51071L442.039 6.87991ZM442.877 6.55895C443.251 6.55895 443.462 6.65504 443.681 6.86464L447.825 2.52598C446.459 1.22043 444.751 0.558947 442.877 0.558947V6.55895ZM443.714 6.896C443.943 7.10811 443.961 7.21906 443.961 7.37642H449.961C449.961 5.45045 449.173 3.77399 447.792 2.49463L443.714 6.896ZM443.961 7.37642C443.961 7.55805 443.933 7.68642 443.697 7.90844L447.809 12.2776C449.183 10.9845 449.961 9.30179 449.961 7.37642H443.961ZM443.698 7.90748C443.481 8.11126 443.265 8.21165 442.877 8.21165V14.2116C444.737 14.2116 446.439 13.5663 447.808 12.2786L443.698 7.90748ZM457.885 40.8281L456.398 43.4338L456.407 43.439L456.416 43.4441L457.885 40.8281ZM453.233 35.9631L450.568 37.3405L450.571 37.3467L453.233 35.9631ZM453.233 21.1016L450.565 19.7302L453.233 21.1016ZM457.832 16.1477L456.297 13.5698L456.29 13.5739L457.832 16.1477ZM469.852 15.2422L468.801 18.0521L468.814 18.0569L468.827 18.0616L469.852 15.2422ZM473.936 17.8168L471.826 19.9489L471.831 19.9543L471.836 19.9596L473.936 17.8168ZM476.67 22.1491L473.861 23.2004L473.863 23.2067L476.67 22.1491ZM477.647 30.299V33.299H480.647V30.299H477.647ZM454.618 30.299H451.618V33.299H454.618V30.299ZM454.618 25.6115V22.6115H451.618V25.6115H454.618ZM470.527 25.6115V28.6115H473.527V25.6115H470.527ZM469.817 22.7173L467.203 24.1899V24.1899L469.817 22.7173ZM467.846 20.7464L466.329 23.3351L466.351 23.3478L466.373 23.3602L467.846 20.7464ZM461.898 20.8175L463.431 23.3961L463.441 23.3899L461.898 20.8175ZM459.838 22.9304L462.447 24.4112L462.451 24.4037L462.455 24.3962L459.838 22.9304ZM459.074 25.8601L456.075 25.8271L456.074 25.8436V25.8601H459.074ZM459.82 33.8146L457.143 35.1692L457.15 35.1819L457.156 35.1946L459.82 33.8146ZM467.562 36.5312L466.598 33.6901L467.562 36.5312ZM469.355 35.4659L467.286 33.2935L469.355 35.4659ZM470.491 33.7259L470.689 30.7324L468.474 30.5862L467.686 32.6619L470.491 33.7259ZM477.487 34.1875L480.422 34.8076L481.138 31.4219L477.685 31.194L477.487 34.1875ZM475.303 38.5909L473.048 36.6124L473.047 36.6139L475.303 38.5909ZM471.077 41.5028L472.191 44.2883L472.201 44.2843L471.077 41.5028ZM465.129 39.5327C462.731 39.5327 460.844 39.0491 459.353 38.2122L456.416 43.4441C458.974 44.8798 461.916 45.5327 465.129 45.5327V39.5327ZM459.372 38.2225C457.87 37.3659 456.723 36.1732 455.895 34.5795L450.571 37.3467C451.921 39.9433 453.875 41.9939 456.398 43.4338L459.372 38.2225ZM455.898 34.5856C455.071 32.9858 454.599 30.9859 454.599 28.4879H448.599C448.599 31.7428 449.217 34.7263 450.568 37.3405L455.898 34.5856ZM454.599 28.4879C454.599 26.075 455.066 24.0983 455.901 22.4729L450.565 19.7302C449.222 22.3425 448.599 25.29 448.599 28.4879H454.599ZM455.901 22.4729C456.743 20.8345 457.893 19.6074 459.373 18.7216L456.29 13.5739C453.816 15.0555 451.9 17.131 450.565 19.7302L455.901 22.4729ZM459.366 18.7256C460.822 17.8589 462.607 17.3722 464.827 17.3722V11.3722C461.697 11.3722 458.818 12.0692 456.297 13.5698L459.366 18.7256ZM464.827 17.3722C466.299 17.3722 467.615 17.6083 468.801 18.0521L470.903 12.4323C468.988 11.7161 466.954 11.3722 464.827 11.3722V17.3722ZM468.827 18.0616C469.99 18.4846 470.979 19.1113 471.826 19.9489L476.046 15.6846C474.573 14.2259 472.839 13.1362 470.877 12.4228L468.827 18.0616ZM471.836 19.9596C472.655 20.762 473.343 21.8172 473.861 23.2004L479.48 21.0979C478.695 19.001 477.56 17.1679 476.035 15.6739L471.836 19.9596ZM473.863 23.2067C474.359 24.5227 474.647 26.1739 474.647 28.2216H480.647C480.647 25.6291 480.284 23.2321 479.478 21.0916L473.863 23.2067ZM474.647 28.2216V30.299H480.647V28.2216H474.647ZM477.647 27.299H454.618V33.299H477.647V27.299ZM457.618 30.299V25.6115H451.618V30.299H457.618ZM454.618 28.6115H470.527V22.6115H454.618V28.6115ZM473.527 25.6115C473.527 24.0743 473.188 22.5902 472.43 21.2448L467.203 24.1899C467.392 24.5253 467.527 24.9707 467.527 25.6115H473.527ZM472.43 21.2448C471.688 19.9269 470.636 18.8752 469.318 18.1327L466.373 23.3602C466.736 23.5647 466.998 23.8269 467.203 24.1899L472.43 21.2448ZM469.362 18.1578C468.01 17.3657 466.506 17.0185 464.952 17.0185V23.0185C465.599 23.0185 466.025 23.1566 466.329 23.3351L469.362 18.1578ZM464.952 17.0185C463.321 17.0185 461.758 17.4028 460.354 18.245L463.441 23.3899C463.813 23.1668 464.286 23.0185 464.952 23.0185V17.0185ZM460.364 18.2389C459.036 19.0285 457.975 20.1163 457.22 21.4646L462.455 24.3962C462.695 23.9689 463.007 23.6481 463.431 23.3961L460.364 18.2389ZM457.229 21.4496C456.464 22.7979 456.092 24.2785 456.075 25.8271L462.074 25.893C462.081 25.2874 462.218 24.8148 462.447 24.4112L457.229 21.4496ZM456.074 25.8601V30.3168H462.074V25.8601H456.074ZM456.074 30.3168C456.074 32.0324 456.391 33.6826 457.143 35.1692L462.497 32.4601C462.255 31.9817 462.074 31.3 462.074 30.3168H456.074ZM457.156 35.1946C457.919 36.6658 459.03 37.8554 460.469 38.6859L463.468 33.4888C463.061 33.2539 462.74 32.9284 462.484 32.4346L457.156 35.1946ZM460.469 38.6859C461.928 39.5272 463.56 39.8864 465.253 39.8864V33.8864C464.414 33.8864 463.856 33.7129 463.468 33.4888L460.469 38.6859ZM465.253 39.8864C466.376 39.8864 467.476 39.7279 468.525 39.3724L466.598 33.6901C466.25 33.8081 465.811 33.8864 465.253 33.8864V39.8864ZM468.525 39.3724C469.605 39.0063 470.588 38.4343 471.424 37.6383L467.286 33.2935C467.127 33.4445 466.915 33.5827 466.598 33.6901L468.525 39.3724ZM471.424 37.6383C472.269 36.8339 472.888 35.8665 473.296 34.7898L467.686 32.6619C467.574 32.9583 467.436 33.151 467.286 33.2935L471.424 37.6383ZM470.294 36.7193L477.289 37.181L477.685 31.194L470.689 30.7324L470.294 36.7193ZM474.552 33.5674C474.3 34.76 473.799 35.7562 473.048 36.6124L477.558 40.5694C479.009 38.9161 479.964 36.9768 480.422 34.8076L474.552 33.5674ZM473.047 36.6139C472.305 37.4608 471.302 38.1761 469.953 38.7214L472.201 44.2843C474.308 43.4328 476.124 42.2068 477.559 40.5679L473.047 36.6139ZM469.963 38.7174C468.669 39.2351 467.077 39.5327 465.129 39.5327V45.5327C467.679 45.5327 470.053 45.1436 472.191 44.2883L469.963 38.7174ZM505.275 22.5043L505.459 25.4986L508.67 25.301L508.249 22.1114L505.275 22.5043ZM498.35 22.9304L495.408 23.5187L495.922 26.0855L498.534 25.9247L498.35 22.9304ZM497.586 21.3324L495.249 23.2134L495.261 23.2275L495.272 23.2415L497.586 21.3324ZM496.042 20.1783L494.762 22.8916L494.792 22.906L494.823 22.9197L496.042 20.1783ZM490.822 20.4801L492.371 23.0493L492.384 23.041L492.398 23.0325L490.822 20.4801ZM490.395 24.0845L488.435 26.355V26.355L490.395 24.0845ZM493.077 25.1676L492.446 28.1006L492.465 28.1047L492.484 28.1085L493.077 25.1676ZM498.013 26.1619L498.616 23.2232L498.605 23.221L498.013 26.1619ZM503.943 28.7898L501.903 30.9896V30.9896L503.943 28.7898ZM504.316 38.2536L501.951 36.4074L501.946 36.4139L501.941 36.4204L504.316 38.2536ZM500.019 41.4141L501.161 44.1881L501.17 44.1844L500.019 41.4141ZM485.122 40.2777L483.383 42.7226L483.391 42.728L483.399 42.7335L485.122 40.2777ZM481.376 34.0987L481.218 31.1028L477.948 31.2746L478.405 34.5173L481.376 34.0987ZM488.815 33.7081L491.754 33.1076L491.237 30.5768L488.658 30.7122L488.815 33.7081ZM490.449 36.2294L488.777 38.7203L488.789 38.7282L488.8 38.7361L490.449 36.2294ZM496.965 36.3182L498.568 38.8538L498.578 38.8477L496.965 36.3182ZM498.208 34.3118L501.208 34.3553L501.208 34.3077L501.207 34.2601L498.208 34.3118ZM497.338 32.625L495.476 34.9771L495.491 34.9892L495.506 35.001L497.338 32.625ZM494.71 31.5952L495.298 28.6534L495.296 28.653L494.71 31.5952ZM489.987 30.6541L489.399 33.5959L489.401 33.5963L489.987 30.6541ZM484.039 27.8842L481.898 29.9862L481.908 29.9959L484.039 27.8842ZM483.524 18.3317L481.132 16.521L481.127 16.5281L481.121 16.5353L483.524 18.3317ZM487.555 15.402L486.453 12.6113L486.447 12.6139L487.555 15.402ZM501.795 16.5561L500.015 18.9716L500.022 18.9767L501.795 16.5561ZM505.09 19.5099L498.166 19.9361L498.534 25.9247L505.459 25.4986L505.09 19.5099ZM501.292 22.342C501.075 21.2564 500.601 20.2717 499.901 19.4232L495.272 23.2415C495.354 23.34 495.389 23.4207 495.408 23.5187L501.292 22.342ZM499.923 19.4514C499.199 18.5508 498.281 17.8906 497.26 17.4368L494.823 22.9197C495.081 23.0341 495.193 23.1433 495.249 23.2134L499.923 19.4514ZM497.322 17.465C496.203 16.9374 494.992 16.7344 493.787 16.7344V22.7344C494.333 22.7344 494.626 22.8273 494.762 22.8916L497.322 17.465ZM493.787 16.7344C492.191 16.7344 490.625 17.0754 489.245 17.9277L492.398 23.0325C492.628 22.8906 493.039 22.7344 493.787 22.7344V16.7344ZM489.273 17.911C487.728 18.8421 486.614 20.3896 486.614 22.4332H492.614C492.614 22.4775 492.608 22.5518 492.583 22.645C492.557 22.7395 492.517 22.8303 492.468 22.9099C492.368 23.072 492.285 23.101 492.371 23.0493L489.273 17.911ZM486.614 22.4332C486.614 24.0112 487.297 25.3723 488.435 26.355L492.356 21.8141C492.371 21.8268 492.451 21.9024 492.521 22.0513C492.594 22.2046 492.614 22.3463 492.614 22.4332H486.614ZM488.435 26.355C489.543 27.3121 491.051 27.8007 492.446 28.1006L493.707 22.2346C493.189 22.1232 492.823 22.0094 492.58 21.911C492.326 21.8083 492.29 21.7567 492.356 21.814L488.435 26.355ZM492.484 28.1085L497.42 29.1029L498.605 23.221L493.669 22.2267L492.484 28.1085ZM497.409 29.1006C499.784 29.5882 501.162 30.3019 501.903 30.9896L505.983 26.59C504.12 24.8629 501.545 23.8247 498.616 23.2233L497.409 29.1006ZM501.903 30.9896C502.524 31.5654 502.896 32.3195 502.896 33.5483H508.896C508.896 30.8472 507.966 28.4289 505.983 26.59L501.903 30.9896ZM502.896 33.5483C502.896 34.6984 502.574 35.6098 501.951 36.4074L506.681 40.0997C508.165 38.1985 508.896 35.973 508.896 33.5483H502.896ZM501.941 36.4204C501.266 37.2948 500.285 38.0547 498.868 38.6438L501.17 44.1844C503.399 43.2583 505.282 41.9111 506.691 40.0867L501.941 36.4204ZM498.877 38.64C497.495 39.2089 495.807 39.5327 493.751 39.5327V45.5327C496.431 45.5327 498.921 45.1107 501.161 44.1881L498.877 38.64ZM493.751 39.5327C490.53 39.5327 488.324 38.8595 486.845 37.8219L483.399 42.7335C486.205 44.7025 489.752 45.5327 493.751 45.5327V39.5327ZM486.861 37.8328C485.406 36.7984 484.599 35.4738 484.346 33.6801L478.405 34.5173C478.886 37.932 480.577 40.7267 483.383 42.7226L486.861 37.8328ZM481.533 37.0946L488.972 36.704L488.658 30.7122L481.218 31.1028L481.533 37.0946ZM485.876 34.3086C486.245 36.1138 487.203 37.664 488.777 38.7203L492.121 33.7385C491.966 33.6348 491.835 33.5041 491.754 33.1076L485.876 34.3086ZM488.8 38.7361C490.283 39.7108 492.01 40.0817 493.769 40.0817V34.0817C492.829 34.0817 492.343 33.8843 492.097 33.7227L488.8 38.7361ZM493.769 40.0817C495.449 40.0817 497.13 39.763 498.568 38.8538L495.362 33.7826C495.19 33.8913 494.741 34.0817 493.769 34.0817V40.0817ZM498.578 38.8477C500.063 37.9008 501.178 36.3804 501.208 34.3553L495.208 34.2683C495.209 34.2224 495.216 34.1528 495.24 34.0694C495.264 33.9853 495.299 33.909 495.338 33.8461C495.416 33.7195 495.467 33.7156 495.352 33.7887L498.578 38.8477ZM501.207 34.2601C501.179 32.6152 500.423 31.215 499.169 30.249L495.506 35.001C495.489 34.9876 495.397 34.9093 495.315 34.7504C495.231 34.5876 495.21 34.4411 495.208 34.3635L501.207 34.2601ZM499.2 30.2729C498.09 29.3945 496.675 28.9288 495.298 28.6534L494.122 34.5369C494.587 34.6299 494.925 34.7311 495.16 34.8234C495.4 34.9172 495.482 34.9818 495.476 34.9771L499.2 30.2729ZM495.296 28.653L490.573 27.712L489.401 33.5963L494.124 34.5373L495.296 28.653ZM490.575 27.7124C488.238 27.2449 486.898 26.507 486.17 25.7725L481.908 29.9959C483.784 31.8893 486.41 32.998 489.399 33.5959L490.575 27.7124ZM486.179 25.7823C485.501 25.091 485.104 24.2 485.104 22.8594H479.104C479.104 25.5907 479.997 28.0497 481.898 29.9862L486.179 25.7823ZM485.104 22.8594C485.104 21.6816 485.409 20.8201 485.927 20.1281L481.121 16.5353C479.745 18.3764 479.104 20.5334 479.104 22.8594H485.104ZM485.916 20.1424C486.491 19.3826 487.355 18.7092 488.662 18.19L486.447 12.6139C484.297 13.4679 482.475 14.7476 481.132 16.521L485.916 20.1424ZM488.656 18.1926C489.97 17.6739 491.618 17.3722 493.662 17.3722V11.3722C491.043 11.3722 488.619 11.757 486.453 12.6114L488.656 18.1926ZM493.662 17.3722C496.718 17.3722 498.725 18.0212 500.015 18.9716L503.574 14.1406C500.911 12.1791 497.496 11.3722 493.662 11.3722V17.3722ZM500.022 18.9767C501.331 19.9345 502.073 21.1745 502.301 22.8971L508.249 22.1114C507.813 18.8151 506.236 16.0896 503.567 14.1355L500.022 18.9767Z" fill="#FFE81F" mask="url(#path-1-outside-1_3_6)"/>
</svg>
