<svg width="178" height="46" viewBox="0 0 178 46" fill="none" xmlns="http://www.w3.org/2000/svg">
<mask id="path-1-outside-1_50_79" maskUnits="userSpaceOnUse" x="0" y="0" width="178" height="46" fill="black">
<rect fill="white" width="178" height="46"/>
<path d="M3.16051 5.63636H12.642L22.6562 30.0682H23.0824L33.0966 5.63636H42.5781V42H35.1207V18.3317H34.8189L25.4084 41.8224H20.3303L10.9197 18.2429H10.6179V42H3.16051V5.63636ZM61.0929 42.5327C58.3348 42.5327 55.9496 41.9467 53.9373 40.7749C51.9368 39.5911 50.3921 37.9458 49.3031 35.8388C48.2141 33.7199 47.6696 31.2637 47.6696 28.4702C47.6696 25.6529 48.2141 23.1908 49.3031 21.0838C50.3921 18.965 51.9368 17.3196 53.9373 16.1477C55.9496 14.964 58.3348 14.3722 61.0929 14.3722C63.8509 14.3722 66.2302 14.964 68.2306 16.1477C70.243 17.3196 71.7936 18.965 72.8826 21.0838C73.9717 23.1908 74.5162 25.6529 74.5162 28.4702C74.5162 31.2637 73.9717 33.7199 72.8826 35.8388C71.7936 37.9458 70.243 39.5911 68.2306 40.7749C66.2302 41.9467 63.8509 42.5327 61.0929 42.5327ZM61.1284 36.6733C62.3831 36.6733 63.4307 36.3182 64.2711 35.608C65.1116 34.8859 65.7449 33.9034 66.171 32.6605C66.609 31.4176 66.8279 30.0031 66.8279 28.4169C66.8279 26.8307 66.609 25.4162 66.171 24.1733C65.7449 22.9304 65.1116 21.9479 64.2711 21.2259C63.4307 20.5038 62.3831 20.1428 61.1284 20.1428C59.8618 20.1428 58.7965 20.5038 57.9324 21.2259C57.0801 21.9479 56.435 22.9304 55.997 24.1733C55.5708 25.4162 55.3578 26.8307 55.3578 28.4169C55.3578 30.0031 55.5708 31.4176 55.997 32.6605C56.435 33.9034 57.0801 34.8859 57.9324 35.608C58.7965 36.3182 59.8618 36.6733 61.1284 36.6733ZM103.982 14.7273L94.4469 42H85.9242L76.3894 14.7273H84.3794L90.0435 34.2408H90.3276L95.9739 14.7273H103.982ZM107.852 42V14.7273H115.416V42H107.852ZM111.652 11.2116C110.528 11.2116 109.563 10.8388 108.758 10.093C107.965 9.33546 107.568 8.42992 107.568 7.37642C107.568 6.33475 107.965 5.44105 108.758 4.69531C109.563 3.93774 110.528 3.55895 111.652 3.55895C112.777 3.55895 113.735 3.93774 114.529 4.69531C115.334 5.44105 115.736 6.33475 115.736 7.37642C115.736 8.42992 115.334 9.33546 114.529 10.093C113.735 10.8388 112.777 11.2116 111.652 11.2116ZM133.904 42.5327C131.099 42.5327 128.684 41.9645 126.66 40.8281C124.648 39.6799 123.097 38.0582 122.008 35.9631C120.919 33.8561 120.375 31.3643 120.375 28.4879C120.375 25.6825 120.919 23.2204 122.008 21.1016C123.097 18.9827 124.63 17.3314 126.607 16.1477C128.596 14.964 130.927 14.3722 133.603 14.3722C135.402 14.3722 137.077 14.6622 138.627 15.2422C140.19 15.8104 141.551 16.6686 142.711 17.8168C143.883 18.965 144.795 20.4091 145.446 22.1491C146.097 23.8774 146.422 25.9015 146.422 28.2216V30.299H123.393V25.6115H139.302C139.302 24.5225 139.065 23.5578 138.592 22.7173C138.118 21.8769 137.462 21.2199 136.621 20.7464C135.792 20.2611 134.828 20.0185 133.727 20.0185C132.579 20.0185 131.561 20.2848 130.673 20.8175C129.797 21.3383 129.11 22.0426 128.613 22.9304C128.116 23.8063 127.862 24.7829 127.85 25.8601V30.3168C127.85 31.6662 128.098 32.8321 128.596 33.8146C129.105 34.7971 129.821 35.5547 130.744 36.0874C131.667 36.62 132.762 36.8864 134.029 36.8864C134.869 36.8864 135.639 36.768 136.337 36.5312C137.035 36.2945 137.633 35.9394 138.13 35.4659C138.627 34.9924 139.006 34.4124 139.267 33.7259L146.262 34.1875C145.907 35.8684 145.179 37.3362 144.078 38.5909C142.989 39.8338 141.581 40.8045 139.853 41.5028C138.136 42.1894 136.154 42.5327 133.904 42.5327ZM174.05 22.5043L167.125 22.9304C167.007 22.3385 166.752 21.8059 166.362 21.3324C165.971 20.8471 165.456 20.4624 164.817 20.1783C164.19 19.8823 163.438 19.7344 162.562 19.7344C161.39 19.7344 160.402 19.983 159.597 20.4801C158.792 20.9654 158.39 21.6165 158.39 22.4332C158.39 23.0843 158.65 23.6347 159.171 24.0845C159.692 24.5343 160.585 24.8954 161.852 25.1676L166.788 26.1619C169.44 26.7064 171.416 27.5824 172.718 28.7898C174.02 29.9972 174.672 31.5833 174.672 33.5483C174.672 35.3357 174.145 36.9041 173.091 38.2536C172.05 39.603 170.617 40.6565 168.794 41.4141C166.983 42.1598 164.894 42.5327 162.527 42.5327C158.916 42.5327 156.04 41.781 153.897 40.2777C151.767 38.7625 150.518 36.7029 150.151 34.0987L157.591 33.7081C157.815 34.8089 158.36 35.6494 159.224 36.2294C160.088 36.7976 161.195 37.0817 162.544 37.0817C163.87 37.0817 164.935 36.8272 165.74 36.3182C166.557 35.7973 166.971 35.1286 166.983 34.3118C166.971 33.6252 166.681 33.063 166.113 32.625C165.545 32.1752 164.669 31.8319 163.485 31.5952L158.762 30.6541C156.099 30.1214 154.116 29.1982 152.814 27.8842C151.524 26.5703 150.879 24.8954 150.879 22.8594C150.879 21.1075 151.352 19.5982 152.299 18.3317C153.258 17.0651 154.602 16.0885 156.33 15.402C158.07 14.7154 160.106 14.3722 162.438 14.3722C165.882 14.3722 168.593 15.1001 170.57 16.5561C172.559 18.0121 173.719 19.9948 174.05 22.5043Z"/>
</mask>
<path d="M3.16051 5.63636V2.63636H0.160511V5.63636H3.16051ZM12.642 5.63636L15.4179 4.49858L14.6546 2.63636H12.642V5.63636ZM22.6562 30.0682L19.8804 31.206L20.6437 33.0682H22.6562V30.0682ZM23.0824 30.0682V33.0682H25.095L25.8583 31.206L23.0824 30.0682ZM33.0966 5.63636V2.63636H31.084L30.3207 4.49858L33.0966 5.63636ZM42.5781 5.63636H45.5781V2.63636H42.5781V5.63636ZM42.5781 42V45H45.5781V42H42.5781ZM35.1207 42H32.1207V45H35.1207V42ZM35.1207 18.3317H38.1207V15.3317H35.1207V18.3317ZM34.8189 18.3317V15.3317H32.7889L32.034 17.2161L34.8189 18.3317ZM25.4084 41.8224V44.8224H27.4383L28.1932 42.9381L25.4084 41.8224ZM20.3303 41.8224L17.544 42.9344L18.2975 44.8224H20.3303V41.8224ZM10.9197 18.2429L13.706 17.1309L12.9525 15.2429H10.9197V18.2429ZM10.6179 18.2429V15.2429H7.6179V18.2429H10.6179ZM10.6179 42V45H13.6179V42H10.6179ZM3.16051 42H0.160511V45H3.16051V42ZM3.16051 8.63636H12.642V2.63636H3.16051V8.63636ZM9.86618 6.77415L19.8804 31.206L25.4321 28.9304L15.4179 4.49858L9.86618 6.77415ZM22.6562 33.0682H23.0824V27.0682H22.6562V33.0682ZM25.8583 31.206L35.8725 6.77415L30.3207 4.49858L20.3065 28.9304L25.8583 31.206ZM33.0966 8.63636H42.5781V2.63636H33.0966V8.63636ZM39.5781 5.63636V42H45.5781V5.63636H39.5781ZM42.5781 39H35.1207V45H42.5781V39ZM38.1207 42V18.3317H32.1207V42H38.1207ZM35.1207 15.3317H34.8189V21.3317H35.1207V15.3317ZM32.034 17.2161L22.6235 40.7068L28.1932 42.9381L37.6037 19.4473L32.034 17.2161ZM25.4084 38.8224H20.3303V44.8224H25.4084V38.8224ZM23.1166 40.7104L13.706 17.1309L8.13345 19.3549L17.544 42.9344L23.1166 40.7104ZM10.9197 15.2429H10.6179V21.2429H10.9197V15.2429ZM7.6179 18.2429V42H13.6179V18.2429H7.6179ZM10.6179 39H3.16051V45H10.6179V39ZM6.16051 42V5.63636H0.160511V42H6.16051ZM53.9373 40.7749L52.4096 43.3567L52.4186 43.362L52.4276 43.3673L53.9373 40.7749ZM49.3031 35.8388L46.6349 37.2102L46.638 37.2162L49.3031 35.8388ZM49.3031 21.0838L51.9682 22.4613L51.9713 22.4552L49.3031 21.0838ZM53.9373 16.1477L55.4537 18.7363L55.4584 18.7335L53.9373 16.1477ZM68.2306 16.1477L66.7029 18.7296L66.7119 18.7349L66.7209 18.7402L68.2306 16.1477ZM72.8826 21.0838L70.2144 22.4552L70.2176 22.4613L72.8826 21.0838ZM72.8826 35.8388L75.5477 37.2162L75.5508 37.2101L72.8826 35.8388ZM68.2306 40.7749L69.747 43.3634L69.7517 43.3607L68.2306 40.7749ZM64.2711 35.608L66.2075 37.8993L66.2169 37.8914L66.2261 37.8835L64.2711 35.608ZM66.171 32.6605L63.3415 31.6635L63.3373 31.6755L63.3331 31.6875L66.171 32.6605ZM66.171 24.1733L63.3331 25.1463L63.3373 25.1583L63.3415 25.1703L66.171 24.1733ZM57.9324 21.2259L56.0087 18.9238L56.0009 18.9303L55.9931 18.9369L57.9324 21.2259ZM55.997 24.1733L53.1675 23.1762L53.1633 23.1883L53.1591 23.2003L55.997 24.1733ZM55.997 32.6605L53.1591 33.6335L53.1633 33.6455L53.1675 33.6576L55.997 32.6605ZM57.9324 35.608L55.9931 37.8969L56.0102 37.9114L56.0275 37.9256L57.9324 35.608ZM61.0929 39.5327C58.7669 39.5327 56.9229 39.0419 55.447 38.1824L52.4276 43.3673C54.9764 44.8516 57.9028 45.5327 61.0929 45.5327V39.5327ZM55.4651 38.193C53.9595 37.3022 52.8042 36.0788 51.9682 34.4613L46.638 37.2162C47.98 39.8127 49.9142 41.8801 52.4096 43.3567L55.4651 38.193ZM51.9713 34.4674C51.1351 32.8404 50.6696 30.869 50.6696 28.4702H44.6696C44.6696 31.6585 45.2931 34.5995 46.6349 37.2101L51.9713 34.4674ZM50.6696 28.4702C50.6696 26.0427 51.137 24.0694 51.9682 22.4613L46.638 19.7064C45.2912 22.3122 44.6696 25.2632 44.6696 28.4702H50.6696ZM51.9713 22.4552C52.8074 20.8285 53.9591 19.6118 55.4537 18.7363L52.4209 13.5592C49.9146 15.0274 47.9768 17.1014 46.6349 19.7124L51.9713 22.4552ZM55.4584 18.7335C56.9321 17.8666 58.772 17.3722 61.0929 17.3722V11.3722C57.8977 11.3722 54.9671 12.0614 52.4163 13.5619L55.4584 18.7335ZM61.0929 17.3722C63.4143 17.3722 65.2448 17.8668 66.7029 18.7296L69.7584 13.5659C67.2156 12.0612 64.2875 11.3722 61.0929 11.3722V17.3722ZM66.7209 18.7402C68.2265 19.617 69.3808 20.8332 70.2144 22.4552L75.5508 19.7124C74.2065 17.0968 72.2594 15.0222 69.7404 13.5553L66.7209 18.7402ZM70.2176 22.4613C71.0487 24.0694 71.5162 26.0427 71.5162 28.4702H77.5162C77.5162 25.2632 76.8946 22.3122 75.5477 19.7064L70.2176 22.4613ZM71.5162 28.4702C71.5162 30.869 71.0507 32.8404 70.2144 34.4674L75.5508 37.2101C76.8926 34.5995 77.5162 31.6585 77.5162 28.4702H71.5162ZM70.2176 34.4613C69.3839 36.0742 68.2261 37.297 66.7096 38.1891L69.7517 43.3607C72.2598 41.8853 74.2033 39.8174 75.5477 37.2162L70.2176 34.4613ZM66.7143 38.1863C65.2541 39.0417 63.4195 39.5327 61.0929 39.5327V45.5327C64.2824 45.5327 67.2062 44.8518 69.747 43.3634L66.7143 38.1863ZM61.1284 39.6733C62.9865 39.6733 64.7501 39.1309 66.2075 37.8993L62.3348 33.3166C62.1112 33.5054 61.7797 33.6733 61.1284 33.6733V39.6733ZM66.2261 37.8835C67.541 36.7538 68.4419 35.287 69.0088 33.6335L63.3331 31.6875C63.0478 32.5199 62.6821 33.018 62.3161 33.3324L66.2261 37.8835ZM69.0005 33.6576C69.5716 32.0367 69.8279 30.2756 69.8279 28.4169H63.8279C63.8279 29.7306 63.6463 30.7986 63.3415 31.6635L69.0005 33.6576ZM69.8279 28.4169C69.8279 26.5582 69.5716 24.7971 69.0005 23.1762L63.3415 25.1703C63.6463 26.0352 63.8279 27.1032 63.8279 28.4169H69.8279ZM69.0088 23.2003C68.4419 21.5468 67.541 20.08 66.2261 18.9503L62.3161 23.5014C62.6821 23.8158 63.0478 24.3139 63.3331 25.1463L69.0088 23.2003ZM66.2261 18.9503C64.7695 17.6989 62.9993 17.1428 61.1284 17.1428V23.1428C61.767 23.1428 62.0919 23.3087 62.3161 23.5014L66.2261 18.9503ZM61.1284 17.1428C59.2519 17.1428 57.4799 17.6944 56.0087 18.9238L59.856 23.5279C60.113 23.3132 60.4717 23.1428 61.1284 23.1428V17.1428ZM55.9931 18.9369C54.667 20.0604 53.7503 21.5223 53.1675 23.1762L58.8265 25.1703C59.1196 24.3385 59.4931 23.8355 59.8716 23.5148L55.9931 18.9369ZM53.1591 23.2003C52.606 24.8136 52.3578 26.5661 52.3578 28.4169H58.3578C58.3578 27.0954 58.5357 26.0188 58.8348 25.1463L53.1591 23.2003ZM52.3578 28.4169C52.3578 30.2677 52.606 32.0202 53.1591 33.6335L58.8348 31.6875C58.5357 30.815 58.3578 29.7384 58.3578 28.4169H52.3578ZM53.1675 33.6576C53.7503 35.3115 54.667 36.7734 55.9931 37.8969L59.8716 33.319C59.4931 32.9983 59.1196 32.4953 58.8265 31.6635L53.1675 33.6576ZM56.0275 37.9256C57.4991 39.1351 59.2644 39.6733 61.1284 39.6733V33.6733C60.4592 33.6733 60.0939 33.5013 59.8372 33.2903L56.0275 37.9256ZM103.982 14.7273L106.814 15.7173L108.209 11.7273H103.982V14.7273ZM94.4469 42V45H96.5761L97.2788 42.9901L94.4469 42ZM85.9242 42L83.0923 42.9901L83.795 45H85.9242V42ZM76.3894 14.7273V11.7273H72.1625L73.5575 15.7173L76.3894 14.7273ZM84.3794 14.7273L87.2605 13.891L86.6325 11.7273H84.3794V14.7273ZM90.0435 34.2408L87.1624 35.077L87.7905 37.2408H90.0435V34.2408ZM90.3276 34.2408V37.2408H92.5826L93.2094 35.0746L90.3276 34.2408ZM95.9739 14.7273V11.7273H93.7189L93.0921 13.8934L95.9739 14.7273ZM101.15 13.7372L91.615 41.0099L97.2788 42.9901L106.814 15.7173L101.15 13.7372ZM94.4469 39H85.9242V45H94.4469V39ZM88.7561 41.0099L79.2213 13.7372L73.5575 15.7173L83.0923 42.9901L88.7561 41.0099ZM76.3894 17.7273H84.3794V11.7273H76.3894V17.7273ZM81.4984 15.5635L87.1624 35.077L92.9246 33.4045L87.2605 13.891L81.4984 15.5635ZM90.0435 37.2408H90.3276V31.2408H90.0435V37.2408ZM93.2094 35.0746L98.8557 15.5611L93.0921 13.8934L87.4458 33.4069L93.2094 35.0746ZM95.9739 17.7273H103.982V11.7273H95.9739V17.7273ZM107.852 42H104.852V45H107.852V42ZM107.852 14.7273V11.7273H104.852V14.7273H107.852ZM115.416 14.7273H118.416V11.7273H115.416V14.7273ZM115.416 42V45H118.416V42H115.416ZM108.758 10.093L106.686 12.2624L106.702 12.2782L106.719 12.2937L108.758 10.093ZM108.758 4.69531L110.813 6.88087L110.814 6.87991L108.758 4.69531ZM114.529 4.69531L112.456 6.86464L112.473 6.88045L112.49 6.896L114.529 4.69531ZM114.529 10.093L116.584 12.2786L116.585 12.2776L114.529 10.093ZM110.852 42V14.7273H104.852V42H110.852ZM107.852 17.7273H115.416V11.7273H107.852V17.7273ZM112.416 14.7273V42H118.416V14.7273H112.416ZM115.416 39H107.852V45H115.416V39ZM111.652 8.21165C111.263 8.21165 111.032 8.1103 110.797 7.89235L106.719 12.2937C108.094 13.5673 109.792 14.2116 111.652 14.2116V8.21165ZM110.83 7.92371C110.602 7.70605 110.568 7.57338 110.568 7.37642H104.568C104.568 9.28646 105.327 10.9649 106.686 12.2624L110.83 7.92371ZM110.568 7.37642C110.568 7.2035 110.592 7.08839 110.813 6.88087L106.703 2.50975C105.337 3.79371 104.568 5.466 104.568 7.37642H110.568ZM110.814 6.87991C111.052 6.6561 111.277 6.55895 111.652 6.55895V0.558947C109.778 0.558947 108.074 1.21937 106.702 2.51071L110.814 6.87991ZM111.652 6.55895C112.027 6.55895 112.237 6.65504 112.456 6.86464L116.601 2.52598C115.234 1.22043 113.527 0.558947 111.652 0.558947V6.55895ZM112.49 6.896C112.719 7.10811 112.736 7.21906 112.736 7.37642H118.736C118.736 5.45045 117.948 3.77399 116.567 2.49463L112.49 6.896ZM112.736 7.37642C112.736 7.55805 112.708 7.68642 112.472 7.90844L116.585 12.2776C117.959 10.9845 118.736 9.30179 118.736 7.37642H112.736ZM112.474 7.90748C112.257 8.11126 112.041 8.21165 111.652 8.21165V14.2116C113.513 14.2116 115.214 13.5663 116.584 12.2786L112.474 7.90748ZM126.66 40.8281L125.173 43.4338L125.182 43.439L125.192 43.4441L126.66 40.8281ZM122.008 35.9631L119.343 37.3405L119.346 37.3467L122.008 35.9631ZM122.008 21.1016L119.34 19.7302L119.34 19.7302L122.008 21.1016ZM126.607 16.1477L125.072 13.5698L125.066 13.5739L126.607 16.1477ZM138.627 15.2422L137.576 18.0521L137.589 18.0569L137.602 18.0616L138.627 15.2422ZM142.711 17.8168L140.601 19.9489L140.606 19.9543L140.612 19.9596L142.711 17.8168ZM145.446 22.1491L142.636 23.2004L142.638 23.2067L145.446 22.1491ZM146.422 30.299V33.299H149.422V30.299H146.422ZM123.393 30.299H120.393V33.299H123.393V30.299ZM123.393 25.6115V22.6115H120.393V25.6115H123.393ZM139.302 25.6115V28.6115H142.302V25.6115H139.302ZM138.592 22.7173L135.978 24.1899L135.978 24.1899L138.592 22.7173ZM136.621 20.7464L135.105 23.3351L135.127 23.3478L135.149 23.3602L136.621 20.7464ZM130.673 20.8175L132.206 23.3961L132.216 23.39L130.673 20.8175ZM128.613 22.9304L131.222 24.4112L131.227 24.4037L131.231 24.3962L128.613 22.9304ZM127.85 25.8601L124.85 25.8271L124.85 25.8436V25.8601H127.85ZM128.596 33.8146L125.919 35.1692L125.925 35.1819L125.932 35.1946L128.596 33.8146ZM136.337 36.5312L135.374 33.6901L135.374 33.6901L136.337 36.5312ZM138.13 35.4659L136.061 33.2935L136.061 33.2935L138.13 35.4659ZM139.267 33.7259L139.464 30.7324L137.249 30.5862L136.462 32.6619L139.267 33.7259ZM146.262 34.1875L149.198 34.8076L149.913 31.4219L146.46 31.194L146.262 34.1875ZM144.078 38.5909L141.823 36.6124L141.822 36.6139L144.078 38.5909ZM139.853 41.5028L140.967 44.2883L140.977 44.2843L139.853 41.5028ZM133.904 39.5327C131.507 39.5327 129.62 39.0491 128.129 38.2122L125.192 43.4441C127.749 44.8798 130.692 45.5327 133.904 45.5327V39.5327ZM128.147 38.2225C126.646 37.3659 125.498 36.1732 124.67 34.5795L119.346 37.3467C120.696 39.9433 122.65 41.9939 125.173 43.4338L128.147 38.2225ZM124.673 34.5856C123.846 32.9858 123.375 30.9859 123.375 28.4879H117.375C117.375 31.7428 117.992 34.7263 119.343 37.3405L124.673 34.5856ZM123.375 28.4879C123.375 26.075 123.841 24.0983 124.676 22.4729L119.34 19.7302C117.997 22.3425 117.375 25.29 117.375 28.4879H123.375ZM124.676 22.4729C125.518 20.8345 126.669 19.6074 128.148 18.7216L125.066 13.5739C122.591 15.0555 120.676 17.131 119.34 19.7302L124.676 22.4729ZM128.141 18.7256C129.597 17.8589 131.382 17.3722 133.603 17.3722V11.3722C130.473 11.3722 127.594 12.0692 125.072 13.5698L128.141 18.7256ZM133.603 17.3722C135.074 17.3722 136.39 17.6083 137.576 18.0521L139.679 12.4323C137.764 11.7161 135.73 11.3722 133.603 11.3722V17.3722ZM137.602 18.0616C138.765 18.4846 139.755 19.1113 140.601 19.9489L144.822 15.6846C143.348 14.2259 141.614 13.1362 139.653 12.4228L137.602 18.0616ZM140.612 19.9596C141.431 20.762 142.118 21.8172 142.636 23.2004L148.255 21.0979C147.471 19.001 146.336 17.1679 144.811 15.6739L140.612 19.9596ZM142.638 23.2067C143.134 24.5227 143.422 26.1739 143.422 28.2216H149.422C149.422 25.6291 149.059 23.2321 148.253 21.0916L142.638 23.2067ZM143.422 28.2216V30.299H149.422V28.2216H143.422ZM146.422 27.299H123.393V33.299H146.422V27.299ZM126.393 30.299V25.6115H120.393V30.299H126.393ZM123.393 28.6115H139.302V22.6115H123.393V28.6115ZM142.302 25.6115C142.302 24.0743 141.964 22.5902 141.206 21.2448L135.978 24.1899C136.167 24.5253 136.302 24.9707 136.302 25.6115H142.302ZM141.206 21.2448C140.463 19.9269 139.412 18.8752 138.094 18.1327L135.149 23.3602C135.511 23.5647 135.774 23.8269 135.978 24.1899L141.206 21.2448ZM138.137 18.1578C136.785 17.3657 135.281 17.0185 133.727 17.0185V23.0185C134.374 23.0185 134.8 23.1566 135.105 23.3351L138.137 18.1578ZM133.727 17.0185C132.096 17.0185 130.533 17.4028 129.129 18.245L132.216 23.39C132.588 23.1668 133.061 23.0185 133.727 23.0185V17.0185ZM129.14 18.2389C127.812 19.0285 126.751 20.1163 125.996 21.4646L131.231 24.3962C131.47 23.9689 131.782 23.6481 132.206 23.3961L129.14 18.2389ZM126.004 21.4496C125.239 22.7979 124.867 24.2785 124.85 25.8271L130.85 25.893C130.856 25.2874 130.993 24.8148 131.222 24.4112L126.004 21.4496ZM124.85 25.8601V30.3168H130.85V25.8601H124.85ZM124.85 30.3168C124.85 32.0324 125.166 33.6826 125.919 35.1692L131.272 32.4601C131.03 31.9817 130.85 31.3 130.85 30.3168H124.85ZM125.932 35.1946C126.694 36.6658 127.805 37.8554 129.245 38.6859L132.243 33.4888C131.836 33.2539 131.515 32.9284 131.259 32.4346L125.932 35.1946ZM129.245 38.6859C130.703 39.5272 132.335 39.8864 134.029 39.8864V33.8864C133.189 33.8864 132.632 33.7129 132.243 33.4888L129.245 38.6859ZM134.029 39.8864C135.152 39.8864 136.252 39.7279 137.3 39.3724L135.374 33.6901C135.026 33.8081 134.587 33.8864 134.029 33.8864V39.8864ZM137.3 39.3724C138.38 39.0063 139.364 38.4343 140.199 37.6383L136.061 33.2935C135.903 33.4445 135.691 33.5827 135.374 33.6901L137.3 39.3724ZM140.199 37.6383C141.044 36.8339 141.663 35.8665 142.072 34.7898L136.462 32.6619C136.349 32.9583 136.211 33.151 136.061 33.2935L140.199 37.6383ZM139.069 36.7193L146.065 37.181L146.46 31.194L139.464 30.7324L139.069 36.7193ZM143.327 33.5674C143.075 34.76 142.575 35.7562 141.823 36.6124L146.334 40.5694C147.784 38.9161 148.739 36.9768 149.198 34.8076L143.327 33.5674ZM141.822 36.6139C141.08 37.4608 140.078 38.1761 138.729 38.7214L140.977 44.2843C143.084 43.4328 144.899 42.2068 146.335 40.5679L141.822 36.6139ZM138.738 38.7174C137.444 39.2351 135.852 39.5327 133.904 39.5327V45.5327C136.455 45.5327 138.828 45.1436 140.967 44.2883L138.738 38.7174ZM174.05 22.5043L174.234 25.4986L177.446 25.301L177.024 22.1114L174.05 22.5043ZM167.125 22.9304L164.184 23.5187L164.697 26.0855L167.31 25.9247L167.125 22.9304ZM166.362 21.3324L164.025 23.2134L164.036 23.2275L164.048 23.2415L166.362 21.3324ZM164.817 20.1783L163.537 22.8916L163.568 22.906L163.599 22.9197L164.817 20.1783ZM159.597 20.4801L161.146 23.0493L161.16 23.041L161.173 23.0325L159.597 20.4801ZM159.171 24.0845L157.21 26.355L157.21 26.355L159.171 24.0845ZM161.852 25.1676L161.221 28.1006L161.24 28.1047L161.26 28.1085L161.852 25.1676ZM166.788 26.1619L167.391 23.2232L167.38 23.221L166.788 26.1619ZM172.718 28.7898L170.679 30.9896L170.679 30.9896L172.718 28.7898ZM173.091 38.2536L170.727 36.4074L170.722 36.4139L170.716 36.4204L173.091 38.2536ZM168.794 41.4141L169.937 44.1881L169.946 44.1844L168.794 41.4141ZM153.897 40.2777L152.159 42.7226L152.167 42.728L152.174 42.7335L153.897 40.2777ZM150.151 34.0987L149.994 31.1028L146.723 31.2746L147.18 34.5173L150.151 34.0987ZM157.591 33.7081L160.53 33.1076L160.013 30.5768L157.433 30.7122L157.591 33.7081ZM159.224 36.2294L157.552 38.7203L157.564 38.7282L157.576 38.7361L159.224 36.2294ZM165.74 36.3182L167.344 38.8538L167.353 38.8477L165.74 36.3182ZM166.983 34.3118L169.983 34.3553L169.984 34.3077L169.983 34.2601L166.983 34.3118ZM166.113 32.625L164.251 34.9771L164.266 34.9892L164.282 35.001L166.113 32.625ZM163.485 31.5952L164.074 28.6534L164.072 28.653L163.485 31.5952ZM158.762 30.6541L158.174 33.5959L158.176 33.5963L158.762 30.6541ZM152.814 27.8842L150.674 29.9862L150.683 29.9959L152.814 27.8842ZM152.299 18.3317L149.907 16.521L149.902 16.5281L149.897 16.5353L152.299 18.3317ZM156.33 15.402L155.229 12.6113L155.222 12.6139L156.33 15.402ZM170.57 16.5561L168.791 18.9716L168.798 18.9767L170.57 16.5561ZM173.866 19.5099L166.941 19.9361L167.31 25.9247L174.234 25.4986L173.866 19.5099ZM170.067 22.342C169.85 21.2564 169.376 20.2717 168.676 19.4232L164.048 23.2415C164.129 23.34 164.164 23.4207 164.184 23.5187L170.067 22.342ZM168.699 19.4514C167.974 18.5508 167.057 17.8906 166.036 17.4368L163.599 22.9197C163.856 23.0341 163.968 23.1433 164.025 23.2134L168.699 19.4514ZM166.097 17.465C164.979 16.9374 163.768 16.7344 162.562 16.7344V22.7344C163.108 22.7344 163.401 22.8273 163.537 22.8916L166.097 17.465ZM162.562 16.7344C160.966 16.7344 159.4 17.0754 158.02 17.9277L161.173 23.0325C161.403 22.8906 161.815 22.7344 162.562 22.7344V16.7344ZM158.048 17.911C156.504 18.8421 155.39 20.3896 155.39 22.4332H161.39C161.39 22.4775 161.384 22.5518 161.358 22.645C161.332 22.7395 161.292 22.8303 161.243 22.9099C161.143 23.072 161.06 23.101 161.146 23.0493L158.048 17.911ZM155.39 22.4332C155.39 24.0112 156.072 25.3723 157.21 26.355L161.132 21.814C161.146 21.8268 161.226 21.9024 161.297 22.0513C161.369 22.2046 161.39 22.3463 161.39 22.4332H155.39ZM157.21 26.355C158.318 27.3121 159.826 27.8007 161.221 28.1006L162.482 22.2346C161.964 22.1232 161.599 22.0094 161.355 21.911C161.101 21.8083 161.065 21.7567 161.132 21.814L157.21 26.355ZM161.26 28.1085L166.196 29.1029L167.38 23.221L162.444 22.2267L161.26 28.1085ZM166.185 29.1006C168.559 29.5882 169.937 30.3019 170.679 30.9896L174.758 26.59C172.896 24.8629 170.32 23.8247 167.391 23.2233L166.185 29.1006ZM170.679 30.9896C171.3 31.5654 171.672 32.3195 171.672 33.5483H177.672C177.672 30.8472 176.741 28.4289 174.758 26.59L170.679 30.9896ZM171.672 33.5483C171.672 34.6984 171.349 35.6098 170.727 36.4074L175.456 40.0997C176.94 38.1985 177.672 35.973 177.672 33.5483H171.672ZM170.716 36.4204C170.041 37.2948 169.061 38.0547 167.643 38.6438L169.946 44.1844C172.174 43.2583 174.058 41.9111 175.466 40.0867L170.716 36.4204ZM167.652 38.64C166.271 39.2089 164.582 39.5327 162.527 39.5327V45.5327C165.206 45.5327 167.696 45.1107 169.937 44.1881L167.652 38.64ZM162.527 39.5327C159.305 39.5327 157.099 38.8595 155.62 37.8219L152.174 42.7335C154.981 44.7025 158.527 45.5327 162.527 45.5327V39.5327ZM155.636 37.8328C154.181 36.7984 153.374 35.4738 153.122 33.6801L147.18 34.5173C147.661 37.932 149.352 40.7267 152.159 42.7226L155.636 37.8328ZM150.308 37.0946L157.748 36.704L157.433 30.7122L149.994 31.1028L150.308 37.0946ZM154.651 34.3086C155.02 36.1138 155.978 37.664 157.552 38.7203L160.896 33.7385C160.742 33.6348 160.611 33.5041 160.53 33.1076L154.651 34.3086ZM157.576 38.7361C159.058 39.7108 160.785 40.0817 162.544 40.0817V34.0817C161.605 34.0817 161.118 33.8843 160.872 33.7227L157.576 38.7361ZM162.544 40.0817C164.224 40.0817 165.906 39.763 167.344 38.8538L164.137 33.7826C163.965 33.8913 163.516 34.0817 162.544 34.0817V40.0817ZM167.353 38.8477C168.838 37.9008 169.954 36.3804 169.983 34.3553L163.984 34.2683C163.984 34.2224 163.991 34.1528 164.015 34.0694C164.039 33.9853 164.074 33.909 164.113 33.8461C164.192 33.7195 164.242 33.7156 164.127 33.7887L167.353 38.8477ZM169.983 34.2601C169.955 32.6152 169.198 31.215 167.945 30.249L164.282 35.001C164.264 34.9876 164.173 34.9093 164.091 34.7504C164.007 34.5876 163.985 34.4411 163.984 34.3635L169.983 34.2601ZM167.975 30.2729C166.866 29.3945 165.451 28.9288 164.074 28.6534L162.897 34.5369C163.362 34.6299 163.7 34.7311 163.936 34.8234C164.175 34.9172 164.257 34.9818 164.251 34.9771L167.975 30.2729ZM164.072 28.653L159.349 27.712L158.176 33.5963L162.899 34.5373L164.072 28.653ZM159.351 27.7124C157.013 27.2449 155.673 26.507 154.945 25.7725L150.683 29.9959C152.56 31.8893 155.185 32.998 158.174 33.5959L159.351 27.7124ZM154.955 25.7823C154.276 25.091 153.879 24.2 153.879 22.8594H147.879C147.879 25.5907 148.772 28.0497 150.674 29.9862L154.955 25.7823ZM153.879 22.8594C153.879 21.6816 154.185 20.8201 154.702 20.1281L149.897 16.5353C148.52 18.3764 147.879 20.5334 147.879 22.8594H153.879ZM154.691 20.1424C155.266 19.3826 156.131 18.7092 157.437 18.19L155.222 12.6139C153.073 13.4679 151.25 14.7476 149.907 16.521L154.691 20.1424ZM157.431 18.1926C158.746 17.6739 160.393 17.3722 162.438 17.3722V11.3722C159.819 11.3722 157.394 11.757 155.229 12.6114L157.431 18.1926ZM162.438 17.3722C165.493 17.3722 167.5 18.0212 168.791 18.9716L172.349 14.1406C169.686 12.1791 166.272 11.3722 162.438 11.3722V17.3722ZM168.798 18.9767C170.106 19.9345 170.848 21.1745 171.076 22.8971L177.024 22.1114C176.589 18.8151 175.011 16.0896 172.342 14.1355L168.798 18.9767Z" fill="#FFE81F" mask="url(#path-1-outside-1_50_79)"/>
</svg>
