<svg width="56" height="39" viewBox="0 0 56 39" fill="none" xmlns="http://www.w3.org/2000/svg">
<path d="M54.8298 6.10218C54.1858 3.70023 52.2882 1.80852 49.8788 1.16655C45.5117 0 28 0 28 0C28 0 10.4884 0 6.12116 1.16655C3.71181 1.80862 1.81422 3.70023 1.17017 6.10218C0 10.4559 0 19.5394 0 19.5394C0 19.5394 0 28.623 1.17017 32.9766C1.81422 35.3786 3.71181 37.1915 6.12116 37.8335C10.4884 39 28 39 28 39C28 39 45.5116 39 49.8788 37.8335C52.2882 37.1915 54.1858 35.3786 54.8298 32.9766C56 28.623 56 19.5394 56 19.5394C56 19.5394 56 10.4559 54.8298 6.10218ZM22.2727 27.7866V11.2922L36.909 19.5396L22.2727 27.7866Z" fill="#FFE81F"/>
</svg>
